<svg xmlns="http://www.w3.org/2000/svg" width="178.864" height="134.602" viewBox="0 0 47.325 35.613"><g style="display:inline"><path style="display:inline;opacity:1;fill:#fff;fill-opacity:1;stroke:none;stroke-width:1.88976383;stroke-opacity:.98876403" d="M89.432 6.973c-40.334.03-75.116 27.776-84.4 66.619 1.182 2.382 2.245 5.375 3.66 7.295.633.01 2.683-5.424 3.316-5.397.633.028 2.202 5.62 2.834 5.664.204.015.604-.59 1.049-1.332l1.517-7.539 17.08 3.438-1.597 7.947c.065.125.13.213.195.228.617.144 3.76-4.74 4.373-4.58.613.16.976 5.957 1.584 6.133.608.176 4.006-4.535 4.61-4.344.603.192.659 6 1.257 6.207.598.208 4.24-4.317 4.832-4.093.593.223.341 6.025.928 6.263.586.24 4.46-4.086 5.04-3.832.58.255.025 6.036.599 6.305.573.27 4.67-3.847 5.236-3.562.566.284-.296 6.028.262 6.328.558.3 4.868-3.596 5.418-3.282.55.314-.614 6.006-.073 6.334.542.329 5.052-3.332 5.584-2.99.368.236-.193 2.93-.418 4.729a151.63 151.63 0 0 1 4.301-.559l1.54-.174c3.716-.389 7.468-.651 11.273-.738 3.804.087 7.557.35 11.273.738l1.54.174c1.438.166 2.872.352 4.3.559-.224-1.8-.783-4.493-.416-4.729.533-.342 5.04 3.319 5.582 2.99.541-.328-.622-6.02-.072-6.334.55-.314 4.86 3.581 5.418 3.282.558-.3-.303-6.044.263-6.328.566-.285 4.664 3.832 5.237 3.562.573-.27.015-6.05.595-6.305.58-.254 4.455 4.071 5.041 3.832.587-.238.337-6.04.93-6.263.593-.224 4.232 4.301 4.83 4.094.598-.208.654-6.016 1.258-6.208.603-.191 4 4.52 4.61 4.344.608-.176.97-5.973 1.583-6.133.613-.16 3.756 4.724 4.373 4.58.617-.143 1.286-5.912 1.907-6.039.62-.127 3.501 4.916 4.125 4.805.623-.11 1.594-5.837 2.22-5.932.627-.094 3.239 5.096 3.867 5.018.629-.078 1.9-5.746 2.53-5.807.63-.06 2.966 5.258 3.597 5.213.632-.044 2.202-5.636 2.834-5.664.633-.027 2.682 5.408 3.315 5.397.486-.009 1.693-3.235 2.515-4.739l1.176-2.466c-9.254-38.893-44.056-66.69-84.431-66.71Zm.81 5.636c0 3.012 2.69 5.575 5.602 5.575-3.026 0-5.602 2.676-5.602 5.574 0-3.012-2.688-5.574-5.6-5.574 3.026 0 5.6-2.677 5.6-5.575zm16.336 10.131c0 2.113 1.885 3.912 3.928 3.912-2.123 0-3.928 1.877-3.928 3.91 0-2.113-1.887-3.91-3.93-3.91 2.123 0 3.93-1.879 3.93-3.912zm4.918 14.258c0 2.113 1.887 3.91 3.93 3.91-2.123 0-3.93 1.88-3.93 3.912 0-2.113-1.887-3.912-3.93-3.912 2.123 0 3.93-1.877 3.93-3.91zm-72.014.457c0 2.113 1.887 3.91 3.93 3.91-2.123 0-3.93 1.88-3.93 3.912 0-2.113-1.887-3.912-3.93-3.912 2.124 0 3.93-1.877 3.93-3.91zm32 8c0 2.113 1.887 3.91 3.93 3.91-2.123 0-3.93 1.88-3.93 3.912 0-2.113-1.887-3.912-3.93-3.912 2.124 0 3.93-1.877 3.93-3.91zm48 4c0 2.113 1.887 3.91 3.93 3.91-2.123 0-3.93 1.88-3.93 3.912 0-2.113-1.885-3.912-3.927-3.912 2.122 0 3.927-1.877 3.927-3.91zm23.922 11.164c0 3.3 2.947 6.108 6.137 6.108-3.315 0-6.137 2.932-6.137 6.107 0-3.3-2.945-6.107-6.134-6.107 3.314 0 6.134-2.933 6.134-6.108zM25.313 64.09l-1.715 8.544-6.01-1.195.176-.8c.214-.814.746-2.113 1.174-2.724.362-.517.79-1.045 1.287-1.539.737-.732 2.07-1.49 2.902-1.791.728-.259 1.356-.444 2.186-.494zm88.326.872c0 2.113 1.887 3.912 3.93 3.912-2.124 0-3.93 1.877-3.93 3.91 0-2.113-1.886-3.91-3.928-3.91 2.123 0 3.928-1.879 3.928-3.912zm-83.266.14h.002c.746.368 1.257.789 1.83 1.31.65.599 1.59 1.812 1.986 2.773.268.648.457 1.3.59 1.918.157.727.143 2.132.026 2.966l-.147.805-6-1.223c.33-1.636 1.604-8.007 1.713-8.548zm-3.545 1.616c.152-.007.306 0 .461.023.04.006.081.018.121.026a2.376 2.376 0 1 1-2.799 1.86 2.382 2.382 0 0 1 2.217-1.91zm30.654 4.738c0 2.113 1.887 3.91 3.93 3.91-2.123 0-3.93 1.88-3.93 3.912 0-2.113-1.887-3.912-3.93-3.912 2.124 0 3.93-1.877 3.93-3.91zm72.582 3.98c0 2.114 1.887 3.91 3.93 3.91-2.123 0-3.93 1.88-3.93 3.913 0-2.113-1.885-3.912-3.927-3.912 2.123 0 3.927-1.877 3.927-3.91zm-48.582.02c0 2.113 1.887 3.91 3.93 3.91-2.123 0-3.93 1.88-3.93 3.912 0-2.113-1.885-3.912-3.927-3.912 2.122 0 3.927-1.877 3.927-3.91z" transform="scale(.26458)"/><path style="display:inline;opacity:1;fill:#fff;stroke:#fff;stroke-width:.26458299px;stroke-linecap:butt;stroke-linejoin:miter;stroke-opacity:1" d="M121.708 73.989h1.32c0-1.15.205-5.155 2.56-5.155 2.888 0 3.422 3.571 3.422 5.155h2.426c0-1.601.435-3.126 1.959-3.367 1.75-.276 2.945 1.712 2.945 3.367h7.06v-1.252l-1.46-.723c-6.517-2.43-13.058-4.773-20.232-4.936m0 6.91h-1.32c0-1.148-.205-5.154-2.56-5.154-2.887 0-3.421 3.571-3.421 5.155h-2.426c0-1.601-.435-3.126-1.959-3.367-1.75-.276-2.945 1.712-2.945 3.367h-7.06v-1.252l1.46-.723c6.516-2.43 13.057-4.773 20.231-4.936" transform="translate(-98.046 -40.08)"/><path style="display:inline;opacity:1;fill:#fff;stroke:#fff;stroke-width:.35921499" d="m100.066 68.421 1.424-1.222 1.425 1.222v4.158h-2.849z" transform="translate(-98.046 -40.08)"/><g transform="translate(-97.935 -40.543)" style="fill:#fff"><path style="fill:#fff;fill-opacity:1;stroke:none;stroke-width:.05968967" d="M140.428 72.448h1.86v1.376h-1.86z"/><path style="fill:#fff;fill-opacity:1;stroke:none;stroke-width:.07313652" d="M140.463 71.95h1.86v.635h-1.86zM140.543 69.639h1.86v1.718h-1.86z"/><path style="fill:#fff;fill-opacity:1;stroke:none;stroke-width:.07313652" d="M140.52 71.325h1.86v.687h-1.86zM140.607 66.783h1.86v3.063h-1.86z"/><path style="fill:#fff;fill-opacity:1;stroke:none;stroke-width:.07313652" d="M140.549 65.445h1.86v1.433h-1.86z"/><path transform="matrix(.02042 0 0 .02089 135.859 68.994)" d="m241.618 133.214 19.563 33.882h-39.125z" style="fill:#fff;fill-opacity:1;stroke:none"/><path style="fill:#fff;fill-opacity:1;stroke:none" d="m241.618 133.214 19.563 33.882h-39.125z" transform="matrix(.02042 0 0 .02089 135.855 68.56)"/><path transform="matrix(.02042 0 0 .02089 135.94 67.859)" d="m241.618 133.214 19.563 33.882h-39.125z" style="fill:#fff;fill-opacity:1;stroke:none"/><path style="fill:#fff;fill-opacity:1;stroke:none" d="m241.618 133.214 19.563 33.882h-39.125z" transform="matrix(.02042 0 0 .02089 135.949 66.165)"/><path transform="matrix(.02042 0 0 .02089 135.983 63.386)" d="m241.618 133.214 19.563 33.882h-39.125z" style="fill:#fff;fill-opacity:1;stroke:none"/><path style="fill:#fff;fill-opacity:1;stroke:none" d="m241.618 133.214 19.563 33.882h-39.125z" transform="matrix(.02042 0 0 .02089 135.92 62.289)"/><path style="fill:#fff;fill-opacity:1;stroke:none;stroke-width:.07313652" d="M141.87 63.544c-.002.39-.24.351-.438.4-.85.212-.965.932-.965 1.364 0 .431-.053.36.723.36.345 0 .873.033.873.033l-.161-2.16z"/><path transform="matrix(.00612 0 0 -.01259 139.125 67.852)" d="m241.618 133.214 19.563 33.882h-39.125z" style="fill:#fff;fill-opacity:1;stroke:none"/><path style="fill:#fff;fill-opacity:1;stroke:none" d="m241.618 133.214 19.563 33.882h-39.125z" transform="matrix(.00612 0 0 -.01259 139.19 68.952)"/><ellipse ry=".28" rx=".273" cy="63.425" cx="-141.923" transform="scale(-1 1)" style="fill:#fff;fill-opacity:1;stroke:none;stroke-width:.14750811"/><path style="fill:#fff;fill-opacity:1;stroke:none;stroke-width:.0634987" transform="scale(-1 1)" d="M-143.422 72.448h1.86v1.557h-1.86z"/><path style="fill:#fff;fill-opacity:1;stroke:none;stroke-width:.07313652" transform="scale(-1 1)" d="M-143.387 71.95h1.86v.635h-1.86zM-143.306 69.639h1.86v1.718h-1.86z"/><path style="fill:#fff;fill-opacity:1;stroke:none;stroke-width:.07313652" transform="scale(-1 1)" d="M-143.329 71.325h1.86v.687h-1.86zM-143.243 66.783h1.86v3.063h-1.86z"/><path style="fill:#fff;fill-opacity:1;stroke:none;stroke-width:.07313652" transform="scale(-1 1)" d="M-143.301 65.445h1.86v1.433h-1.86z"/><path style="fill:#fff;fill-opacity:1;stroke:none" d="m241.618 133.214 19.563 33.882h-39.125z" transform="matrix(-.02042 0 0 .02089 147.99 68.994)"/><path transform="matrix(-.02042 0 0 .02089 147.995 68.56)" d="m241.618 133.214 19.563 33.882h-39.125z" style="fill:#fff;fill-opacity:1;stroke:none"/><path style="fill:#fff;fill-opacity:1;stroke:none" d="m241.618 133.214 19.563 33.882h-39.125z" transform="matrix(-.02042 0 0 .02089 147.91 67.859)"/><path transform="matrix(-.02042 0 0 .02089 147.901 66.165)" d="m241.618 133.214 19.563 33.882h-39.125z" style="fill:#fff;fill-opacity:1;stroke:none"/><path style="fill:#fff;fill-opacity:1;stroke:none" d="m241.618 133.214 19.563 33.882h-39.125z" transform="matrix(-.02042 0 0 .02089 147.866 63.386)"/><path d="M141.979 63.544c.003.39.241.351.439.4.849.212.964.932.964 1.364 0 .431.053.36-.722.36-.346 0-.873.033-.873.033l.129-2.16z" style="fill:#fff;fill-opacity:1;stroke:none;stroke-width:.07313652"/><path transform="matrix(-.02042 0 0 .02089 147.93 62.289)" d="m241.618 133.214 19.563 33.882h-39.125z" style="fill:#fff;fill-opacity:1;stroke:none"/><path style="fill:#fff;fill-opacity:1;stroke:none" d="m241.618 133.214 19.563 33.882h-39.125z" transform="matrix(-.00612 0 0 -.01259 144.724 67.852)"/><path transform="matrix(-.00612 0 0 -.01259 144.66 68.952)" d="m241.618 133.214 19.563 33.882h-39.125z" style="fill:#fff;fill-opacity:1;stroke:none"/></g><g transform="matrix(.94932 0 0 .94932 -103.822 -34.94)" style="fill:#fff"><path style="fill:#fff;fill-opacity:1;stroke:none;stroke-width:.0770407" d="M150.451 69.697h1.959v2.176h-1.959z"/><path style="fill:#fff;fill-opacity:1;stroke:none;stroke-width:.0770407" d="M150.488 69.173h1.959v.668h-1.959zM150.573 66.739h1.959v1.81h-1.959z"/><path style="fill:#fff;fill-opacity:1;stroke:none;stroke-width:.0770407" d="M150.548 68.515h1.959v.724h-1.959zM150.64 63.731h1.959v3.227h-1.959z"/><path style="fill:#fff;fill-opacity:1;stroke:none;stroke-width:.0770407" d="M150.579 62.321h1.959v1.51h-1.959z"/><path style="fill:#fff;fill-opacity:1;stroke:none" d="m241.618 133.214 19.563 33.882h-39.125z" transform="matrix(.0215 0 0 .022 145.638 66.059)"/><path transform="matrix(.0215 0 0 .022 145.634 65.602)" d="m241.618 133.214 19.563 33.882h-39.125z" style="fill:#fff;fill-opacity:1;stroke:none"/><path style="fill:#fff;fill-opacity:1;stroke:none" d="m241.618 133.214 19.563 33.882h-39.125z" transform="matrix(.0215 0 0 .022 145.724 64.864)"/><path transform="matrix(.0215 0 0 .022 145.733 63.08)" d="m241.618 133.214 19.563 33.882h-39.125z" style="fill:#fff;fill-opacity:1;stroke:none"/><path style="fill:#fff;fill-opacity:1;stroke:none" d="m241.618 133.214 19.563 33.882h-39.125z" transform="matrix(.0215 0 0 .022 145.77 60.152)"/><path transform="matrix(.0215 0 0 .022 145.702 58.996)" d="m241.618 133.214 19.563 33.882h-39.125z" style="fill:#fff;fill-opacity:1;stroke:none"/><path d="M151.978 60.318c-.003.41-.261.37-.47.422-.894.223-1.015.982-1.015 1.436 0 .455-.056.38.76.38.365 0 .92.034.92.034l-.163-2.275z" style="fill:#fff;fill-opacity:1;stroke:none;stroke-width:.0770407"/><path style="fill:#fff;fill-opacity:1;stroke:none" d="m241.618 133.214 19.563 33.882h-39.125z" transform="matrix(.00645 0 0 -.01326 149.079 64.857)"/><path transform="matrix(.00645 0 0 -.01326 149.147 66.015)" d="m241.618 133.214 19.563 33.882h-39.125z" style="fill:#fff;fill-opacity:1;stroke:none"/><ellipse style="fill:#fff;fill-opacity:1;stroke:none;stroke-width:.15538241" transform="scale(-1 1)" cx="-152.026" cy="60.193" rx=".288" ry=".295"/><path transform="scale(-1 1)" style="fill:#fff;fill-opacity:1;stroke:none;stroke-width:.0770407" d="M-153.605 69.697h1.959v2.176h-1.959z"/><path transform="scale(-1 1)" style="fill:#fff;fill-opacity:1;stroke:none;stroke-width:.0770407" d="M-153.568 69.173h1.959v.668h-1.959zM-153.483 66.739h1.959v1.81h-1.959z"/><path transform="scale(-1 1)" style="fill:#fff;fill-opacity:1;stroke:none;stroke-width:.0770407" d="M-153.507 68.515h1.959v.724h-1.959zM-153.416 63.731h1.959v3.227h-1.959z"/><path transform="scale(-1 1)" style="fill:#fff;fill-opacity:1;stroke:none;stroke-width:.0770407" d="M-153.477 62.321h1.959v1.51h-1.959z"/><path style="fill:#fff;fill-opacity:1;stroke:none" d="m241.618 133.214 19.563 33.882h-39.125z" transform="matrix(-.0215 0 0 .022 158.45 67.97)"/><path transform="matrix(-.0215 0 0 .022 158.418 66.059)" d="m241.618 133.214 19.563 33.882h-39.125z" style="fill:#fff;fill-opacity:1;stroke:none"/><path style="fill:#fff;fill-opacity:1;stroke:none" d="m241.618 133.214 19.563 33.882h-39.125z" transform="matrix(-.0215 0 0 .022 158.422 65.602)"/><path transform="matrix(-.0215 0 0 .022 158.332 64.864)" d="m241.618 133.214 19.563 33.882h-39.125z" style="fill:#fff;fill-opacity:1;stroke:none"/><path style="fill:#fff;fill-opacity:1;stroke:none" d="m241.618 133.214 19.563 33.882h-39.125z" transform="matrix(-.0215 0 0 .022 158.323 63.08)"/><path transform="matrix(-.0215 0 0 .022 158.287 60.152)" d="m241.618 133.214 19.563 33.882h-39.125z" style="fill:#fff;fill-opacity:1;stroke:none"/><path style="fill:#fff;fill-opacity:1;stroke:none;stroke-width:.0770407" d="M152.078 60.318c.003.41.261.37.47.422.894.223 1.015.982 1.015 1.436 0 .455.056.38-.76.38-.365 0-.92.034-.92.034l.136-2.275z"/><path style="fill:#fff;fill-opacity:1;stroke:none" d="m241.618 133.214 19.563 33.882h-39.125z" transform="matrix(-.0215 0 0 .022 158.353 58.996)"/><path transform="matrix(-.00645 0 0 -.01326 154.977 64.857)" d="m241.618 133.214 19.563 33.882h-39.125z" style="fill:#fff;fill-opacity:1;stroke:none"/><path style="fill:#fff;fill-opacity:1;stroke:none" d="m241.618 133.214 19.563 33.882h-39.125z" transform="matrix(-.00645 0 0 -.01326 154.91 66.015)"/></g></g></svg>