<svg width="178.866" height="134.6" viewBox="0 0 47.325 35.613" xmlns="http://www.w3.org/2000/svg"><path d="M23.662 1.845C12.99 1.853 3.788 9.194 1.332 19.47c.312.63.594 1.422.968 1.93.167.003.71-1.435.877-1.428.168.007.583 1.487.75 1.499.054.004.16-.156.278-.353l.401-1.994 4.52.91-.424 2.102c.018.033.035.056.052.06.163.038.995-1.254 1.157-1.211.162.042.258 1.576.42 1.622.16.047 1.059-1.2 1.219-1.15.16.052.174 1.588.333 1.643s1.121-1.142 1.278-1.083c.157.059.09 1.594.245 1.657.156.063 1.18-1.08 1.334-1.014.154.068.007 1.597.158 1.668.152.072 1.236-1.017 1.386-.942.15.075-.079 1.595.069 1.674.148.08 1.288-.951 1.433-.868.146.083-.162 1.589-.019 1.676.144.087 1.337-.882 1.478-.791.097.062-.051.775-.11 1.25a40.12 40.12 0 0 1 1.137-.147l.407-.046a36.599 36.599 0 0 1 2.983-.195c1.006.023 2 .092 2.982.195l.408.046c.38.044.76.093 1.138.148-.06-.476-.208-1.189-.11-1.251.14-.09 1.333.878 1.476.79.144-.086-.164-1.592-.019-1.675.146-.083 1.286.947 1.434.868s-.08-1.599.07-1.674c.15-.075 1.233 1.014 1.385.942.152-.07.004-1.6.158-1.668.153-.067 1.178 1.077 1.333 1.014.156-.063.09-1.598.246-1.657s1.12 1.138 1.278 1.083c.159-.055.173-1.591.333-1.642s1.059 1.196 1.22 1.15c.16-.047.257-1.581.419-1.623.162-.043.994 1.25 1.157 1.211.163-.038.34-1.564.504-1.598.164-.033.926 1.301 1.091 1.272.165-.03.422-1.545.588-1.57.166-.025.857 1.348 1.023 1.328.166-.02.503-1.52.67-1.536.166-.017.784 1.39.951 1.379.167-.012.583-1.491.75-1.499.167-.007.71 1.43.877 1.428.129-.002.448-.856.666-1.254l.31-.652C43.553 9.205 34.345 1.85 23.663 1.845zm.214 1.491c0 .797.712 1.475 1.482 1.475-.8 0-1.482.708-1.482 1.475 0-.797-.71-1.475-1.481-1.475.8 0 1.481-.708 1.481-1.475zm4.323 2.68c0 .56.498 1.036 1.039 1.036-.562 0-1.04.496-1.04 1.034 0-.559-.499-1.034-1.04-1.034.562 0 1.04-.497 1.04-1.035zm1.3 3.773c0 .56.5 1.035 1.04 1.035-.561 0-1.04.497-1.04 1.035 0-.56-.499-1.035-1.039-1.035.562 0 1.04-.497 1.04-1.035zm-19.053.121c0 .559.5 1.035 1.04 1.035-.562 0-1.04.497-1.04 1.035 0-.56-.499-1.035-1.04-1.035.562 0 1.04-.497 1.04-1.035zm8.467 2.117c0 .559.5 1.034 1.04 1.034-.562 0-1.04.497-1.04 1.035 0-.559-.5-1.035-1.04-1.035.562 0 1.04-.496 1.04-1.034zm12.7 1.058c0 .559.499 1.034 1.04 1.034-.562 0-1.04.498-1.04 1.036 0-.56-.5-1.036-1.04-1.036.562 0 1.04-.496 1.04-1.034zm6.329 2.954c0 .873.78 1.616 1.624 1.616-.877 0-1.624.775-1.624 1.615 0-.873-.78-1.615-1.623-1.615.877 0 1.623-.776 1.623-1.616zm-31.244.918c-.03.143-.367 1.827-.454 2.26l-1.59-.316.046-.211c.057-.216.198-.56.311-.721.096-.137.209-.277.34-.407.196-.194.548-.395.768-.474.193-.069.36-.118.579-.131zm23.369.23c0 .56.5 1.036 1.04 1.036-.562 0-1.04.496-1.04 1.034 0-.559-.499-1.034-1.04-1.034.562 0 1.04-.498 1.04-1.036zm-22.03.038c.197.097.333.208.484.346.172.159.42.48.526.734.07.171.12.344.156.507.041.193.038.564.007.785l-.04.213-1.587-.324.454-2.261zm-.938.427c.04-.002.08 0 .122.006l.032.007a.628.628 0 1 1-.154-.013zm8.11 1.254c0 .559.5 1.034 1.04 1.034-.562 0-1.04.497-1.04 1.035 0-.559-.5-1.035-1.04-1.035.562 0 1.04-.496 1.04-1.034zm19.204 1.053c0 .559.499 1.034 1.04 1.034-.562 0-1.04.498-1.04 1.035 0-.559-.499-1.035-1.04-1.035.562 0 1.04-.496 1.04-1.034zm-12.854.005c0 .559.5 1.035 1.04 1.035-.562 0-1.04.497-1.04 1.035 0-.56-.499-1.035-1.04-1.035.562 0 1.04-.497 1.04-1.035z"/><path d="M23.664 33.909h1.32c0-1.149.205-5.155 2.56-5.155 2.887 0 3.421 3.572 3.421 5.155h2.427c0-1.601.434-3.126 1.958-3.366 1.75-.277 2.946 1.711 2.946 3.366h7.059v-1.252l-1.46-.722c-6.516-2.43-13.058-4.774-20.232-4.937m0 6.911h-1.32c0-1.149-.205-5.155-2.559-5.155-2.888 0-3.422 3.572-3.422 5.155h-2.426c0-1.601-.435-3.126-1.959-3.366-1.75-.277-2.945 1.711-2.945 3.366h-7.06v-1.252l1.46-.722c6.517-2.43 13.058-4.774 20.232-4.937" stroke="#000" stroke-width=".265"/><path d="m2.024 28.341 1.424-1.222 1.425 1.222v4.158H2.024z" stroke="#000" stroke-width=".359"/><g transform="translate(-97.935 -40.543)"><path d="M140.43 72.448h1.86v1.376h-1.86z"/><path d="M140.46 71.95h1.86v.635h-1.86zM140.54 69.639h1.86v1.718h-1.86z"/><path d="M140.52 71.325h1.86v.687h-1.86zM140.61 66.783h1.86v3.063h-1.86z"/><path d="M140.55 65.445h1.86v1.433h-1.86zM140.793 71.777l.4.707h-.799z"/><path d="m140.783 71.343.4.707h-.799z"/><path d="m140.873 70.642.4.707h-.799zM140.883 68.948l.4.707h-.799zM140.913 66.169l.4.707h-.799zM140.853 65.072l.4.707h-.799z"/><path d="M141.87 63.544c-.003.39-.242.351-.439.4-.849.212-.964.932-.964 1.364 0 .431-.053.36.722.36.346 0 .873.033.873.033l-.16-2.16zM140.61 66.175l.12-.427h-.24zM140.67 67.275l.12-.427h-.24z"/><ellipse transform="scale(-1 1)" cx="-141.92" cy="63.425" rx=".273" ry=".28"/><path d="M143.42 72.448h-1.86v1.557h1.86z"/><path d="M143.39 71.95h-1.86v.635h1.86zM143.31 69.639h-1.86v1.718h1.86z"/><path d="M143.33 71.325h-1.86v.687h1.86zM143.24 66.783h-1.86v3.063h1.86z"/><path d="M143.3 65.445h-1.86v1.433h1.86zM143.057 71.777l-.4.707h.799z"/><path d="m143.057 71.343-.4.707h.799z"/><path d="m142.977 70.642-.4.707h.799zM142.967 68.948l-.4.707h.799zM142.937 66.169l-.4.707h.799zM141.98 63.544c.003.39.241.351.439.4.849.212.964.932.964 1.364 0 .431.053.36-.722.36-.346 0-.873.033-.873.033l.129-2.16z"/><path d="m142.997 65.072-.4.707h.799z"/><path d="m143.24 66.175-.12-.427h.24zM143.18 67.275l-.12-.427h.24z"/></g><g transform="translate(-103.822 -34.94) scale(.94932)"><path d="M150.45 69.697h1.959v2.176h-1.959z"/><path d="M150.49 69.173h1.959v.668h-1.959zM150.57 66.739h1.959v1.81h-1.959z"/><path d="M150.55 68.515h1.959v.724h-1.959zM150.64 63.731h1.959v3.227h-1.959z"/><path d="M150.58 62.321h1.959v1.51h-1.959zM150.837 68.99l.42.746h-.841z"/><path d="m150.827 68.533.42.746h-.841z"/><path d="m150.917 67.795.42.746h-.841zM150.927 66.01l.42.746h-.841zM150.967 63.083l.42.746h-.841zM150.897 61.927l.42.746h-.841z"/><path d="M151.98 60.318c-.003.41-.26.37-.469.422-.894.222-1.016.981-1.016 1.436 0 .454-.056.379.761.379.364 0 .92.035.92.035l-.163-2.275zM150.638 63.09l.127-.449h-.253zM150.708 64.248l.127-.449h-.253z"/><ellipse transform="scale(-1 1)" cx="-152.03" cy="60.193" rx=".288" ry=".295"/><path d="M153.6 69.697h-1.959v2.176h1.959z"/><path d="M153.57 69.173h-1.959v.668h1.959zM153.48 66.739h-1.959v1.81h1.959z"/><path d="M153.51 68.515h-1.959v.724h1.959zM153.42 63.731h-1.959v3.227h1.959z"/><path d="M153.48 62.321h-1.959v1.51h1.959zM153.253 70.902l-.42.746h.841zM153.223 68.99l-.42.746h.841z"/><path d="m153.223 68.533-.42.746h.841z"/><path d="m153.133 67.795-.42.746h.841zM153.123 66.01l-.42.746h.841zM153.093 63.083l-.42.746h.841zM152.08 60.318c.003.41.26.37.469.422.894.222 1.016.981 1.016 1.436 0 .454.056.379-.761.379-.364 0-.92.035-.92.035l.137-2.275z"/><path d="m153.153 61.927-.42.746h.841z"/><path d="m153.422 63.09-.127-.449h.253zM153.352 64.248l-.127-.449h.253z"/></g></svg>