<?xml version="1.0" encoding="UTF-8" standalone="no"?>
<!-- Created with Inkscape (http://www.inkscape.org/) -->

<svg
   width="15.790359mm"
   height="13.7793mm"
   viewBox="0 0 15.790359 13.7793"
   version="1.1"
   id="svg1"
   inkscape:version="1.3.2 (091e20ef0f, 2023-11-25, custom)"
   sodipodi:docname="certificate.svg"
   inkscape:export-filename="./certificate.png"
   inkscape:export-xdpi="675.60211"
   inkscape:export-ydpi="675.60211"
   xmlns:inkscape="http://www.inkscape.org/namespaces/inkscape"
   xmlns:sodipodi="http://sodipodi.sourceforge.net/DTD/sodipodi-0.dtd"
   xmlns:xlink="http://www.w3.org/1999/xlink"
   xmlns="http://www.w3.org/2000/svg"
   xmlns:svg="http://www.w3.org/2000/svg">
  <sodipodi:namedview
     id="namedview1"
     pagecolor="#ffffff"
     bordercolor="#000000"
     borderopacity="0.25"
     inkscape:showpageshadow="2"
     inkscape:pageopacity="0.0"
     inkscape:pagecheckerboard="0"
     inkscape:deskcolor="#d1d1d1"
     inkscape:document-units="mm"
     inkscape:zoom="14.078147"
     inkscape:cx="29.371763"
     inkscape:cy="25.074322"
     inkscape:window-width="2560"
     inkscape:window-height="1371"
     inkscape:window-x="0"
     inkscape:window-y="0"
     inkscape:window-maximized="1"
     inkscape:current-layer="layer1" />
  <defs
     id="defs1">
    <pattern
       inkscape:collect="always"
       xlink:href="#halftones"
       preserveAspectRatio="xMidYMid"
       id="pattern4"
       patternTransform="scale(0.05)"
       x="0"
       y="0" />
    <pattern
       patternUnits="userSpaceOnUse"
       width="10"
       height="10"
       preserveAspectRatio="xMidYMid"
       style="fill:#0164a7"
       id="halftones"
       x="0"
       y="0"
       inkscape:label="Halftones"
       inkscape:collect="always"
       inkscape:isstock="true">
      <g
         id="fullPattern"
         style="display:inline"
         transform="scale(0.1)">
        <circle
           style="fill-opacity:1;stroke:none;paint-order:markers fill stroke;stop-color:#000000"
           id="circle10"
           cx="50"
           cy="50"
           r="25" />
        <path
           id="circle37"
           style="paint-order:markers fill stroke"
           d="M 25,0 A 25,25 0 0 1 0,25 25,25 0 0 1 -25,0 25,25 0 0 1 0,-25 25,25 0 0 1 25,0 Z" />
        <path
           id="circle39"
           style="paint-order:markers fill stroke"
           d="M 125,0 A 25,25 0 0 1 100,25 25,25 0 0 1 75,0 25,25 0 0 1 100,-25 25,25 0 0 1 125,0 Z" />
        <path
           id="circle43"
           style="paint-order:markers fill stroke"
           d="M 25,100 A 25,25 0 0 1 0,125 25,25 0 0 1 -25,100 25,25 0 0 1 0,75 25,25 0 0 1 25,100 Z" />
        <path
           id="circle45"
           style="paint-order:markers fill stroke"
           d="m 125,100 a 25,25 0 0 1 -25,25 25,25 0 0 1 -25,-25 25,25 0 0 1 25,-25 25,25 0 0 1 25,25 z" />
      </g>
    </pattern>
  </defs>
  <g
     inkscape:label="Layer 1"
     inkscape:groupmode="layer"
     id="layer1"
     transform="translate(-95.675781,-141.33984)">
    <rect
       style="fill:#ffffff;stroke:none;stroke-width:0.7"
       id="rect4"
       width="14.598532"
       height="12.526504"
       x="96.282837"
       y="141.97333"
       ry="0.58792716" />
    <g
       id="g1489"
       transform="matrix(0.02678334,0,0,0.02678334,113.23261,124.68574)">
      <path
         style="color:#000000;fill:#0164a7;fill-opacity:1;-inkscape-stroke:none"
         d="m -182.5957,835.1748 -94.58399,94.58594 -51.71289,-51.71289 -31.82031,31.81836 83.5332,83.5332 126.4043,-126.40625 z"
         id="path1481" />
    </g>
    <path
       style="color:#000000;fill:url(#pattern4);fill-opacity:1;-inkscape-stroke:none"
       d="m 96.613281,141.33984 c -0.513557,0 -0.9375,0.4259 -0.9375,0.93946 v 11.90039 c 0,0.51355 0.423943,0.93945 0.9375,0.93945 h 13.915359 c 0.51356,0 0.9375,-0.4259 0.9375,-0.93945 V 142.2793 c 0,-0.51356 -0.42394,-0.93946 -0.9375,-0.93946 z m 0,0.70118 h 13.915359 c 0.13787,0 0.23828,0.10041 0.23828,0.23828 v 11.90039 c 0,0.13786 -0.10041,0.23828 -0.23828,0.23828 H 96.613281 c -0.137865,0 -0.238281,-0.10042 -0.238281,-0.23828 V 142.2793 c 0,-0.13787 0.100416,-0.23828 0.238281,-0.23828 z"
       id="rect2"
       sodipodi:nodetypes="ssssssssssssssssss"
       inkscape:export-filename="./certificate.png"
       inkscape:export-xdpi="804.28827"
       inkscape:export-ydpi="804.28827" />
    <g
       id="g3"
       transform="matrix(0.68740345,0,0,0.68740345,28.160269,43.900309)">
      <circle
         style="fill:#0164a7;stroke:none;stroke-width:0.7"
         id="path3"
         cx="105.01688"
         cy="148.54805"
         r="4.4583511" />
      <g
         id="g5"
         transform="matrix(0.35277777,0,0,0.35277777,-79.622066,-35.320167)">
        <path
           id="path4"
           style="fill:#ffffff;fill-opacity:1;stroke:#0164a7;stroke-width:1.98425;stroke-opacity:1"
           d="m 523.07227,513.6123 c -2.66624,0.0697 -4.9148,1.78725 -6.78139,3.53714 -1.1579,1.14221 -3.16792,3.33914 -3.17496,3.71985 0.003,0.39089 1.00829,1.34457 1.39035,1.89895 1.93548,2.19719 4.18034,4.38996 7.06641,5.22794 2.5308,0.71684 5.01987,-0.62367 7.03634,-2.04352 1.96078,-1.40765 3.29544,-2.83473 4.89199,-4.64043 0.30791,-0.34044 0.15639,-0.92465 -0.31609,-1.36736 -2.30912,-2.39491 -4.85218,-4.7663 -8.02088,-5.94924 -0.67219,-0.23034 -1.3799,-0.38494 -2.09177,-0.38333 z"
           sodipodi:nodetypes="cccccccccc" />
        <path
           sodipodi:type="star"
           style="fill:#0164a7;stroke:#0164a7;stroke-width:1.98425"
           id="path1"
           inkscape:flatsided="true"
           sodipodi:sides="6"
           sodipodi:cx="32.689548"
           sodipodi:cy="691.89282"
           sodipodi:r1="6.6313624"
           sodipodi:r2="5.742928"
           sodipodi:arg1="0.52359878"
           sodipodi:arg2="1.0471976"
           inkscape:rounded="0"
           inkscape:randomized="0"
           d="m 38.432477,695.2085 -5.742929,3.31568 -5.742928,-3.31568 0,-6.63136 5.742929,-3.31568 5.742928,3.31568 z"
           transform="matrix(0.64585289,0.2079701,-0.2079701,0.64585289,645.61516,67.226233)" />
      </g>
      <circle
         style="fill:#ffffff;stroke:none;stroke-width:0.699999"
         id="path2"
         cx="105.01688"
         cy="147.82785"
         r="0.29483783" />
      <path
         id="rect3"
         style="fill:#0164a7;stroke-width:0.7"
         d="m 102.20433,150.8768 h 5.62511 v 6.19259 l -2.8709,-2.41263 -2.75421,2.41263 z"
         sodipodi:nodetypes="cccccc" />
    </g>
  </g>
</svg>
