<?xml version="1.0" encoding="UTF-8" standalone="no"?>
<!-- Created with Inkscape (http://www.inkscape.org/) -->

<svg
   width="24mm"
   height="24mm"
   viewBox="0 0 24 24"
   version="1.1"
   id="svg207"
   inkscape:version="1.2.2 (b0a8486541, 2022-12-01)"
   sodipodi:docname="logo12.svg"
   xmlns:inkscape="http://www.inkscape.org/namespaces/inkscape"
   xmlns:sodipodi="http://sodipodi.sourceforge.net/DTD/sodipodi-0.dtd"
   xmlns="http://www.w3.org/2000/svg"
   xmlns:svg="http://www.w3.org/2000/svg">
  <sodipodi:namedview
     id="namedview209"
     pagecolor="#ffffff"
     bordercolor="#666666"
     borderopacity="1.0"
     inkscape:showpageshadow="2"
     inkscape:pageopacity="0.0"
     inkscape:pagecheckerboard="0"
     inkscape:deskcolor="#d1d1d1"
     inkscape:document-units="mm"
     showgrid="false"
     inkscape:zoom="6.2618827"
     inkscape:cx="-3.5931685"
     inkscape:cy="54.456465"
     inkscape:window-width="1920"
     inkscape:window-height="1011"
     inkscape:window-x="0"
     inkscape:window-y="0"
     inkscape:window-maximized="1"
     inkscape:current-layer="layer1" />
  <defs
     id="defs204" />
  <g
     inkscape:label="Layer 1"
     inkscape:groupmode="layer"
     id="layer1"
     transform="translate(-220.12669)">
    <g
       id="g5350"
       transform="translate(116.62652,-51.281737)"
       style="fill:#aa4400">
      <path
         style="fill:#ececec;stroke:#800000;stroke-width:0.117425"
         d="m 110.39513,73.093586 c -0.26376,-0.0264 -0.52541,-0.15892 -0.66922,-0.33903 -0.22968,-0.28767 -5.40083,-9.267376 -5.46046,-9.482104 -0.046,-0.165489 -0.0443,-0.342972 0.005,-0.48319 0.074,-0.212349 1.06162,-1.935147 4.81274,-8.395541 l 0.55905,-0.962819 0.1988,-0.104172 0.19881,-0.104172 h 5.52125 5.52125 l 0.17151,0.09052 c 0.31775,0.167695 0.27951,0.107952 2.20753,3.449179 1.23845,2.146197 3.17061,5.524289 3.37945,5.90844 0.1447,0.266163 0.16456,0.327207 0.16536,0.50809 l 7.9e-4,0.205581 -2.27223,3.929231 c -3.50336,6.058137 -3.26929,5.681057 -3.56784,5.747627 -0.17156,0.0383 -10.4049,0.069 -10.77152,0.0324 z"
         id="path5326"
         sodipodi:nodetypes="csssscccccsssccsccc" />
      <path
         style="fill:#d6cfbc;fill-opacity:1;stroke:none;stroke-width:0.0366231"
         d="m 109.57377,73.148416 c -0.0564,-0.0634 -0.14596,-0.18272 -0.19902,-0.26506 -0.15626,-0.24253 -5.14866,-8.893685 -5.26344,-9.120846 -0.13144,-0.260112 -0.15915,-0.512179 -0.0825,-0.749997 0.0426,-0.132055 0.83041,-1.513387 2.7702,-4.857106 l 2.71069,-4.67257 0.14192,-0.08722 c 0.0781,-0.04797 0.2265,-0.10731 0.32987,-0.131868 0.16454,-0.03909 10.33164,-0.05783 10.87279,-0.02004 0.28303,0.01977 0.71858,0.245222 0.86738,0.448994 0.15166,0.207697 5.31657,9.157976 5.38751,9.336028 0.0332,0.08343 0.0564,0.249373 0.0514,0.368766 l -0.009,0.217078 -2.78464,4.823134 c -2.73919,4.744417 -2.78689,4.824667 -2.92253,4.916747 -0.0758,0.0515 -0.22148,0.11419 -0.32363,0.13936 -0.15137,0.0373 -10.0964,0.0681 -10.77192,0.0334 -0.22616,-0.0116 -0.61958,-0.20391 -0.77508,-0.37881 z m 0.76197,0.32828 c 0.64839,0.0352 10.61902,0.005 10.77163,-0.0329 0.10215,-0.0252 0.24778,-0.0879 0.32362,-0.13936 0.13563,-0.0921 0.18329,-0.17223 2.90423,-4.885027 l 2.76632,-4.791416 0.009,-0.217078 c 0.005,-0.119393 -0.0182,-0.285337 -0.0514,-0.368766 -0.071,-0.17825 -5.23593,-9.12845 -5.38778,-9.336392 -0.14482,-0.198334 -0.52204,-0.391509 -0.80387,-0.411673 -0.53162,-0.03804 -10.70718,-0.01959 -10.8726,0.01971 -0.10337,0.02456 -0.25181,0.0839 -0.32986,0.131868 l -0.14192,0.08722 -2.69239,4.640852 c -1.92642,3.320564 -2.70931,4.693353 -2.75189,4.82539 -0.0767,0.23782 -0.049,0.489887 0.0825,0.749998 0.11479,0.227161 5.10719,8.878314 5.26345,9.120844 0.2388,0.37063 0.56515,0.588 0.91095,0.60675 z m 0.54545,-3.0689 c 0.0101,-0.0174 0.0326,-0.0235 0.05,-0.0134 0.0174,0.0101 0.0235,0.0326 0.0134,0.05 -0.0101,0.0174 -0.0326,0.0235 -0.05,0.0134 -0.0174,-0.0101 -0.0235,-0.0326 -0.0134,-0.05 z m -1.12744,-9.473617 c -0.30139,-0.260702 -0.48045,-0.547657 -0.56615,-0.907295 -0.0736,-0.308925 -0.0648,-0.575129 0.032,-0.968326 0.0672,-0.272663 0.10354,-0.345115 0.63888,-1.272341 0.47917,-0.829945 0.59795,-1.015449 0.76199,-1.190007 0.26513,-0.282126 0.55982,-0.478197 0.85372,-0.568016 0.30021,-0.09175 0.49592,-0.102493 0.78463,-0.04307 0.68201,0.140377 1.18481,0.592069 1.37301,1.233436 0.0463,0.157673 0.10463,0.286063 0.1297,0.285312 0.0308,-9.23e-4 0.26844,-0.387357 0.7317,-1.189737 l 0.6861,-1.18837 0.44688,0.26974 0.44688,0.26974 -1.9044,3.298521 -1.9044,3.298522 -0.45704,-0.252139 -0.45705,-0.25214 0.12926,-0.223882 c 0.0875,-0.15164 0.11915,-0.236365 0.0979,-0.262566 -0.0172,-0.02128 -0.17703,-0.0016 -0.3551,0.04382 -0.42206,0.107547 -0.66453,0.07294 -1.09128,-0.15578 -0.16874,-0.09044 -0.33853,-0.19188 -0.37731,-0.225424 z m 1.43306,-0.308736 c 0.24763,0.05927 0.57223,-0.0088 0.79085,-0.165762 0.16945,-0.121687 0.18249,-0.14107 0.7128,-1.059593 0.48599,-0.841761 0.54318,-0.954718 0.56999,-1.125797 0.0691,-0.440689 -0.1181,-0.787279 -0.56427,-1.044878 -0.21326,-0.123125 -0.31322,-0.160305 -0.47839,-0.177936 -0.24038,-0.02566 -0.5186,0.05234 -0.7377,0.20681 -0.14462,0.101957 -0.17967,0.154643 -0.68347,1.027249 -0.57328,0.992948 -0.58119,1.01257 -0.55568,1.377485 0.0297,0.42435 0.43934,0.841187 0.94587,0.962422 z m 8.5968,6.082316 c -0.10661,-0.0772 -0.22232,-0.18167 -0.25714,-0.23216 -0.063,-0.0914 -0.0624,-0.0933 0.1252,-0.418273 l 0.18851,-0.326498 0.11211,0.04387 c 0.0617,0.02413 0.19699,0.08389 0.30074,0.132808 0.3579,0.16876 0.72704,0.14009 1.06264,-0.08253 0.15582,-0.103361 0.17094,-0.125862 0.69945,-1.041283 0.51064,-0.884445 0.5411,-0.945645 0.55674,-1.118532 0.0401,-0.443779 -0.13171,-0.77862 -0.54768,-1.067048 l -0.25293,-0.175378 0.18312,-0.317166 0.18311,-0.317165 0.1605,0.01118 c 0.20551,0.01431 0.62538,0.222748 0.83521,0.414628 0.50926,0.465691 0.66589,1.120295 0.44399,1.855565 -0.0713,0.236415 -0.16799,0.423469 -0.65143,1.260813 -0.5413,0.937549 -0.57813,0.993329 -0.79312,1.201219 -0.48661,0.47052 -1.01464,0.64235 -1.59574,0.51927 -0.27843,-0.059 -0.50024,-0.16006 -0.75328,-0.34332 z m -1.78855,-1.101594 c -0.005,-0.01834 0.85103,-1.522858 1.9021,-3.343366 l 1.91104,-3.310015 0.41513,0.251478 0.41514,0.251478 -1.88519,3.283898 c -1.37787,2.400174 -1.9015,3.289938 -1.94581,3.306338 -0.0447,0.0166 -0.15782,-0.0337 -0.43204,-0.19201 -0.20429,-0.117948 -0.37545,-0.229457 -0.38037,-0.247801 z"
         id="path5328" />
      <path
         style="fill:#f59151;fill-opacity:1;stroke-width:0.0366231"
         d="m 108.48943,67.096189 c -0.38698,-0.3626 -0.50728,-0.84796 -0.35682,-1.439586 0.0349,-0.137041 0.16911,-0.396064 0.52299,-1.009002 0.44207,-0.765689 0.4905,-0.837844 0.67755,-1.009494 0.49959,-0.458449 1.08231,-0.532923 1.6419,-0.209842 0.29083,0.167911 0.45105,0.367772 0.54938,0.685308 0.09,0.290711 0.12033,0.332413 0.19668,0.270577 0.0265,-0.02148 0.90475,-1.522624 1.95163,-3.335876 l 1.90342,-3.296823 0.43101,0.260608 0.43101,0.260608 -0.13794,0.258672 c -0.0759,0.142269 -0.1421,0.281918 -0.14719,0.310331 -0.006,0.03363 0.10966,0.01926 0.3315,-0.0412 0.64163,-0.174858 1.16586,-0.04246 1.66579,0.420703 0.21957,0.203422 0.42653,0.547657 0.37888,0.63019 -0.0346,0.05989 -0.92323,0.467421 -0.96725,0.443571 -0.0145,-0.0078 -0.0523,-0.07645 -0.084,-0.152471 -0.0891,-0.213253 -0.2497,-0.377581 -0.52384,-0.535853 -0.42767,-0.246916 -0.8298,-0.251781 -1.15961,-0.01403 -0.12279,0.08851 -0.27476,0.342026 -2.63653,4.398223 l -2.50623,4.304296 -0.4412,-0.24296 -0.4412,-0.24296 0.0814,-0.14103 c 0.0895,-0.15495 0.11573,-0.255 0.0734,-0.27946 -0.0151,-0.009 -0.13059,0.0118 -0.25661,0.0455 -0.12602,0.0338 -0.30604,0.0531 -0.40004,0.043 -0.22394,-0.0241 -0.58665,-0.20172 -0.77803,-0.38104 z m 1.23625,-0.28978 c 0.19403,0.0501 0.43896,-0.008 0.60845,-0.14504 0.12202,-0.0985 0.20029,-0.21398 0.51907,-0.766129 0.35797,-0.620023 0.37599,-0.65929 0.38837,-0.846355 0.008,-0.123246 -0.0166,-0.255418 -0.0665,-0.355562 -0.071,-0.142372 -0.10906,-0.176471 -0.35638,-0.31926 -0.26199,-0.151262 -0.28649,-0.158378 -0.45534,-0.132247 -0.0982,0.01519 -0.25048,0.06997 -0.33851,0.121727 -0.15701,0.09232 -0.16756,0.107099 -0.55376,0.776017 -0.37275,0.645627 -0.394,0.691162 -0.39939,0.855896 -0.0125,0.380623 0.25056,0.706763 0.65399,0.810953 z m 2.18246,2.27899 c -0.32647,-0.23695 -0.46549,-0.42372 -0.54894,-0.73749 -0.0892,-0.33521 -0.0417,-0.58344 0.18758,-0.98049 0.25146,-0.43554 0.51056,-0.62253 0.90617,-0.65396 0.34846,-0.0277 0.56354,0.0502 1.27742,0.46232 0.75251,0.43446 0.74518,0.43335 0.88393,0.13333 0.18577,-0.4017 0.0761,-0.71926 -0.34418,-0.99635 -0.22824,-0.15049 -0.41169,-0.205572 -0.88814,-0.266655 -0.12158,-0.01559 -0.12588,-0.02179 -0.24785,-0.358099 -0.0683,-0.18823 -0.11443,-0.359032 -0.10258,-0.379561 0.0616,-0.106624 0.57809,-0.123473 0.9716,-0.03169 0.34806,0.08118 0.99385,0.463666 1.21671,0.720633 0.32167,0.370872 0.43638,0.737002 0.37282,1.189922 -0.0305,0.21702 -0.0459,0.24731 -0.83185,1.63005 l -0.80081,1.408927 -0.38214,-0.220627 -0.38213,-0.22062 0.0733,-0.12687 c 0.0594,-0.10296 0.062,-0.13334 0.0137,-0.16124 -0.0328,-0.0189 -0.0911,-0.0227 -0.12976,-0.008 -0.24533,0.0908 -0.82122,-0.0957 -1.24479,-0.40313 z m 1.40446,-0.14351 c 0.28671,0.0546 0.36789,0.004 0.58082,-0.36524 0.16584,-0.28724 0.17627,-0.31779 0.13255,-0.38817 -0.0328,-0.0527 -0.21292,-0.16613 -0.58159,-0.36604 -0.42853,-0.23236 -0.56449,-0.29198 -0.6877,-0.30153 -0.18017,-0.014 -0.33938,0.076 -0.44591,0.25193 -0.15468,0.2555 -0.11247,0.49354 0.12905,0.72782 0.14752,0.14311 0.65529,0.39981 0.87278,0.44123 z m 1.99167,2.021067 c -0.19711,-0.21287 -0.26597,-0.43443 -0.22427,-0.72161 0.0302,-0.207937 0.0598,-0.267207 0.6974,-1.396917 0.48343,-0.85653 0.65943,-1.19214 0.64234,-1.2249 -0.0129,-0.0248 -0.0912,-0.0845 -0.17391,-0.1326 l -0.15037,-0.0875 0.20143,-0.34889 0.20142,-0.34888 0.15094,0.0865 c 0.083,0.0476 0.17272,0.0851 0.19935,0.0834 0.0304,-0.002 0.18229,-0.21597 0.40795,-0.57476 0.19774,-0.314401 0.375,-0.579967 0.39391,-0.590143 0.0189,-0.01018 0.0357,0.03872 0.0373,0.108651 0.005,0.200536 0.11104,0.408602 0.29022,0.567142 0.0904,0.0799 0.16629,0.16608 0.16876,0.19141 0.002,0.0253 -0.0816,0.19616 -0.18682,0.37963 -0.10522,0.18347 -0.19015,0.36279 -0.18875,0.39849 0.002,0.0442 0.0734,0.11254 0.22455,0.21422 l 0.222,0.14932 -0.19227,0.33302 -0.19227,0.33303 -0.24031,-0.1176 c -0.16365,-0.0801 -0.25866,-0.10796 -0.2978,-0.0874 -0.0328,0.0172 -0.29216,0.43622 -0.60333,0.97455 -0.68853,1.191157 -0.68511,1.177167 -0.34983,1.429447 l 0.15453,0.11627 -0.21059,0.36474 -0.21058,0.36474 -0.35217,-0.19573 c -0.1937,-0.10765 -0.38216,-0.22811 -0.41882,-0.26769 z m 2.39547,-8.83256 1.36421,-2.362883 0.44403,0.256362 0.44404,0.256362 -1.36422,2.362883 -1.36421,2.362883 -0.44403,-0.256361 -0.44403,-0.256362 z"
         id="path5330" />
      <path
         style="fill:#d6cfbc;fill-opacity:1;stroke-width:0.0366231"
         d="m 109.62574,73.021626 c 0.0611,0.0258 0.14664,0.0754 0.19012,0.11019 0.0435,0.0348 -0.007,0.0136 -0.11106,-0.047 -0.10455,-0.0606 -0.14014,-0.089 -0.0791,-0.0632 z m -0.17133,-0.13945 c 0.0282,0.004 0.0549,0.021 0.0594,0.0376 0.004,0.0166 -0.0186,0.0133 -0.0512,-0.007 -0.0361,-0.0228 -0.0392,-0.0347 -0.008,-0.0302 z m 0.65843,0.30802 c 0.31147,0.0274 10.62518,0.0229 10.75688,-0.005 0.0633,-0.0133 0.19248,-0.064 0.28713,-0.11277 0.0946,-0.0488 0.16347,-0.0737 0.15294,-0.0555 -0.0252,0.0437 -0.31319,0.16922 -0.45855,0.19987 -0.10531,0.0222 -10.29411,0.034 -10.6891,0.0124 -0.0949,-0.005 -0.19091,-0.0202 -0.21331,-0.0334 -0.0224,-0.0132 0.0514,-0.0158 0.16401,-0.006 z m -0.91001,-0.62763 c -0.23978,-0.38675 -5.10955,-8.828615 -5.22704,-9.061205 -0.0981,-0.194137 -0.16672,-0.530681 -0.12351,-0.605513 0.0105,-0.01824 0.0229,0.0561 0.0274,0.165205 0.005,0.113699 0.0533,0.287528 0.11375,0.40725 0.13177,0.260885 5.0097,8.712643 5.25022,9.096813 0.0968,0.15462 0.16171,0.27292 0.14423,0.2629 -0.0175,-0.01 -0.10074,-0.12947 -0.18505,-0.26545 z m -0.73044,-5.419877 c -0.17775,-0.15985 -0.38022,-0.50878 -0.42047,-0.72464 -0.0937,-0.502559 0.0181,-0.863053 0.55831,-1.800454 0.43382,-0.752767 0.62341,-0.993255 0.95014,-1.205197 0.21939,-0.14232 0.58285,-0.237689 0.8394,-0.220252 0.20557,0.01397 0.26297,0.03518 0.56209,0.207631 0.38786,0.223631 0.49568,0.352786 0.62446,0.748152 l 0.0766,0.235044 1.9046,-3.298867 c 1.04753,-1.814377 1.9263,-3.316441 1.95282,-3.337921 0.0722,-0.05845 0.95924,0.453701 0.94471,0.545429 -0.005,0.03371 -0.0722,0.169422 -0.14846,0.301591 l -0.13874,0.240307 0.30778,-0.07531 c 0.5757,-0.140863 0.9641,-0.078 1.42809,0.231157 0.37045,0.246827 0.74588,0.744237 0.66652,0.883072 -0.0334,0.05844 -0.98557,0.484582 -1.02801,0.460083 -0.0156,-0.009 -0.0714,-0.09854 -0.1239,-0.198932 -0.12205,-0.233278 -0.23314,-0.344989 -0.49197,-0.494718 -0.30172,-0.174533 -0.54604,-0.221815 -0.80632,-0.156033 -0.41179,0.10407 -0.18955,-0.238206 -2.95125,4.545197 -1.34694,2.332981 -2.47068,4.259351 -2.4972,4.280831 -0.0409,0.0331 -0.11741,-8.9e-4 -0.50132,-0.22255 -0.50388,-0.29091 -0.49485,-0.27822 -0.36193,-0.50844 0.0395,-0.0683 0.0626,-0.12953 0.0515,-0.13595 -0.0111,-0.006 -0.11725,0.0101 -0.23582,0.0368 -0.11857,0.0266 -0.29635,0.0398 -0.39508,0.0292 -0.20576,-0.0221 -0.58707,-0.20377 -0.76652,-0.36515 z m 0.79507,0.33454 c 0.094,0.0101 0.27402,-0.009 0.40004,-0.043 0.12602,-0.0338 0.24149,-0.0543 0.25661,-0.0455 0.0424,0.0245 0.0161,0.12451 -0.0734,0.27946 l -0.0814,0.14103 0.4412,0.24296 0.4412,0.24296 2.50623,-4.304296 c 2.36177,-4.056197 2.51374,-4.30971 2.63653,-4.398223 0.32982,-0.237751 0.73195,-0.232886 1.15962,0.01403 0.27413,0.158272 0.43477,0.3226 0.52383,0.535853 0.0318,0.07602 0.0696,0.144632 0.084,0.152471 0.044,0.02385 0.93267,-0.383677 0.96725,-0.443571 0.0477,-0.08253 -0.15931,-0.426768 -0.37888,-0.63019 -0.49993,-0.463165 -1.02416,-0.595561 -1.66579,-0.420703 -0.22184,0.06045 -0.33752,0.07483 -0.3315,0.0412 0.005,-0.02841 0.0713,-0.168062 0.14719,-0.310331 l 0.13794,-0.258672 -0.43101,-0.260608 -0.431,-0.260608 -1.90343,3.296823 c -1.04688,1.813252 -1.92511,3.314397 -1.95163,3.335876 -0.0763,0.06184 -0.10666,0.02013 -0.19668,-0.270577 -0.0983,-0.317536 -0.25855,-0.517397 -0.54938,-0.685308 -0.55959,-0.323081 -1.14231,-0.248607 -1.64189,0.209842 -0.18706,0.17165 -0.23549,0.243805 -0.67756,1.009494 -0.35388,0.612938 -0.48813,0.871961 -0.52299,1.009002 -0.1932,0.759686 0.0722,1.369756 0.73585,1.691626 0.12545,0.0608 0.305,0.11889 0.399,0.129 z m -0.008,-0.94606 c -0.12144,-0.14103 -0.19413,-0.34816 -0.18799,-0.535713 0.005,-0.164734 0.0266,-0.210269 0.39939,-0.855896 0.3862,-0.668918 0.39675,-0.683699 0.55376,-0.776017 0.088,-0.05176 0.24036,-0.106538 0.33851,-0.121727 0.16885,-0.02613 0.19335,-0.01901 0.45534,0.132247 0.24732,0.142789 0.28538,0.176888 0.35638,0.31926 0.0499,0.100144 0.0747,0.232316 0.0665,0.355562 -0.0124,0.187065 -0.0304,0.226332 -0.38837,0.846355 -0.42545,0.736909 -0.53316,0.856209 -0.82563,0.914569 -0.25843,0.0516 -0.58586,-0.0673 -0.76789,-0.27864 z m 0.6834,0.25597 c 0.32084,-0.0196 0.39827,-0.10404 0.87316,-0.952226 l 0.4097,-0.731764 -0.0271,-0.178038 c -0.0374,-0.245846 -0.1405,-0.39139 -0.37203,-0.525142 -0.26487,-0.153008 -0.49805,-0.162458 -0.74175,-0.03005 l -0.18557,0.100827 -0.35482,0.590568 c -0.27775,0.462292 -0.36526,0.633102 -0.40289,0.786415 -0.0558,0.2272 -0.001,0.47195 0.14384,0.64761 0.14389,0.17402 0.43928,0.30512 0.65745,0.2918 z m 1.89966,2.30169 c -0.40569,-0.31671 -0.59576,-0.67811 -0.56804,-1.08009 0.0149,-0.21688 0.0316,-0.25986 0.24457,-0.62944 0.21372,-0.37096 0.2411,-0.4051 0.4225,-0.52675 0.23249,-0.15591 0.50595,-0.21416 0.8009,-0.17061 0.19524,0.0288 0.28595,0.0703 0.88939,0.40639 0.36958,0.20585 0.70816,0.38576 0.75239,0.39979 0.0697,0.0221 0.0919,0.006 0.16635,-0.12493 0.34064,-0.59639 -0.17095,-1.20259 -1.06097,-1.257191 l -0.23585,-0.01447 -0.12261,-0.316863 c -0.0674,-0.174275 -0.13235,-0.36256 -0.14425,-0.418412 -0.0215,-0.100704 -0.02,-0.101922 0.16925,-0.146753 0.408,-0.09662 1.02619,0.02979 1.50911,0.308613 0.65346,0.377271 0.99571,0.897256 0.97481,1.481036 -0.0139,0.38814 -0.0828,0.53515 -0.91648,1.95541 l -0.76015,1.294967 -0.39646,-0.228887 -0.39645,-0.2289 0.0588,-0.12462 c 0.0323,-0.0685 0.053,-0.12796 0.046,-0.13203 -0.007,-0.004 -0.10619,-0.003 -0.22027,0.001 -0.36857,0.0156 -0.84384,-0.15981 -1.21255,-0.44765 z m 0.76056,0.35144 c 0.18913,0.0652 0.44361,0.0875 0.54964,0.0483 0.0386,-0.0143 0.097,-0.0105 0.12976,0.008 0.0483,0.0279 0.0457,0.0583 -0.0137,0.16124 l -0.0733,0.12687 0.38213,0.22062 0.38213,0.220627 0.80082,-1.408927 c 0.78594,-1.38274 0.80139,-1.41303 0.83185,-1.63005 0.0636,-0.45292 -0.0511,-0.81905 -0.37282,-1.189925 -0.22287,-0.256967 -0.86865,-0.639452 -1.21671,-0.720633 -0.39351,-0.09178 -0.91004,-0.07493 -0.9716,0.03169 -0.0119,0.02053 0.0343,0.191331 0.10257,0.379561 0.12198,0.336304 0.12628,0.342512 0.24786,0.358099 0.47644,0.06108 0.6599,0.116168 0.88814,0.266658 0.42025,0.27709 0.52995,0.59465 0.34417,0.99635 -0.13874,0.30002 -0.13141,0.30113 -0.88392,-0.13333 -0.71388,-0.41216 -0.92897,-0.49 -1.27742,-0.46232 -0.39561,0.0314 -0.65471,0.21842 -0.90617,0.65396 -0.22924,0.39705 -0.27673,0.64528 -0.18758,0.98049 0.0543,0.2041 0.11209,0.32202 0.21475,0.43808 0.2475,0.2798 0.60857,0.50931 1.02934,0.65428 z m -0.16348,-0.93961 c -0.24152,-0.23428 -0.28372,-0.47232 -0.12904,-0.72782 0.10652,-0.17595 0.26573,-0.26591 0.4459,-0.25193 0.12321,0.01 0.25917,0.0692 0.68771,0.30153 0.36867,0.19991 0.54883,0.3133 0.58158,0.36604 0.0437,0.0704 0.0333,0.10093 -0.13255,0.38817 -0.21293,0.36881 -0.2941,0.41985 -0.58082,0.36524 -0.21749,-0.0414 -0.72525,-0.29812 -0.87278,-0.44123 z m 0.84207,0.39934 c 0.0852,0.0202 0.21454,0.0151 0.28739,-0.0113 0.1229,-0.0445 0.14385,-0.0693 0.29058,-0.34283 l 0.15812,-0.29482 -0.57402,-0.34295 c -0.4682,-0.27971 -0.59669,-0.34399 -0.69695,-0.34864 -0.20477,-0.01 -0.32847,0.0849 -0.46503,0.35468 -0.069,0.13628 -0.003,0.36831 0.14906,0.52441 0.1525,0.15654 0.60923,0.40425 0.85085,0.46146 z m 1.93915,2.029687 c -0.16443,-0.19804 -0.22275,-0.48911 -0.16152,-0.80619 0.0133,-0.0686 0.29289,-0.601787 0.68199,-1.300277 l 0.65951,-1.18391 -0.16528,-0.11657 -0.16529,-0.11657 0.21058,-0.36474 0.21059,-0.36474 0.11595,0.0555 c 0.28045,0.1343 0.25174,0.14994 0.49347,-0.26875 0.30592,-0.529876 0.70303,-1.132233 0.71548,-1.085287 0.006,0.02181 0.1867,0.131855 0.40205,0.244555 0.4083,0.213684 0.5178,0.312405 0.16612,0.149765 -0.11159,-0.05161 -0.21622,-0.09026 -0.23249,-0.0859 -0.0635,0.017 0.033,0.254447 0.14221,0.349989 0.14474,0.126648 0.13729,0.152798 -0.22647,0.794388 -0.1991,0.35116 -0.26746,0.4976 -0.25192,0.53961 0.0117,0.0317 0.11818,0.11928 0.23653,0.1946 l 0.21519,0.13695 -0.21058,0.36474 -0.21058,0.36474 -0.23252,-0.1219 c -0.14761,-0.0774 -0.25493,-0.11359 -0.2939,-0.0992 -0.0439,0.0162 -0.22041,0.30452 -0.61902,1.01084 -0.51878,0.919247 -0.55612,0.995197 -0.53574,1.089707 0.0163,0.0755 0.0598,0.12347 0.1695,0.18682 0.24675,0.14246 0.24592,0.17082 -0.0177,0.60344 l -0.22853,0.37505 -0.38416,-0.21357 c -0.27256,-0.15152 -0.41302,-0.2483 -0.48347,-0.33315 z m 1.06481,0.13195 0.21058,-0.36474 -0.15453,-0.11627 c -0.33528,-0.25228 -0.3387,-0.23829 0.34983,-1.429447 0.31119,-0.53833 0.57056,-0.95731 0.60333,-0.97455 0.0392,-0.0206 0.13415,0.007 0.2978,0.0874 l 0.24031,0.1176 0.19227,-0.33303 0.19228,-0.33302 -0.22201,-0.14932 c -0.15118,-0.10168 -0.22281,-0.17002 -0.22455,-0.21422 -10e-4,-0.0357 0.0835,-0.21502 0.18875,-0.39849 0.10522,-0.18347 0.18928,-0.35431 0.18682,-0.37963 -0.002,-0.0253 -0.0784,-0.11146 -0.16876,-0.19141 -0.17918,-0.15854 -0.28565,-0.366606 -0.29022,-0.567143 -0.002,-0.06994 -0.0184,-0.118828 -0.0373,-0.108651 -0.0189,0.01018 -0.19617,0.275742 -0.39391,0.590144 -0.22566,0.35879 -0.37756,0.5728 -0.40795,0.57476 -0.0266,0.002 -0.11634,-0.0358 -0.19935,-0.0834 l -0.15093,-0.0865 -0.20143,0.34888 -0.20143,0.34889 0.15038,0.0875 c 0.0827,0.0481 0.16096,0.10778 0.1739,0.1326 0.0171,0.0328 -0.15891,0.36837 -0.64234,1.22489 -0.63762,1.12972 -0.66721,1.18899 -0.6974,1.396927 -0.0417,0.28718 0.0272,0.50874 0.22427,0.72161 0.0367,0.0396 0.22512,0.16004 0.41882,0.26769 l 0.35217,0.19573 0.21058,-0.36474 z m 7.84389,-2.892997 c 1.53085,-2.651507 2.15814,-3.72936 1.39399,-2.395232 -0.76415,1.334132 -2.01666,3.503542 -2.78336,4.820909 -0.76669,1.31738 -0.14148,0.22582 1.38937,-2.425677 z M 103.88235,62.7763 c 0.0228,-0.03607 0.0347,-0.03925 0.0302,-0.0081 -0.004,0.02818 -0.021,0.05489 -0.0376,0.05934 -0.0166,0.0045 -0.0133,-0.01861 0.007,-0.05125 z m 2.71727,-4.749824 c 1.48553,-2.573005 2.097,-3.623431 1.35882,-2.33428 -0.73817,1.289152 -1.9536,3.394338 -2.70095,4.678192 -0.74735,1.283854 -0.14339,0.229094 1.34213,-2.343912 z m 9.72319,6.450055 c 0.004,-0.0272 0.62139,-1.103484 1.37118,-2.391743 l 1.36326,-2.342289 0.45989,0.265517 0.45989,0.265518 -1.37337,2.378742 -1.37336,2.378742 -0.45771,-0.252517 c -0.34847,-0.192256 -0.45581,-0.264319 -0.44978,-0.30197 z m 2.26499,-1.833411 1.36422,-2.362883 -0.44404,-0.256362 -0.44403,-0.256362 -1.36421,2.362883 -1.36421,2.362884 0.44403,0.256362 0.44403,0.256361 z m 0.57587,3.358174 c -0.0977,-0.125379 -0.0833,-0.185361 0.11523,-0.47902 0.10346,-0.153039 0.20095,-0.270837 0.21665,-0.261774 0.0157,0.0091 0.0581,0.06257 0.0942,0.118894 l 0.0656,0.102414 -0.18264,0.316351 c -0.19124,0.331237 -0.20312,0.33904 -0.30905,0.203135 z m -0.0521,-0.941335 c 0.12092,-0.209293 0.17312,-0.287837 0.11599,-0.174542 -0.0571,0.113295 -0.15607,0.284535 -0.21987,0.380526 -0.0638,0.096 -0.017,0.0033 0.10387,-0.205992 z m 1.8126,-3.140086 c 0.11084,-0.191848 0.15904,-0.263237 0.10707,-0.158652 -0.052,0.104586 -0.14266,0.261549 -0.20155,0.348809 -0.0589,0.08726 -0.0164,0.0017 0.0945,-0.190155 z m 0.50815,-0.101808 c 0.17267,-0.29908 0.22681,-0.337668 0.41317,-0.294467 0.0831,0.01926 0.0821,0.02252 -0.0975,0.333666 -0.17663,0.305928 -0.1841,0.313953 -0.28345,0.304378 -0.20557,-0.01981 -0.20747,-0.04006 -0.0322,-0.343577 z m -12.09115,-8.500892 c 0.044,-0.07934 0.28176,-0.206866 0.46823,-0.251167 0.17029,-0.04046 10.69539,-0.06433 10.70475,-0.02429 0.002,0.0092 -2.37846,0.01635 -5.29028,0.01581 -3.05559,-5.67e-4 -5.36134,0.01826 -5.45298,0.04452 -0.0873,0.02502 -0.2249,0.09296 -0.30571,0.150967 -0.0808,0.05801 -0.13662,0.08688 -0.12401,0.06416 z m 17.55656,9.804064 c 0.004,-0.103435 -0.0181,-0.246013 -0.0484,-0.316839 -0.0515,-0.120277 -4.94938,-8.620932 -5.28203,-9.167363 -0.14835,-0.243698 -0.17119,-0.33023 -0.0292,-0.110599 0.16852,0.260644 5.27985,9.130171 5.33249,9.253278 0.0546,0.12772 0.0843,0.512458 0.0405,0.524204 -0.011,0.003 -0.017,-0.07925 -0.0133,-0.182681 z m -6.25581,-10.074456 c 0.0486,-0.0061 0.10215,-0.0037 0.11888,0.0052 0.0167,0.0089 -0.009,0.02118 -0.058,0.02725 -0.0487,0.0061 -0.10214,0.0037 -0.11888,-0.0052 -0.0167,-0.0089 0.009,-0.02118 0.058,-0.02725 z m 0.41558,0.101847 c 0.0785,0.03637 0.19259,0.102385 0.25361,0.146702 0.061,0.04432 -0.003,0.01456 -0.14267,-0.06613 -0.13948,-0.08069 -0.18941,-0.116945 -0.11094,-0.08057 z"
         id="path5332" />
      <path
         style="fill:#d6cfbc;fill-opacity:1;stroke-width:0.0366231"
         d="m 109.46501,72.877546 c -0.0359,-0.0385 -0.11847,-0.15169 -0.18348,-0.25149 -0.18626,-0.28592 -5.17087,-8.922866 -5.2895,-9.165242 -0.0644,-0.131582 -0.10887,-0.300182 -0.11271,-0.427383 l -0.006,-0.210074 2.71758,-4.726245 c 2.715,-4.721757 2.71773,-4.726354 2.8717,-4.841215 0.0848,-0.06323 0.23571,-0.134737 0.33544,-0.158898 0.17235,-0.04175 10.41772,-0.05983 10.89134,-0.01922 0.30044,0.02576 0.66529,0.22712 0.80795,0.445907 0.13524,0.207396 5.28608,9.130246 5.34895,9.266043 0.0288,0.06218 0.0521,0.211087 0.0517,0.330892 l -6.3e-4,0.217829 -2.78406,4.822799 -2.78407,4.822807 -0.17209,0.0887 c -0.0947,0.0487 -0.22385,0.0995 -0.28712,0.11277 -0.1317,0.0276 -10.44541,0.0321 -10.75688,0.005 -0.21098,-0.0186 -0.50685,-0.16137 -0.64783,-0.31265 z m 0.61197,0.22807 c 0.0899,0.009 2.51186,0.0164 5.38204,0.0169 3.4774,6.5e-4 5.28811,-0.0164 5.42712,-0.0511 0.39222,-0.0979 0.10549,0.3504 3.16627,-4.951027 l 2.74276,-4.750604 0.0129,-0.176396 c 0.007,-0.09702 -0.0141,-0.249892 -0.047,-0.339718 -0.0616,-0.168044 -5.12453,-8.972113 -5.33182,-9.271668 -0.17885,-0.258457 -0.45066,-0.410126 -0.78306,-0.436933 -0.44708,-0.03606 -10.6532,-0.01623 -10.80991,0.021 -0.10337,0.02456 -0.25181,0.0839 -0.32987,0.131868 l -0.14192,0.08722 -2.65576,4.577418 c -1.89968,3.274252 -2.6727,4.629954 -2.71527,4.761956 -0.0767,0.237824 -0.049,0.489891 0.0825,0.75 0.1149,0.227385 5.10741,8.878694 5.26346,9.120824 0.18478,0.2867 0.47024,0.48417 0.73766,0.51027 z m -1.3894,-5.784127 c 0.0438,0.0152 0.10076,0.0484 0.1265,0.0739 0.0257,0.0254 -0.0101,0.013 -0.0797,-0.0276 -0.0696,-0.0406 -0.0906,-0.0615 -0.0468,-0.0463 z m -0.21959,-0.16847 c 0.0355,0.01 0.078,0.035 0.0945,0.0561 0.0165,0.0211 -0.0126,0.0131 -0.0645,-0.0178 -0.052,-0.0309 -0.0654,-0.0481 -0.0299,-0.0383 z m 0.49044,0.28446 c 0.0269,0.004 0.0626,0.0244 0.0793,0.0458 0.0167,0.0214 -0.005,0.0183 -0.0489,-0.007 -0.0436,-0.0252 -0.0573,-0.0427 -0.0304,-0.0389 z m 2.85529,1.64666 c 0.0436,0.0151 0.10784,0.0522 0.14272,0.0824 0.0349,0.0302 -8e-4,0.0179 -0.0793,-0.0275 -0.0785,-0.0453 -0.10704,-0.07 -0.0634,-0.055 z m 0.50787,0.29314 c 0.0438,0.0152 0.10076,0.0484 0.1265,0.0739 0.0257,0.0254 -0.0101,0.013 -0.0797,-0.0276 -0.0696,-0.0406 -0.0906,-0.0615 -0.0468,-0.0463 z m -2.61715,-1.56739 c -7.8e-4,-0.0259 0.0121,-0.0507 0.0286,-0.0551 0.0165,-0.004 0.0204,0.009 0.009,0.029 -0.0279,0.0483 0.87632,0.57616 0.92802,0.54178 0.0192,-0.0128 0.0207,-0.007 0.003,0.0125 -0.0417,0.0473 -0.96655,-0.45695 -0.96869,-0.5282 z m 1.79313,0.99227 c -0.13465,-0.16653 -0.26264,-0.48028 -0.25458,-0.62405 0.003,-0.0487 0.0191,-0.0104 0.0365,0.0851 0.0396,0.21832 0.13667,0.39993 0.32381,0.60585 0.0806,0.0886 0.11791,0.1447 0.083,0.12459 -0.0349,-0.0201 -0.11981,-0.10627 -0.18869,-0.19145 z m 1.06552,0.67328 c 0.0282,0.004 0.0549,0.021 0.0593,0.0376 0.005,0.0166 -0.0186,0.0133 -0.0512,-0.007 -0.0361,-0.0228 -0.0392,-0.0347 -0.008,-0.0302 z m 0.59264,0.32032 c -0.009,-0.033 0.007,-0.0997 0.0348,-0.14814 l 0.0509,-0.0881 -0.20346,0.008 c -0.11191,0.005 -0.21768,2.6e-4 -0.23504,-0.01 -0.0174,-0.01 0.0802,-0.0203 0.21687,-0.0228 0.13664,-0.003 0.25298,-0.002 0.25854,0.001 0.006,0.003 -0.0164,0.0619 -0.0487,0.13045 l -0.0588,0.12462 0.39645,0.2289 0.39646,0.228887 0.79462,-1.338497 0.79461,-1.3385 -0.76259,1.33796 c -0.57376,1.00666 -0.77745,1.341947 -0.82262,1.354047 -0.0398,0.0107 -0.18408,-0.0555 -0.42794,-0.19633 -0.24387,-0.140787 -0.37334,-0.232647 -0.384,-0.272447 z m 2.28313,1.341207 c 0.31753,0.15231 0.65752,0.34645 0.63128,0.36046 -0.0157,0.008 -0.19397,-0.0836 -0.39614,-0.20439 -0.20218,-0.12079 -0.30799,-0.19102 -0.23514,-0.15607 z m -7.26705,-4.332977 c -0.0582,-0.10067 -0.11786,-0.24437 -0.13264,-0.31934 l -0.0269,-0.13631 0.0457,0.14079 c 0.0252,0.0774 0.0992,0.22925 0.16452,0.33738 0.0653,0.10812 0.10442,0.18847 0.0869,0.17855 -0.0175,-0.01 -0.0795,-0.1004 -0.13765,-0.20107 z m 1.222,0.70738 c 0.10635,-0.005 0.24973,-0.027 0.31861,-0.0486 0.1314,-0.0413 0.19089,-0.0321 0.15824,0.0245 -0.0107,0.0185 -0.0273,0.0188 -0.0371,7.4e-4 -0.01,-0.0181 -0.062,-0.0181 -0.11629,-1e-5 -0.1287,0.0428 -0.44125,0.0764 -0.48368,0.0519 -0.0182,-0.0105 0.0538,-0.0233 0.16019,-0.0284 z m 5.80009,3.427297 c -0.0363,-0.0709 0.0137,-0.042 0.0793,0.0458 0.0315,0.0421 0.0311,0.0551 -8.9e-4,0.0382 -0.0267,-0.0142 -0.062,-0.0519 -0.0784,-0.0839 z m 1.15151,0.15736 c 0.11582,-0.20061 0.16835,-0.2797 0.11674,-0.17576 -0.0516,0.10393 -0.14638,0.26807 -0.21059,0.36474 -0.0642,0.0967 -0.022,0.0116 0.0939,-0.18898 z m -1.29357,-0.3989 c -0.0435,-0.11166 -0.068,-0.42128 -0.0372,-0.47048 0.0119,-0.019 0.0194,0.0213 0.0166,0.0895 -0.003,0.0682 0.0153,0.20708 0.0401,0.30863 0.0482,0.19714 0.0404,0.22604 -0.0195,0.0724 z m -7.04648,-4.426797 c -0.0121,-0.0889 -0.009,-0.163661 0.007,-0.154687 0.008,0.0045 0.0169,0.05731 0.0203,0.117417 0.006,0.11247 -0.0132,0.13941 -0.027,0.0373 z m 3.24774,1.65143 c 0.0154,-0.0974 0.0363,-0.1128 0.0366,-0.0269 1.3e-4,0.0425 -0.0103,0.0801 -0.0232,0.0836 -0.0129,0.003 -0.0189,-0.0221 -0.0134,-0.0567 z m 3.78953,2.185997 c 0.0228,-0.0361 0.0347,-0.0393 0.0302,-0.008 -0.004,0.0282 -0.021,0.0549 -0.0376,0.0593 -0.0166,0.004 -0.0133,-0.0186 0.007,-0.0512 z m -7.03312,-4.185551 c 0.0154,-0.09743 0.0363,-0.112795 0.0366,-0.02691 1.3e-4,0.04252 -0.0103,0.08014 -0.0232,0.08359 -0.0129,0.0035 -0.0189,-0.02205 -0.0134,-0.05668 z m 4.63728,2.669584 c 0.0603,0.0255 0.16032,0.0831 0.22216,0.12793 0.0618,0.0449 0.0125,0.024 -0.10973,-0.0464 -0.12218,-0.0704 -0.17279,-0.10706 -0.11244,-0.0816 z m 2.45784,1.34384 c 0.0309,-0.052 0.0481,-0.0654 0.0383,-0.0299 -0.01,0.0355 -0.035,0.078 -0.0561,0.0945 -0.0211,0.0164 -0.0131,-0.0126 0.0178,-0.0645 z m -3.79801,-2.21392 c 0.0252,-0.0436 0.0427,-0.0573 0.0389,-0.0304 -0.004,0.0269 -0.0244,0.0626 -0.0458,0.0793 -0.0214,0.0167 -0.0183,-0.005 0.007,-0.0489 z m 1.13608,0.71248 c 0.0269,0.004 0.0626,0.0244 0.0793,0.0458 0.0167,0.0214 -0.005,0.0183 -0.0489,-0.007 -0.0436,-0.0252 -0.0573,-0.0427 -0.0304,-0.0389 z m 0.65135,0.37476 c 0.0355,0.01 0.078,0.035 0.0945,0.0561 0.0165,0.0211 -0.0126,0.0131 -0.0645,-0.0178 -0.052,-0.0309 -0.0654,-0.0481 -0.0299,-0.0383 z m -0.81602,-0.6279 c -0.0251,-0.0936 -0.0298,-0.19617 -0.0105,-0.22805 0.0226,-0.0372 0.0299,-0.0121 0.0205,0.0702 -0.008,0.0705 0.016,0.18419 0.0534,0.25266 0.0374,0.0685 0.0487,0.11341 0.0251,0.0999 -0.0236,-0.0135 -0.0634,-0.10114 -0.0885,-0.1947 z m -2.82619,-1.56055 c 0.0524,0.0206 0.12367,0.0619 0.15833,0.092 0.0347,0.03 -0.008,0.0132 -0.0953,-0.0374 -0.0871,-0.0506 -0.11544,-0.0752 -0.063,-0.0546 z m 3.91857,2.28216 c 0.01,-1.6e-4 0.0812,-0.0113 0.15872,-0.0246 l 0.14093,-0.0244 -0.12725,0.0428 c -0.07,0.0236 -0.14141,0.0346 -0.15872,0.0246 -0.0173,-0.01 -0.0235,-0.0183 -0.0137,-0.0185 z m -4.07378,-2.4126 c 0.0282,0.004 0.0549,0.021 0.0594,0.0376 0.004,0.0166 -0.0186,0.0133 -0.0512,-0.007 -0.0361,-0.0229 -0.0393,-0.0347 -0.008,-0.0302 z m 0.57813,0.26435 c 0.11369,0.004 0.2361,-0.0245 0.32507,-0.0766 0.16002,-0.0937 0.17027,-0.068 0.013,0.0327 -0.10695,0.0685 -0.39871,0.10722 -0.47528,0.063 -0.0249,-0.0144 0.0369,-0.023 0.13716,-0.0191 z m 6.63327,3.885757 c -0.0179,-0.035 -0.0146,-0.0497 0.008,-0.0369 0.0209,0.0117 0.0386,0.0407 0.0393,0.0644 0.002,0.0534 -0.009,0.0471 -0.0476,-0.0275 z m -7.37394,-4.468917 c -0.0228,-0.106249 -0.0307,-0.210728 -0.0176,-0.232177 0.0131,-0.02145 0.023,-0.0014 0.0221,0.0446 -9.4e-4,0.04598 0.0153,0.155237 0.036,0.242797 0.0207,0.0876 0.0294,0.15441 0.0193,0.14858 -0.0101,-0.006 -0.037,-0.0976 -0.0598,-0.2038 z m 2.35765,1.17101 c 0.0906,-0.15705 0.13529,-0.22218 0.0995,-0.14473 -0.0358,0.0774 -0.10993,0.20595 -0.16462,0.28556 -0.0547,0.0796 -0.0254,0.0162 0.0652,-0.14082 z m 4.67471,2.973567 c -0.0293,-0.1364 0.01,-0.12481 0.0441,0.013 0.0155,0.0624 0.0165,0.10685 0.002,0.0987 -0.0141,-0.008 -0.035,-0.0584 -0.0465,-0.11169 z m -8.09033,-4.695365 c 0.0228,-0.03607 0.0347,-0.03925 0.0302,-0.0081 -0.004,0.02818 -0.021,0.05489 -0.0376,0.05934 -0.0166,0.0045 -0.0133,-0.01861 0.007,-0.05124 z m 5.75556,2.916108 c 0.0891,-0.17425 0.16681,-0.29894 0.1726,-0.27709 0.006,0.0219 -0.0671,0.16442 -0.16207,0.31682 l -0.1726,0.27709 z m 1.96124,0.13661 0.58308,-1.02717 -0.17105,-0.0987 c -0.12671,-0.0732 -0.16853,-0.11464 -0.16133,-0.16004 0.0126,-0.0797 0.35546,-0.6735 0.41817,-0.72429 0.0363,-0.0294 0.0879,-0.0145 0.20846,0.0601 l 0.16024,0.0992 -0.16944,-0.0727 -0.16944,-0.0727 -0.21058,0.36474 -0.21058,0.36474 0.16259,0.10673 c 0.0906,0.0595 0.15933,0.1274 0.1552,0.15343 -0.004,0.0257 -0.27088,0.49384 -0.59291,1.04035 l -0.5855,0.99367 z m -7.65481,-3.224845 c 0.0309,-0.05196 0.0481,-0.06543 0.0383,-0.02992 -0.01,0.0355 -0.035,0.07801 -0.0561,0.09447 -0.0211,0.01646 -0.0131,-0.01259 0.0178,-0.06455 z m 8.59042,3.727915 c 0.41768,-0.73625 0.55809,-0.96202 0.60302,-0.96959 0.0646,-0.0109 0.54929,0.22684 0.49285,0.24172 -0.0193,0.005 -0.13753,-0.0441 -0.26267,-0.10937 l -0.22753,-0.11863 -0.57506,0.95779 -0.57506,0.957787 z m -7.58123,-3.36023 c 0.0229,-0.03607 0.0347,-0.03925 0.0302,-0.0081 -0.004,0.02819 -0.021,0.05489 -0.0376,0.05935 -0.0166,0.0045 -0.0133,-0.01861 0.007,-0.05125 z m 1.24708,0.70238 c 0.0252,-0.0436 0.0427,-0.0573 0.0389,-0.0304 -0.004,0.0269 -0.0244,0.0626 -0.0458,0.0793 -0.0214,0.0167 -0.0183,-0.005 0.007,-0.0489 z m -1.80455,-1.908774 c 0.22159,-0.383757 0.3143,-0.53375 0.20601,-0.333319 -0.10829,0.200431 -0.28959,0.514413 -0.40289,0.697746 -0.1133,0.183325 -0.0247,0.01934 0.19689,-0.36442 z m 3.83496,3.072824 c 0.016,-0.0302 0.0805,-0.07 0.1435,-0.0884 0.063,-0.0184 0.0845,-0.0209 0.0478,-0.006 -0.0367,0.0153 -0.10127,0.0551 -0.1435,0.0884 -0.0511,0.0403 -0.0671,0.0421 -0.0478,0.006 z m -2.91548,-2.541959 c 0.19139,-0.331421 0.27188,-0.459986 0.17888,-0.285701 -0.093,0.174285 -0.2496,0.445447 -0.34799,0.602578 -0.0984,0.157135 -0.0223,0.01454 0.1691,-0.316882 z m 2.20136,1.872209 c 0.0462,-0.0834 0.24164,-0.2246 0.40622,-0.29333 0.1504,-0.0628 0.48386,-0.1112 0.54058,-0.0785 0.0182,0.0105 -0.0558,0.0229 -0.16462,0.0274 -0.24611,0.0102 -0.46616,0.10003 -0.66252,0.27033 -0.0832,0.0722 -0.13704,0.1055 -0.11966,0.0741 z m 1.07623,0.55065 c 0.0364,-0.003 0.0936,0.0108 0.12723,0.0299 0.0815,0.0462 0.0457,0.0497 -0.086,0.008 -0.0785,-0.0246 -0.0896,-0.0349 -0.0413,-0.0384 z m -0.0269,-0.90555 c 0.0359,-0.002 0.0863,0.01 0.11189,0.0259 0.0307,0.0193 0.0196,0.026 -0.0326,0.0199 -0.10882,-0.0129 -0.1589,-0.0418 -0.0793,-0.0458 z m 0.21281,0.0526 c 0.0269,0.004 0.0626,0.0244 0.0793,0.0458 0.0167,0.0214 -0.005,0.0183 -0.0489,-0.007 -0.0436,-0.0252 -0.0573,-0.0427 -0.0304,-0.0389 z m 0.79305,0.40262 0.65992,0.35854 0.11036,-0.14773 0.11036,-0.14773 -0.0892,0.166 c -0.0671,0.12486 -0.10438,0.16359 -0.15048,0.15628 -0.0337,-0.005 -0.34019,-0.1749 -0.68109,-0.3768 l -0.6198,-0.36709 z m -2.61706,-1.955718 c 0.0264,-0.08679 0.0551,-0.144771 0.0636,-0.128855 0.0176,0.03279 -0.0605,0.272921 -0.0915,0.28123 -0.0111,0.003 10e-4,-0.06559 0.0278,-0.152375 z m -1.24673,-0.648522 c 0.0237,-0.04746 0.21709,-0.179158 0.24198,-0.164785 0.009,0.005 -0.0266,0.03696 -0.0785,0.07095 -0.0519,0.03399 -0.11472,0.0786 -0.13956,0.09915 -0.0303,0.02509 -0.0382,0.02335 -0.0239,-0.0053 z m -0.82205,-0.694527 c 0.0252,-0.04361 0.0427,-0.05729 0.0389,-0.03041 -0.004,0.02688 -0.0244,0.06257 -0.0458,0.07929 -0.0214,0.01673 -0.0183,-0.0053 0.007,-0.04888 z m 6.46481,3.669027 c 0.0175,-0.0364 0.0451,-0.1061 0.0613,-0.15489 l 0.0295,-0.0887 -0.011,0.0974 c -0.006,0.0536 -0.0336,0.12329 -0.0613,0.15489 -0.0491,0.056 -0.0496,0.0558 -0.0185,-0.009 z m -4.37694,-2.618462 c -0.007,-0.04282 -0.0408,-0.128745 -0.0747,-0.190955 -0.0339,-0.06221 -0.0435,-0.102742 -0.0214,-0.09007 0.0399,0.02288 0.16855,0.389846 0.12953,0.369505 -0.0112,-0.0058 -0.0263,-0.04566 -0.0335,-0.08848 z m 3.45105,1.972202 c -0.0117,-0.0565 -0.0632,-0.16197 -0.11444,-0.2343 -0.0513,-0.0723 -0.0745,-0.12111 -0.0516,-0.1084 0.0666,0.037 0.15901,0.20056 0.19083,0.33782 0.0161,0.0697 0.022,0.12242 0.0129,0.11719 -0.009,-0.005 -0.026,-0.0558 -0.0377,-0.11231 z m -5.38736,-3.188998 c 0.19276,-0.239717 0.71821,-0.499773 0.98901,-0.489482 0.0529,0.002 -0.0184,0.02822 -0.15849,0.05826 -0.28902,0.06198 -0.50747,0.175033 -0.74675,0.38646 -0.11091,0.09801 -0.13839,0.11269 -0.0838,0.04476 z m 0.99909,0.646034 c 0.0723,-0.02762 0.23662,-0.03758 0.22271,-0.0135 -0.004,0.0061 -0.0724,0.01819 -0.153,0.02696 -0.0907,0.0099 -0.11732,0.0047 -0.0697,-0.01346 z m 2.84185,1.401286 c -0.0732,-0.205644 -0.12749,-0.383468 -0.12074,-0.395163 0.007,-0.0117 0.0335,0.04918 0.0593,0.135272 0.0259,0.08609 0.0915,0.27042 0.14576,0.409612 0.0543,0.139193 0.0874,0.246575 0.0737,0.238628 -0.0138,-0.0079 -0.0849,-0.182704 -0.15803,-0.388349 z m 0.32821,0.402031 c 0.0723,-0.0044 0.14583,1.19e-4 0.1633,0.01014 0.0175,0.01001 -0.0314,0.01973 -0.10863,0.02158 -0.18205,0.0044 -0.22608,-0.02119 -0.0547,-0.03173 z m 0.31849,0.03434 c 0.0662,0.0062 0.14866,0.02816 0.18333,0.04868 0.0347,0.0205 -0.0129,0.0205 -0.10565,-1.1e-4 -0.20813,-0.0462 -0.23584,-0.06351 -0.0777,-0.04857 z m -3.07968,-1.825673 c 0.0269,0.0038 0.0626,0.02439 0.0793,0.04578 0.0167,0.02139 -0.005,0.01829 -0.0489,-0.0069 -0.0436,-0.02518 -0.0573,-0.04268 -0.0304,-0.03889 z m 0.27076,0.155023 c 0.0355,0.0098 0.078,0.03502 0.0945,0.05611 0.0165,0.02109 -0.0126,0.01309 -0.0645,-0.01777 -0.052,-0.03086 -0.0654,-0.04811 -0.0299,-0.03834 z m 4.73004,2.532297 c 0.0112,-0.27018 -0.0583,-0.52458 -0.21303,-0.78044 -0.0654,-0.108214 -0.10465,-0.188636 -0.0871,-0.178717 0.0736,0.04165 0.24848,0.400577 0.29416,0.603807 0.0455,0.20226 0.0543,0.55768 0.0142,0.56843 -0.01,0.003 -0.0131,-0.0934 -0.008,-0.21308 z m -1.55671,-0.74368 c 0.0603,0.0255 0.16032,0.0831 0.22216,0.12792 0.0618,0.0449 0.0125,0.024 -0.10973,-0.0464 -0.12218,-0.0704 -0.17279,-0.10706 -0.11244,-0.0816 z m 4.00116,1.83313 c 0.10575,-0.18317 0.15425,-0.25507 0.10778,-0.15979 -0.0465,0.0953 -0.13299,0.24514 -0.19227,0.33302 -0.0593,0.0879 -0.0213,0.01 0.0845,-0.17323 z m -5.09651,-2.845841 c 0.0176,-0.03048 0.18016,-0.07091 0.2986,-0.07426 0.0366,-10e-4 0.0225,0.0069 -0.0313,0.01766 -0.0538,0.01075 -0.13983,0.03456 -0.19113,0.05292 -0.0513,0.01836 -0.0856,0.02001 -0.0761,0.0037 z m -1.3716,-0.999195 c -0.0159,-0.07007 -0.0723,-0.216769 -0.12518,-0.326005 -0.0529,-0.109236 -0.0847,-0.191966 -0.0706,-0.183844 0.0384,0.02215 0.18208,0.336387 0.20655,0.451645 0.0118,0.05548 0.0382,0.100366 0.0587,0.09975 0.0205,-6.15e-4 0.0244,0.02113 0.009,0.04833 -0.0381,0.066 -0.0444,0.05879 -0.0782,-0.08988 z m 1.79947,0.917315 c 0.0124,-0.02148 0.34402,-9.04e-4 0.35008,0.02173 0.003,0.01049 -0.0767,0.01322 -0.17676,0.0061 -0.10002,-0.0071 -0.17802,-0.01966 -0.17332,-0.0278 z m 0.44973,0.02675 c 0.0359,-0.0018 0.0863,0.0099 0.11189,0.02593 0.0307,0.01926 0.0196,0.02602 -0.0326,0.01985 -0.10882,-0.01287 -0.1589,-0.04179 -0.0793,-0.04578 z m -3.40708,-2.009365 c 0.0359,-0.0018 0.0796,0.005 0.097,0.01503 0.0174,0.01007 0.002,0.01979 -0.0336,0.02159 -0.0359,0.0018 -0.0796,-0.005 -0.097,-0.01503 -0.0174,-0.01007 -0.002,-0.01979 0.0336,-0.02159 z m 7.5928,4.394436 c -0.11781,-0.0763 -0.22381,-0.16461 -0.23554,-0.19632 -0.0155,-0.042 0.0528,-0.18845 0.25192,-0.53961 0.36148,-0.63757 0.37006,-0.66701 0.23063,-0.791396 -0.10263,-0.09156 -0.19534,-0.28652 -0.16294,-0.342643 0.008,-0.01334 0.0867,0.0063 0.17564,0.0437 0.0889,0.03737 0.2042,0.08428 0.2562,0.10425 l 0.0945,0.03631 -0.4167,0.741409 -0.41671,0.74142 0.2165,0.13772 c 0.11908,0.0757 0.22225,0.1591 0.22926,0.18523 0.007,0.0261 0.008,0.041 0.002,0.033 -0.006,-0.008 -0.10707,-0.0768 -0.22489,-0.15311 z m -6.76571,-3.959208 c -0.0314,-0.04212 -0.0311,-0.05512 8.8e-4,-0.03816 0.0267,0.01415 0.062,0.05192 0.0784,0.08394 0.0363,0.07094 -0.0137,0.04203 -0.0793,-0.04578 z m 2.79516,1.62719 c 0.0282,0.0041 0.0549,0.02098 0.0593,0.0376 0.004,0.01662 -0.0186,0.01331 -0.0512,-0.0074 -0.0361,-0.02285 -0.0392,-0.03471 -0.008,-0.03023 z m 1.07837,0.622594 c 0.0282,0.0041 0.0549,0.02098 0.0593,0.0376 0.005,0.01662 -0.0186,0.0133 -0.0512,-0.0074 -0.0361,-0.02285 -0.0392,-0.03471 -0.008,-0.03023 z m -4.51716,-2.65027 c 0.0282,0.0041 0.0549,0.02098 0.0594,0.0376 0.004,0.01662 -0.0186,0.01331 -0.0513,-0.0074 -0.0361,-0.02286 -0.0392,-0.03471 -0.008,-0.03023 z m 3.59863,2.077249 c 0.0355,0.0098 0.078,0.03502 0.0945,0.05611 0.0165,0.02109 -0.0126,0.01309 -0.0645,-0.01777 -0.052,-0.03086 -0.0654,-0.04811 -0.0299,-0.03834 z m 0.7612,0.439477 c 0.0355,0.0098 0.078,0.03502 0.0945,0.05611 0.0165,0.02108 -0.0126,0.01309 -0.0645,-0.01777 -0.052,-0.03086 -0.0654,-0.04811 -0.0299,-0.03834 z m 2.0449,0.787048 c 0.10575,-0.18316 0.15426,-0.25506 0.10779,-0.15978 -0.0465,0.0953 -0.13299,0.24514 -0.19227,0.33302 -0.0593,0.0879 -0.0213,0.01 0.0845,-0.17324 z m -6.16462,-3.209569 c 0.0785,0.03637 0.19259,0.102386 0.2536,0.146715 0.061,0.04432 -0.003,0.01456 -0.14267,-0.06613 -0.13948,-0.0807 -0.18941,-0.116945 -0.11094,-0.08058 z m 3.67912,2.124142 c 0.0785,0.03637 0.19259,0.102385 0.2536,0.146714 0.061,0.04432 -0.003,0.01456 -0.14267,-0.06613 -0.13948,-0.0807 -0.18941,-0.116945 -0.11094,-0.08058 z m 3.05655,0.167603 c 0.0807,-0.139479 0.11694,-0.189411 0.0806,-0.110945 -0.0364,0.07847 -0.10239,0.192592 -0.14671,0.253605 -0.0443,0.06102 -0.0146,-0.0032 0.0661,-0.142667 z m -1.33431,-1.112132 c 0.005,-0.03371 0.61717,-1.113423 1.35961,-2.399372 1.0255,-1.776224 1.36432,-2.341953 1.40993,-2.354174 0.0835,-0.02238 0.91643,0.458514 0.93881,0.542023 0.0122,0.04561 -0.30831,0.621897 -1.33381,2.398121 -0.74244,1.285948 -1.37159,2.355662 -1.39811,2.377142 -0.041,0.03318 -0.11881,-0.0017 -0.51718,-0.231701 -0.39838,-0.230001 -0.4675,-0.27998 -0.45925,-0.332039 z m 2.31997,-1.82876 1.37337,-2.378742 -0.45989,-0.265518 -0.45989,-0.265517 -1.36326,2.342289 c -0.74979,1.288259 -1.36682,2.364543 -1.37118,2.391743 -0.006,0.03765 0.10131,0.109714 0.44978,0.30197 l 0.45771,0.252517 z m 0.40266,3.129767 c -0.0391,-0.115893 -0.0868,-0.21975 -0.10587,-0.230794 -0.0237,-0.01369 0.049,-0.163365 0.22866,-0.470594 0.1449,-0.247784 0.25891,-0.424589 0.25337,-0.3929 -0.017,0.09717 0.0327,0.278568 0.12566,0.459108 0.0651,0.126317 0.0714,0.162125 0.0238,0.134624 -0.0592,-0.03416 -0.0815,-0.01283 -0.25345,0.241455 -0.15949,0.235917 -0.18562,0.292592 -0.16948,0.367586 0.0372,0.172885 -0.0326,0.09911 -0.10264,-0.108485 z m -3.42323,-5.913292 c 0.0356,-0.05889 0.0936,-0.128481 0.1289,-0.154641 0.0413,-0.0306 0.0249,0.0052 -0.0458,0.100439 -0.13066,0.175992 -0.17387,0.204164 -0.0831,0.0542 z m 0.21727,-0.234713 c 0.0239,-0.04163 0.35371,-0.193303 0.38329,-0.176228 0.0113,0.0065 -0.0159,0.02412 -0.0605,0.03907 -0.0446,0.01496 -0.13997,0.0598 -0.21194,0.09965 -0.072,0.03985 -0.12185,0.05673 -0.11084,0.0375 z m 5.14922,2.289933 c 0.16433,-0.286159 0.25285,-0.414338 0.27664,-0.400602 0.0192,0.01111 0.14417,-0.0029 0.27762,-0.03119 0.23235,-0.04921 0.35037,-0.0294 0.17035,0.02859 -0.12022,0.03873 -0.42898,0.563318 -0.35626,0.605301 0.0786,0.04541 0.023,0.08421 -0.0979,0.06829 -0.11808,-0.01555 -0.31759,0.033 -0.4405,0.107186 -0.0552,0.03333 -0.0163,-0.05314 0.17004,-0.377574 z m -3.50994,-1.723572 -0.048,-0.136689 0.0619,0.123816 c 0.0341,0.0681 0.0762,0.132063 0.0937,0.142145 0.0175,0.01008 0.1635,-0.03882 0.32452,-0.108663 0.16102,-0.06985 0.3003,-0.122642 0.30951,-0.117326 0.009,0.0053 -0.007,0.01966 -0.0363,0.03188 -0.0292,0.01222 -0.17208,0.07245 -0.31752,0.133848 -0.14544,0.0614 -0.28139,0.101747 -0.30213,0.08966 -0.0207,-0.0121 -0.0593,-0.08349 -0.0857,-0.158667 z m -1.11898,-0.745551 c 0.0619,-0.01215 0.12766,-0.01338 0.14608,-0.0028 0.039,0.02252 0.0362,0.02302 -0.13135,0.02405 l -0.12731,7.82e-4 z m 0.91433,0.440802 c -0.0314,-0.04212 -0.0311,-0.05512 8.9e-4,-0.03816 0.0267,0.01415 0.062,0.05192 0.0784,0.08394 0.0363,0.07094 -0.0137,0.04203 -0.0793,-0.04578 z m -0.67534,-0.418798 c 0.0282,0.0041 0.0549,0.02098 0.0593,0.0376 0.005,0.01662 -0.0186,0.01331 -0.0512,-0.0074 -0.0361,-0.02286 -0.0393,-0.03471 -0.008,-0.03023 z m 0.15917,0.04934 c 0.0351,0.0096 0.0851,0.03849 0.111,0.06409 0.0259,0.0256 -0.003,0.01771 -0.0639,-0.01754 -0.061,-0.03525 -0.0823,-0.0562 -0.0471,-0.04655 z m 0.31716,0.183116 c 0.0351,0.0096 0.0851,0.03849 0.11101,0.06409 0.0259,0.0256 -0.003,0.01771 -0.0639,-0.01754 -0.0611,-0.03525 -0.0823,-0.0562 -0.0471,-0.04655 z m 1.34185,0.288071 c 0.20839,-0.09134 0.23705,-0.13176 0.19045,-0.268611 l -0.0353,-0.103671 0.0566,0.103461 c 0.0311,0.0569 0.0426,0.127554 0.0256,0.156999 -0.0293,0.05078 -0.36264,0.21698 -0.39626,0.197573 -0.009,-0.005 0.0628,-0.04362 0.15889,-0.08575 z m -2.1666,-1.221755 c 0.0184,-0.03184 0.0374,-0.04296 0.0423,-0.02471 0.005,0.01825 0.13253,0.0032 0.28365,-0.03351 0.15112,-0.03668 0.32031,-0.06317 0.37598,-0.05888 l 0.10121,0.0078 -0.11153,0.01007 c -0.0613,0.0055 -0.24957,0.04315 -0.41829,0.08359 -0.22343,0.05355 -0.29767,0.0578 -0.27333,0.01564 z m 2.27489,0.80316 c -0.004,-0.01579 -0.0713,-0.111145 -0.14901,-0.211896 -0.0777,-0.10075 -0.1198,-0.171021 -0.0935,-0.156158 0.0558,0.0315 0.2961,0.36609 0.28134,0.391658 -0.0129,0.02243 -0.0291,0.01258 -0.0388,-0.02361 z m -1.41309,-0.92369 c 0.034,-0.0093 0.0652,-0.0042 0.0694,0.01118 0.004,0.0154 -0.0237,0.02297 -0.0619,0.01683 -0.0551,-0.0089 -0.0567,-0.01463 -0.007,-0.028 z m -1.54426,-0.938132 c 0.0456,-0.0516 0.97921,0.487428 0.95731,0.552704 -0.008,0.02484 -0.014,0.02635 -0.0125,0.0034 0.004,-0.05647 -0.89433,-0.57488 -0.94145,-0.543548 -0.0192,0.01276 -0.0207,0.0071 -0.003,-0.01251 z m 1.71393,0.956767 c 0.0359,-0.0018 0.0863,0.0099 0.1119,0.02593 0.0307,0.01926 0.0196,0.02602 -0.0326,0.01985 -0.10883,-0.01287 -0.1589,-0.04179 -0.0793,-0.04578 z m 0.21281,0.05257 c 0.0269,0.0038 0.0626,0.02439 0.0793,0.04578 0.0167,0.02139 -0.005,0.01829 -0.0489,-0.0069 -0.0436,-0.02518 -0.0573,-0.04268 -0.0304,-0.03889 z m 0.61964,0.356451 c 0.0355,0.0098 0.078,0.03502 0.0945,0.05611 0.0165,0.02109 -0.0126,0.01309 -0.0645,-0.01777 -0.052,-0.03086 -0.0654,-0.04811 -0.0299,-0.03834 z M 117.697,58.820822 c 0.0608,0.0257 0.15353,0.07926 0.20616,0.119025 0.0526,0.03977 0.003,0.01874 -0.11047,-0.04672 -0.11338,-0.06546 -0.15645,-0.098 -0.0957,-0.07231 z"
         id="path5334" />
      <path
         style="fill:#00647f;fill-opacity:1;stroke:#800000;stroke-width:0.0366231"
         d="m 109.76812,73.127826 c -0.0449,-0.043 -0.12513,-0.14556 -0.17819,-0.22789 -0.15605,-0.24213 -5.14856,-8.89344 -5.26346,-9.120825 -0.13144,-0.260109 -0.15915,-0.512176 -0.0825,-0.75 0.0426,-0.132001 0.81558,-1.487704 2.71526,-4.761956 l 2.65577,-4.577418 0.14192,-0.08722 c 0.0781,-0.04797 0.22649,-0.10731 0.32986,-0.131868 0.15671,-0.03723 10.36283,-0.05706 10.80991,-0.021 0.3324,0.02681 0.60422,0.178476 0.78306,0.436933 0.20729,0.299555 5.27021,9.103624 5.33183,9.271668 0.0329,0.08983 0.0541,0.242699 0.047,0.339718 l -0.0129,0.176396 -2.74277,4.750605 c -3.06078,5.301427 -2.77405,4.853077 -3.16627,4.951027 -0.139,0.0347 -1.94972,0.0518 -5.42711,0.0511 -2.87018,-5.3e-4 -5.2921,-0.008 -5.38205,-0.0169 -0.16734,-0.0163 -0.40883,-0.13822 -0.55947,-0.28238 z m -0.35218,-5.266527 c 0.0984,0.0217 0.2824,0.0244 0.40891,0.006 l 0.23001,-0.0337 -0.0809,0.14007 c -0.0568,0.0985 -0.0693,0.15439 -0.0418,0.18829 0.0573,0.0707 0.89741,0.54821 0.95991,0.54556 0.0416,-0.002 0.60009,-0.94502 2.5514,-4.309287 2.49007,-4.293155 2.4986,-4.307365 2.6468,-4.411486 0.19101,-0.134191 0.50085,-0.199616 0.70331,-0.148507 0.37404,0.09442 0.78336,0.425774 0.86269,0.698366 0.0212,0.07286 0.0678,0.140579 0.10661,0.155055 0.0985,0.0367 1.09435,-0.398046 1.13318,-0.494671 0.0419,-0.104183 -0.1227,-0.419105 -0.3453,-0.660773 -0.24852,-0.269809 -0.69421,-0.527606 -1.00779,-0.582936 -0.24474,-0.04318 -0.54459,-0.02819 -0.79889,0.03995 -0.0941,0.02521 -0.17869,0.04145 -0.18799,0.03607 -0.009,-0.0054 0.044,-0.115282 0.11846,-0.244247 0.10655,-0.184557 0.12706,-0.244747 0.0963,-0.282697 -0.0509,-0.0628 -0.8665,-0.533701 -0.94631,-0.546352 -0.0553,-0.0088 -0.24584,0.309947 -1.96373,3.285415 -1.04634,1.812321 -1.9145,3.288166 -1.92924,3.279655 -0.0147,-0.0085 -0.0364,-0.06157 -0.0482,-0.117903 -0.0559,-0.267445 -0.32151,-0.603027 -0.60825,-0.768578 -0.48394,-0.279399 -1.05469,-0.265526 -1.51539,0.03684 -0.3377,0.221633 -0.46051,0.380881 -0.95772,1.241792 -0.51489,0.891519 -0.56139,1.011635 -0.57871,1.494964 -0.0246,0.68674 0.47403,1.29431 1.19262,1.45317 z m 0.12034,-1.14384 c -0.0905,-0.12829 -0.12653,-0.29506 -0.10314,-0.47707 0.0148,-0.114804 0.094,-0.275852 0.37252,-0.756989 0.39018,-0.674023 0.47249,-0.764066 0.75774,-0.828874 0.27725,-0.06299 0.64461,0.11999 0.77684,0.386937 0.11846,0.239141 0.0806,0.386389 -0.25621,0.997618 -0.44846,0.813748 -0.57559,0.951308 -0.91506,0.990188 -0.15921,0.0182 -0.52816,-0.1636 -0.63269,-0.31181 z m 3.31148,3.13007 c 0.1196,0.0329 0.29863,0.0594 0.39785,0.0588 0.17204,-0.001 0.17872,0.002 0.14431,0.0613 -0.0782,0.135467 -0.0172,0.206337 0.3706,0.430207 0.20051,0.11577 0.4007,0.21165 0.44486,0.21307 0.0774,0.002 0.10741,-0.0444 0.83446,-1.304917 0.57708,-1.00051 0.77221,-1.36294 0.83101,-1.54357 0.19467,-0.59799 0.0698,-1.10852 -0.39145,-1.60013 -0.19132,-0.203933 -0.78847,-0.559644 -1.08425,-0.645882 -0.47196,-0.137599 -1.11765,-0.115082 -1.20842,0.04214 -0.0479,0.08297 0.20684,0.821452 0.3024,0.876622 0.034,0.0196 0.10651,0.0332 0.16105,0.0301 0.20825,-0.0118 0.54316,0.0804 0.76876,0.21161 0.41299,0.24014 0.52627,0.52585 0.35148,0.88642 l -0.0932,0.19214 -0.58475,-0.3376 c -0.83545,-0.48235 -1.125,-0.56986 -1.56114,-0.47182 -0.39109,0.0879 -0.65293,0.32105 -0.88525,0.78821 -0.17042,0.34268 -0.21637,0.59133 -0.16078,0.86996 0.0526,0.26355 0.17261,0.4762 0.38049,0.67412 0.22061,0.21005 0.71174,0.49474 0.98192,0.56918 z m -0.15411,-1.1833 c -0.13014,-0.15312 -0.14925,-0.22087 -0.10958,-0.38843 0.0493,-0.20801 0.21284,-0.35498 0.39034,-0.35071 0.10952,0.003 0.23484,0.0589 0.68721,0.30845 l 0.55326,0.30522 -0.17414,0.30162 c -0.16469,0.28524 -0.18051,0.30254 -0.29132,0.31849 -0.23345,0.0336 -0.85386,-0.25707 -1.05577,-0.49464 z m 3.90623,2.738597 0.26552,-0.45989 -0.19165,-0.13196 c -0.14285,-0.0984 -0.19405,-0.1542 -0.2011,-0.21933 -0.008,-0.0709 0.0968,-0.27142 0.55393,-1.063207 l 0.56339,-0.97581 0.25115,0.13265 0.25116,0.13265 0.2472,-0.42817 0.24721,-0.42818 -0.22872,-0.15319 -0.22872,-0.1532 0.49055,-0.86914 c 0.26981,-0.47804 0.49921,-0.864153 0.50981,-0.858036 0.0106,0.0061 0.0483,0.09341 0.0838,0.193994 0.12419,0.351912 0.34745,0.602402 0.739,0.829142 0.58116,0.33653 1.1886,0.37827 1.72309,0.11839 0.55521,-0.26995 0.95349,-0.75045 1.58212,-1.908734 0.43085,-0.793863 0.53172,-1.070334 0.56395,-1.545746 0.0289,-0.426741 -0.0582,-0.767455 -0.27759,-1.085369 -0.41274,-0.59811 -1.13476,-0.918175 -1.77928,-0.788739 -0.11916,0.02393 -0.22518,0.0386 -0.23558,0.03259 -0.0104,-0.006 0.27757,-0.52446 0.63994,-1.152115 l 0.65887,-1.141192 -0.0612,-0.05888 c -0.0336,-0.03239 -0.24907,-0.16189 -0.47875,-0.287785 l -0.4176,-0.2289 -2.37805,4.08228 -2.37805,4.08228 -0.16352,-0.0811 c -0.0899,-0.0446 -0.19046,-0.0765 -0.22336,-0.0709 -0.0842,0.0144 -0.49895,0.73265 -0.46928,0.81281 0.0116,0.0313 0.0895,0.1024 0.1731,0.15797 l 0.15203,0.10105 -0.67083,1.19853 c -0.72878,1.302067 -0.72945,1.303707 -0.68289,1.665417 0.0201,0.15619 0.14535,0.38252 0.28792,0.52025 0.0448,0.0433 0.24691,0.17112 0.44916,0.2841 l 0.36772,0.20542 z m 3.26898,-5.881775 c -0.0535,-0.06842 -0.12102,-0.174513 -0.14997,-0.235754 -0.10779,-0.227977 -0.1,-0.246932 0.61171,-1.479574 0.75069,-1.300235 0.71958,-1.265179 1.11651,-1.258167 0.20277,0.0036 0.24676,0.01887 0.53799,0.187016 0.34944,0.201746 0.42997,0.293238 0.51939,0.590051 0.11642,0.386451 0.0286,0.643903 -0.54436,1.595318 -0.26385,0.438155 -0.47597,0.758878 -0.54056,0.817292 -0.17333,0.156773 -0.44588,0.250668 -0.68926,0.237452 -0.19271,-0.01046 -0.25844,-0.0332 -0.49323,-0.170649 -0.17242,-0.100935 -0.30627,-0.203799 -0.36822,-0.282985 z m -9.21702,-4.024056 c 0.22141,0.04309 0.41866,0.03423 0.70086,-0.03149 l 0.15879,-0.03698 -0.10064,0.17432 c -0.0553,0.09587 -0.0934,0.201335 -0.0846,0.234353 0.011,0.04121 0.16127,0.14386 0.47914,0.327383 0.31787,0.183522 0.48189,0.262305 0.5231,0.251262 0.0871,-0.02334 3.91638,-6.655828 3.89304,-6.742939 -0.011,-0.04107 -0.15866,-0.142349 -0.46737,-0.320582 -0.36797,-0.212445 -0.46579,-0.256658 -0.5299,-0.239482 -0.0685,0.01836 -0.16233,0.166071 -0.73096,1.150959 l -0.65234,1.129894 -0.0464,-0.157757 c -0.25692,-0.87432 -1.21986,-1.462369 -2.11546,-1.291873 -0.65557,0.124801 -1.16645,0.62344 -1.84773,1.803461 -0.68129,1.18002 -0.85768,1.871775 -0.63798,2.501913 0.2111,0.605453 0.81542,1.12242 1.45837,1.247562 z m 0.0992,-1.168479 c -0.18349,-0.153474 -0.25029,-0.246363 -0.31543,-0.438649 -0.12346,-0.364398 -0.0408,-0.628945 0.47612,-1.524332 0.49559,-0.858391 0.67329,-1.048945 1.072,-1.149557 0.45573,-0.115 1.11626,0.274613 1.23841,0.730474 0.0881,0.328651 0.0487,0.434695 -0.5377,1.450457 -0.55696,0.964677 -0.62364,1.050532 -0.90821,1.169369 -0.27106,0.113198 -0.73392,0.0059 -1.02519,-0.237762 z m 6.74729,5.072108 c 0.0456,-0.01222 0.38853,-0.585071 1.42843,-2.386219 1.21958,-2.112377 1.3661,-2.378683 1.34733,-2.448748 -0.031,-0.115571 -0.86311,-0.59601 -0.97868,-0.565043 -0.0701,0.01877 -0.22744,0.278821 -1.44702,2.391198 -1.03989,1.801148 -1.36453,2.384545 -1.35231,2.430167 0.011,0.04121 0.16128,0.14386 0.47915,0.327382 0.31787,0.183523 0.48189,0.262305 0.5231,0.251263 z"
         id="path5336"
         sodipodi:nodetypes="ssssscsssssscssccsscccsscsssssssssssscsssssssccsssssscscccscssssscccscsssssccsscscsssccccscccccccssssssssssscsscccscsscssssccssssssssssssscsssssssscsssssscsssssscssssssss" />
      <path
         style="fill:#00647f;fill-opacity:1;stroke:#800000;stroke-width:0.117425"
         d="m 110.3395,73.049616 c -0.26375,-0.0263 -0.52541,-0.15891 -0.66922,-0.33903 -0.22967,-0.28766 -5.40082,-9.267372 -5.46046,-9.4821 -0.046,-0.165489 -0.0443,-0.342971 0.005,-0.48319 0.074,-0.212349 1.06162,-1.935146 4.81275,-8.395541 l 0.55904,-0.962819 0.19881,-0.104171 0.19881,-0.104172 h 5.52125 5.52124 l 0.17152,0.09052 c 0.31774,0.167696 0.27951,0.107953 2.20753,3.44918 1.23845,2.146197 3.17061,5.524288 3.37945,5.908439 0.14469,0.266163 0.16456,0.327208 0.16535,0.50809 l 8e-4,0.205582 -2.27224,3.929235 c -3.50335,6.058127 -3.26928,5.681057 -3.56783,5.747627 -0.17157,0.0382 -10.4049,0.069 -10.77152,0.0323 z m 6.2284,-1.9439 0.28053,-0.48269 -0.0939,-0.0677 c -0.0517,-0.0373 -0.14517,-0.11347 -0.20782,-0.16936 l -0.1139,-0.10162 0.0536,-0.12802 c 0.053,-0.126727 0.98518,-1.776827 1.03415,-1.830677 0.014,-0.0154 0.13558,0.0275 0.27023,0.0953 0.13464,0.0678 0.24932,0.11849 0.25485,0.11264 0.0123,-0.013 0.43929,-0.74373 0.49016,-0.83879 0.0324,-0.0606 0.0124,-0.0838 -0.18387,-0.21269 -0.12114,-0.0796 -0.22058,-0.15455 -0.22096,-0.16659 -5.3e-4,-0.0204 0.7004,-1.263476 0.85311,-1.512736 l 0.0686,-0.11196 0.13137,0.26997 c 0.15816,0.325036 0.38763,0.546196 0.77681,0.748666 0.90364,0.47013 1.80511,0.24775 2.48594,-0.613246 0.44646,-0.564627 1.15047,-1.862621 1.27257,-2.346268 0.0799,-0.316609 0.0892,-0.799616 0.0204,-1.058178 -0.0749,-0.281289 -0.22245,-0.520472 -0.47968,-0.777552 -0.40127,-0.401037 -0.86997,-0.581274 -1.41228,-0.543084 -0.16302,0.01148 -0.29639,0.01162 -0.29639,2.65e-4 0,-0.01132 0.28422,-0.516864 0.63161,-1.123434 l 0.6316,-1.102857 -0.0882,-0.07021 c -0.13388,-0.106553 -0.90711,-0.529571 -0.9357,-0.511902 -0.0138,0.0085 -1.0901,1.843937 -2.39179,4.078695 l -2.36672,4.063201 -0.12707,-0.0648 c -0.18806,-0.0959 -0.27664,-0.0838 -0.38042,0.0523 -0.15148,0.1986 -0.36459,0.62227 -0.35306,0.7019 0.006,0.0416 0.0746,0.12401 0.1523,0.18319 l 0.14137,0.10762 -0.50953,0.91007 c -0.85717,1.530997 -0.91815,1.691007 -0.7907,2.074717 0.0848,0.25538 0.28465,0.45159 0.71265,0.69975 0.20493,0.11883 0.38094,0.21667 0.39114,0.21742 0.0102,7.9e-4 0.14478,-0.21584 0.29907,-0.48132 z m -2.28762,-0.88069 c 0.22709,-0.302137 1.44795,-2.466197 1.55264,-2.752157 0.10066,-0.27494 0.10753,-0.77103 0.0141,-1.01618 -0.0838,-0.21986 -0.2484,-0.474536 -0.41352,-0.639886 -0.28608,-0.286487 -0.91492,-0.627637 -1.28104,-0.694987 -0.31995,-0.0589 -0.79395,-0.0475 -0.93375,0.0224 -0.11059,0.0553 -0.11823,0.0695 -0.11378,0.21165 0.004,0.13367 0.16254,0.611647 0.24541,0.740717 0.0169,0.0263 0.15245,0.0649 0.3132,0.0893 0.65934,0.0998 1.08042,0.3992 1.07901,0.76711 -2.4e-4,0.0624 -0.0345,0.18441 -0.0762,0.27116 l -0.0758,0.15772 -0.52503,-0.302 c -0.28876,-0.16611 -0.64695,-0.34925 -0.79597,-0.40698 -0.24699,-0.0957 -0.29806,-0.10378 -0.57773,-0.0915 -0.38297,0.0167 -0.61656,0.11964 -0.84275,0.37121 -0.18737,0.20841 -0.40593,0.63504 -0.46101,0.89991 -0.0513,0.24684 -2.3e-4,0.56202 0.12991,0.8011 0.24578,0.45157 1.12376,0.97024 1.64239,0.97024 0.1144,0 0.12803,0.008 0.10956,0.0665 -0.0116,0.0365 -0.005,0.096 0.014,0.13204 0.0587,0.10975 0.743,0.511433 0.87303,0.512493 0.0223,1.7e-4 0.0778,-0.0492 0.12335,-0.10976 z m -2.90618,-2.638927 c 0.22933,-0.38485 0.96915,-1.649996 1.64404,-2.81144 2.68018,-4.612416 2.83475,-4.873483 2.96961,-5.015693 0.11876,-0.125233 0.3588,-0.2114 0.58433,-0.209752 0.35415,0.0026 0.81725,0.321295 0.98877,0.680474 0.0722,0.151167 0.0874,0.163547 0.19677,0.160626 0.13546,-0.0036 0.80072,-0.274968 0.99083,-0.404151 0.15707,-0.106733 0.15935,-0.165605 0.0169,-0.43476 -0.16651,-0.314582 -0.47508,-0.599438 -0.85202,-0.786562 -0.28097,-0.139483 -0.3472,-0.158557 -0.60673,-0.174749 -0.16967,-0.01058 -0.37816,-0.0011 -0.49927,0.02273 -0.11438,0.02249 -0.21594,0.03292 -0.22571,0.02315 -0.01,-0.0098 0.0222,-0.08594 0.071,-0.169281 0.14754,-0.251753 0.13017,-0.29632 -0.19065,-0.489312 -0.52369,-0.315029 -0.69498,-0.393245 -0.75397,-0.344287 -0.0818,0.06792 -0.32003,0.466556 -1.65951,2.777313 -1.03728,1.789443 -1.60908,2.768415 -2.09216,3.581987 -0.0675,0.113721 -0.12645,0.118558 -0.12645,0.01037 0,-0.03404 -0.0635,-0.156969 -0.1411,-0.27318 -0.40157,-0.60135 -1.19215,-0.81453 -1.83762,-0.495519 -0.46022,0.227454 -0.6331,0.437602 -1.23905,1.506206 -0.42695,0.752927 -0.48501,0.927764 -0.46814,1.40962 0.0118,0.337 0.0239,0.3968 0.12066,0.59673 0.13885,0.28688 0.43404,0.5721 0.74407,0.71895 0.21002,0.0995 0.25852,0.1089 0.5605,0.1089 0.28089,0 0.32734,0.008 0.30897,0.0508 -0.0483,0.11357 -0.0524,0.20645 -0.0113,0.25604 0.047,0.0567 0.39112,0.2641 0.74273,0.44775 l 0.21937,0.11457 0.064,-0.0789 c 0.0352,-0.0434 0.25168,-0.3938 0.48102,-0.77864 z m 6.14756,-2.56053 c 0.0936,-0.11812 0.65511,-1.064891 1.4852,-2.504192 0.97011,-1.682073 1.22347,-2.148155 1.22347,-2.250681 0,-0.07631 -0.0394,-0.118208 -0.22864,-0.24326 -0.30398,-0.200856 -0.63066,-0.36222 -0.73331,-0.36222 -0.0503,0 -0.11231,0.03682 -0.15688,0.09315 -0.0973,0.122994 -0.56491,0.914485 -1.50521,2.547734 -0.91165,1.583491 -1.20357,2.113512 -1.20357,2.185246 0,0.02912 0.0689,0.102163 0.15301,0.162323 0.18022,0.12883 0.79467,0.463737 0.85224,0.464507 0.0219,2.7e-4 0.0731,-0.0414 0.11369,-0.0926 z m -4.80127,-3.590505 c 1.03979,-1.728449 3.2963,-5.665893 3.42882,-5.983073 0.0441,-0.105482 0.0422,-0.118142 -0.0274,-0.1816 -0.10501,-0.09581 -0.69566,-0.441788 -0.82983,-0.486084 -0.0613,-0.02024 -0.13344,-0.02838 -0.16029,-0.01807 -0.0657,0.02522 -0.25378,0.325003 -0.81027,1.291547 -0.47686,0.828236 -0.56078,0.957168 -0.56078,0.86159 0,-0.02781 -0.054,-0.163283 -0.12005,-0.301062 -0.3618,-0.754949 -1.32901,-1.208728 -2.13108,-0.999815 -0.65077,0.169502 -1.2272,0.783971 -1.91642,2.042885 -0.40319,0.736436 -0.57463,1.254789 -0.57463,1.737346 0,0.627621 0.28726,1.129856 0.86863,1.518701 0.37106,0.248184 0.63508,0.319722 1.09883,0.297741 l 0.36691,-0.01738 -0.0663,0.13 c -0.0365,0.0715 -0.0663,0.153781 -0.0663,0.182843 0,0.08258 0.89567,0.627311 1.03145,0.627311 0.0253,0 0.23619,-0.316285 0.46874,-0.702858 z"
         id="path5338" />
      <path
         style="fill:#ffffff;stroke:none;stroke-width:0.117425"
         d="m 104.09043,63.446557 c -0.0555,-0.113144 -0.10301,-0.275696 -0.11323,-0.387869 -0.0155,-0.170444 -0.004,-0.222247 0.1004,-0.441573 0.15011,-0.31609 1.02872,-1.851224 3.40741,-5.953567 l 1.89533,-3.268713 0.1962,-0.101618 0.19621,-0.101619 1.00181,-0.02151 c 1.68703,-0.03622 9.64831,-0.03156 9.90676,0.0058 0.24606,0.03557 0.50664,0.155154 0.63438,0.291129 0.0918,0.0977 0.0489,0.10373 -0.0889,0.01249 -0.10035,-0.06646 -0.17076,-0.0673 -5.6501,-0.06752 l -5.54849,-2.22e-4 -0.19294,0.105558 c -0.10611,0.05806 -0.21099,0.122841 -0.23307,0.14396 -0.0412,0.03939 -0.17874,0.275159 -2.72036,4.662022 -1.82328,3.147015 -2.44924,4.245665 -2.6017,4.566396 -0.1107,0.232865 -0.11657,0.262647 -0.0987,0.499621 0.0105,0.138599 0.0158,0.251997 0.0118,0.251997 -0.004,0 -0.0503,-0.08765 -0.1029,-0.194768 z"
         id="path5340" />
      <path
         style="fill:#00647f;fill-opacity:1;stroke:none;stroke-width:0.117425"
         d="m 111.36175,60.552462 c -0.25527,-0.03851 -0.47506,-0.152434 -0.67119,-0.347908 -0.27734,-0.276429 -0.33156,-0.6027 -0.16746,-1.007756 0.17753,-0.4382 0.73882,-1.378339 0.98779,-1.654505 0.38075,-0.422334 0.96918,-0.400934 1.42222,0.05173 0.21761,0.217432 0.28229,0.355357 0.28266,0.602758 2.2e-4,0.148236 -0.26505,0.683003 -0.70963,1.430631 -0.50845,0.855001 -0.68149,0.994881 -1.14439,0.925052 z"
         id="path5342" />
      <path
         style="fill:#00647f;fill-opacity:1;stroke:none;stroke-width:0.117425"
         d="m 120.4139,65.849386 c -0.29441,-0.144473 -0.48061,-0.292219 -0.5944,-0.471643 -0.17925,-0.282644 -0.17707,-0.289166 0.48445,-1.448501 0.49729,-0.871514 0.73919,-1.242037 0.84936,-1.301002 0.0558,-0.02985 0.16202,-0.04001 0.3159,-0.03019 0.19225,0.01225 0.26946,0.03685 0.45203,0.143965 0.44976,0.263885 0.5963,0.498636 0.56991,0.912995 -0.0161,0.252404 -0.15892,0.568984 -0.55305,1.225666 -0.53312,0.88827 -0.66508,1.013077 -1.11096,1.050714 -0.18432,0.01556 -0.23485,0.0055 -0.41324,-0.082 z"
         id="path5344" />
      <path
         style="fill:#00647f;fill-opacity:1;stroke:none;stroke-width:0.117425"
         d="m 109.87925,66.915075 c -0.32514,-0.151408 -0.4889,-0.460772 -0.3921,-0.740698 0.0488,-0.141195 0.40772,-0.785834 0.60391,-1.084755 0.19262,-0.293481 0.30594,-0.373991 0.55139,-0.391745 0.21112,-0.01527 0.35126,0.03663 0.51876,0.192135 0.25083,0.23286 0.2534,0.416052 0.0125,0.889027 -0.57762,1.133951 -0.82767,1.353399 -1.29443,1.136036 z"
         id="path5346" />
      <path
         style="fill:#00647f;fill-opacity:1;stroke:#241c1c;stroke-width:0.0366231"
         d="m 109.53406,70.189686 c -0.0602,-0.0918 -0.0259,-0.237297 0.0614,-0.260677 0.0374,-0.01 0.062,0.0133 0.0832,0.0792 0.0295,0.0917 0.1321,0.141887 0.16685,0.0817 0.01,-0.0168 -0.006,-0.0561 -0.0342,-0.0873 -0.0606,-0.0664 -0.0112,-0.17672 0.0732,-0.16335 0.0732,0.0116 0.1293,-0.0792 0.07,-0.11344 -0.0243,-0.014 -0.0648,-0.009 -0.0899,0.0115 -0.0527,0.0427 -0.13848,0.005 -0.14048,-0.0624 -0.005,-0.16486 0.28495,-0.21272 0.40398,-0.0667 0.0969,0.11885 0.0971,0.21364 8.2e-4,0.33849 -0.0475,0.0616 -0.0867,0.144757 -0.0873,0.184897 -0.001,0.10208 -0.15213,0.21036 -0.27622,0.19841 -0.12556,-0.0121 -0.16158,-0.034 -0.2313,-0.14032 z m 0.32229,0.0918 c 0.0371,-0.009 0.088,-0.0584 0.11301,-0.10994 0.025,-0.0516 0.0707,-0.136317 0.10153,-0.188317 0.0959,-0.16196 0.10685,-0.23926 0.0459,-0.32472 -0.0687,-0.0962 -0.22759,-0.13607 -0.30208,-0.0757 -0.0689,0.0558 -0.0425,0.10586 0.0542,0.10251 0.19419,-0.007 0.2319,0.14648 0.0466,0.18918 l -0.10808,0.0249 0.0431,0.10162 c 0.0277,0.0654 0.0254,0.115937 -0.007,0.141807 -0.0545,0.0442 -0.17398,-0.007 -0.17603,-0.0751 -0.002,-0.0735 -0.0957,-0.103237 -0.11839,-0.0377 -0.0468,0.13519 0.14297,0.29072 0.30686,0.25147 z m 0.11943,0.18684 c -0.0441,-0.0511 0.0405,-0.1852 0.10992,-0.1742 0.0314,0.005 0.066,0.0425 0.0769,0.0834 0.032,0.1196 -0.1047,0.18606 -0.18684,0.0908 z m 0.13793,-0.0375 c 0.0151,-0.0262 0.006,-0.0599 -0.0201,-0.075 -0.0262,-0.0151 -0.0599,-0.006 -0.075,0.0201 -0.0151,0.0262 -0.006,0.0599 0.0201,0.075 0.0262,0.0151 0.0599,0.006 0.075,-0.0201 z m 1.54523,0.94109 c -0.0286,-0.0816 -0.0262,-0.13818 0.007,-0.16509 0.0552,-0.0447 0.17487,0.006 0.17693,0.0743 0.003,0.0858 0.0925,0.0961 0.13881,0.0159 0.0428,-0.0742 0.0361,-0.0848 -0.0936,-0.14919 l -0.1397,-0.0693 0.088,-0.17467 c 0.10969,-0.21787 0.17494,-0.24444 0.35084,-0.14289 0.1751,0.1011 0.22231,0.16132 0.18165,0.23174 -0.0365,0.0632 -0.11262,0.0602 -0.24129,-0.009 -0.0823,-0.0444 -0.0824,-0.0421 -0.002,0.0534 0.18012,0.21388 0.029,0.5453 -0.237,0.51967 -0.14127,-0.0136 -0.18098,-0.0456 -0.22972,-0.18474 z m 0.32617,0.13542 c 0.0921,-0.0222 0.20611,-0.2199 0.18094,-0.31377 -0.0107,-0.04 -0.052,-0.0987 -0.0917,-0.13051 -0.11366,-0.0909 -0.0562,-0.17975 0.0769,-0.11901 0.16728,0.0763 0.19901,-0.022 0.0416,-0.12895 -0.15677,-0.10651 -0.23375,-0.0811 -0.32516,0.10726 l -0.0693,0.14285 0.12687,0.0732 c 0.11489,0.0663 0.12305,0.082 0.0865,0.16645 -0.0484,0.11162 -0.15206,0.10998 -0.21236,-0.003 -0.0429,-0.0806 -0.1262,-0.0847 -0.12161,-0.006 0.009,0.14676 0.15586,0.2483 0.3073,0.2118 z m 0.53467,0.39991 c -0.0139,-0.0812 0.0616,-0.13534 0.33214,-0.23818 0.0997,-0.0379 0.19066,-0.0853 0.20221,-0.10527 0.0309,-0.0535 -0.0685,-0.0987 -0.12186,-0.0554 -0.0554,0.0448 -0.16322,-0.01 -0.15362,-0.0781 0.004,-0.0269 -0.0111,-0.0212 -0.0331,0.0126 -0.022,0.0338 -0.13544,0.12056 -0.25208,0.19277 -0.14906,0.0923 -0.23499,0.12208 -0.28927,0.10024 -0.0851,-0.0343 -0.0655,-0.10485 0.0488,-0.17589 0.0514,-0.0319 0.058,-0.0586 0.0297,-0.11935 -0.0618,-0.13267 -0.0305,-0.28036 0.0771,-0.36291 0.17037,-0.13073 0.437,-0.0139 0.43631,0.19116 -2.4e-4,0.072 0.004,0.074 0.0872,0.0363 0.18832,-0.0858 0.42826,0.1101 0.37285,0.30447 -0.028,0.0982 -0.1697,0.2087 -0.29517,0.23013 -0.10326,0.0176 -0.11218,0.0511 -0.0338,0.12701 0.0769,0.0745 0.0357,0.19034 -0.0621,0.17484 -0.11622,-0.0184 -0.3336,-0.166 -0.34528,-0.23441 z m 0.39169,0.16001 c 0.0164,-0.0283 -0.005,-0.072 -0.054,-0.10797 -0.0448,-0.0332 -0.077,-0.0681 -0.0715,-0.0775 0.005,-0.009 0.087,-0.0477 0.18125,-0.085 0.1869,-0.0741 0.27587,-0.18569 0.24371,-0.30571 -0.0387,-0.14459 -0.28524,-0.21749 -0.35089,-0.10378 -0.0305,0.0528 0.0357,0.0971 0.11391,0.0761 0.0711,-0.019 0.1429,0.065 0.10766,0.12608 -0.0145,0.0252 -0.12519,0.085 -0.24593,0.13298 -0.32102,0.12759 -0.34364,0.19896 -0.101,0.3187 0.10646,0.0525 0.15721,0.06 0.1768,0.0261 z m -0.43131,-0.46722 c 0.11573,-0.0764 0.22467,-0.16369 0.24209,-0.19385 0.0533,-0.0924 0.006,-0.25883 -0.0894,-0.31387 -0.19592,-0.11311 -0.40314,0.0939 -0.31606,0.31577 0.0402,0.10245 0.0364,0.1277 -0.0254,0.16605 -0.0986,0.0612 -0.12085,0.10762 -0.0667,0.13886 0.0248,0.0143 0.13979,-0.0365 0.25552,-0.11296 z m -0.0607,-0.30005 c 0.0146,-0.0919 0.0992,-0.14422 0.15503,-0.0959 0.0312,0.027 0.0327,0.0717 0.004,0.12124 -0.0522,0.0904 -0.17444,0.0709 -0.15917,-0.0254 z m 0.14331,0.0162 c 0.0204,-0.0352 0.0155,-0.0756 -0.0109,-0.0909 -0.0264,-0.0153 -0.0639,7.2e-4 -0.0842,0.036 -0.0203,0.0352 -0.0155,0.0756 0.011,0.0909 0.0264,0.0153 0.0639,-7.3e-4 0.0842,-0.036 z m -2.20774,-0.66851 c -0.005,-0.0183 0.0474,-0.13088 0.11619,-0.25008 0.099,-0.1715 0.1152,-0.22246 0.0776,-0.24419 -0.0262,-0.0151 -0.0324,-0.0538 -0.0138,-0.086 0.0741,-0.128367 0.35299,-0.0944 0.33163,0.0404 -0.005,0.0337 -0.0743,0.17313 -0.15321,0.30983 -0.0789,0.1367 -0.1652,0.26612 -0.19172,0.2876 -0.0486,0.0393 -0.15009,0.004 -0.16666,-0.0575 z m 0.31714,-0.24739 c 0.15124,-0.24398 0.17125,-0.29359 0.13601,-0.3371 -0.0227,-0.0281 -0.0727,-0.0498 -0.11112,-0.0483 -0.095,0.004 -0.16327,0.0877 -0.10058,0.12386 0.0405,0.0234 0.0264,0.0695 -0.0752,0.24554 -0.0688,0.1192 -0.12098,0.2322 -0.11591,0.25112 0.0259,0.0966 0.10373,0.028 0.26683,-0.23508 z m 0.207,0.53596 c 0.0101,-0.0174 -0.0162,-0.0516 -0.0584,-0.076 -0.21178,-0.12227 -0.17269,-0.22425 0.17288,-0.45099 0.17168,-0.11265 0.25638,-0.14695 0.30029,-0.1216 0.0896,0.0518 0.0771,0.11027 -0.0398,0.18515 -0.12847,0.0823 -0.13544,0.0943 -0.0752,0.12908 0.0284,0.0164 0.0335,0.0718 0.0125,0.13406 -0.0198,0.0584 -0.0234,0.11335 -0.008,0.12216 0.0464,0.0268 -0.0212,0.1085 -0.11822,0.14271 -0.095,0.0335 -0.21789,-0.009 -0.18591,-0.0646 z m 0.18046,0.0186 c 0.0729,-0.0235 0.0915,-0.0444 0.0794,-0.0895 -0.009,-0.0324 -9.4e-4,-0.0845 0.0172,-0.11594 0.0449,-0.0778 -0.0551,-0.12861 -0.12134,-0.0616 -0.0293,0.0296 -0.073,0.0425 -0.0971,0.0285 -0.0583,-0.0337 -0.0519,-0.0412 0.14528,-0.16985 0.18495,-0.12069 0.25534,-0.20722 0.18211,-0.22386 -0.0641,-0.0146 -0.4789,0.26519 -0.51618,0.34814 -0.0215,0.0478 -0.004,0.086 0.059,0.13246 0.049,0.0359 0.0951,0.0863 0.10239,0.11198 0.0192,0.0676 0.0429,0.0739 0.14928,0.0396 z m 0.22972,0.19584 c 0.005,-0.0348 0.0588,-0.1478 0.11841,-0.25104 0.0841,-0.1457 0.0977,-0.19385 0.0608,-0.21517 -0.0673,-0.0388 0.003,-0.14073 0.11259,-0.16443 0.0509,-0.011 0.12316,0.004 0.16052,0.0333 0.0662,0.0519 0.0631,0.0615 -0.12434,0.38621 -0.18203,0.31528 -0.19615,0.33146 -0.26514,0.30376 -0.043,-0.0173 -0.0688,-0.0552 -0.0628,-0.0926 z m 0.3026,-0.21938 c 0.14904,-0.24043 0.17095,-0.29396 0.13731,-0.33549 -0.0239,-0.0295 -0.0823,-0.0381 -0.14508,-0.0213 -0.0948,0.0254 -0.101,0.0332 -0.0635,0.0795 0.0333,0.0411 0.0169,0.094 -0.0816,0.26465 -0.0677,0.11733 -0.11902,0.22881 -0.11395,0.24773 0.0259,0.0966 0.10373,0.028 0.26683,-0.23509 z m -2.60369,-2.890917 c 0.0269,0.004 0.0626,0.0244 0.0793,0.0458 0.0167,0.0214 -0.005,0.0183 -0.0489,-0.007 -0.0436,-0.0252 -0.0573,-0.0427 -0.0304,-0.0389 z m -0.21906,-0.16991 c 0.0351,0.01 0.0851,0.0385 0.111,0.0641 0.0259,0.0256 -0.003,0.0177 -0.0639,-0.0175 -0.061,-0.0353 -0.0823,-0.0562 -0.0471,-0.0465 z m 0.49288,0.27013 c 0.23232,0.079 0.4127,0.089 0.64883,0.0359 0.23936,-0.0538 0.24812,-0.0419 0.13709,0.18652 l -0.0642,0.13209 0.47575,0.27467 0.47575,0.27467 2.45147,-4.209054 2.45147,-4.209045 -2.4303,4.227314 c -2.20189,3.830025 -2.43607,4.226415 -2.49159,4.217615 -0.0337,-0.005 -0.25163,-0.11961 -0.48427,-0.25392 -0.23264,-0.13432 -0.44056,-0.26591 -0.46204,-0.29243 -0.0275,-0.034 -0.015,-0.0899 0.0426,-0.18967 l 0.0817,-0.14146 -0.20765,0.0341 c -0.2315,0.038 -0.55498,-10e-4 -0.68439,-0.0829 -0.065,-0.0411 -0.051,-0.0421 0.0598,-0.004 z m 2.96631,1.72489 c 0.10458,0.052 0.26155,0.14267 0.34881,0.201547 0.0873,0.0589 0.002,0.0164 -0.19016,-0.0945 -0.19185,-0.11085 -0.26324,-0.15904 -0.15865,-0.10707 z m -3.74657,-2.30207 c -0.22203,-0.33612 -0.2752,-0.73273 -0.16574,-1.23636 0.0369,-0.16971 0.12222,-0.343477 0.47728,-0.971971 l 0.43235,-0.76531 -0.41628,0.774591 c -0.43367,0.80697 -0.49433,0.96592 -0.51572,1.35152 -0.0209,0.37607 0.0599,0.63581 0.29093,0.93533 0.0746,0.0967 0.11272,0.16308 0.0847,0.14748 -0.028,-0.0156 -0.11238,-0.12148 -0.18756,-0.23528 z m 3.46099,2.09819 c 0.0269,0.004 0.0626,0.0244 0.0793,0.0458 0.0167,0.0214 -0.005,0.0183 -0.0489,-0.007 -0.0436,-0.0252 -0.0573,-0.0427 -0.0304,-0.0389 z m 1.02356,0.539517 c 0.12115,0.0246 0.29779,0.04 0.39254,0.0343 l 0.17227,-0.0105 -0.0515,0.0892 c -0.0283,0.0491 -0.0443,0.11627 -0.0354,0.14929 0.0237,0.0886 0.73676,0.49514 0.81659,0.46559 0.0412,-0.0152 0.29841,-0.42926 0.82671,-1.330547 l 0.76695,-1.30842 -0.76545,1.34328 c -0.74056,1.299587 -0.76806,1.343187 -0.84576,1.340687 -0.0442,-0.001 -0.24435,-0.0973 -0.44486,-0.21307 -0.38532,-0.22246 -0.44868,-0.29498 -0.3727,-0.42658 0.0308,-0.0534 0.012,-0.06 -0.20205,-0.0712 -0.12983,-0.007 -0.29038,-0.0336 -0.35678,-0.0596 -0.0803,-0.0314 -0.0469,-0.0322 0.0995,-0.002 z m 2.99753,1.77972 c 0.28975,0.156 0.36847,0.1855 0.429,0.16079 0.0688,-0.0281 0.0707,-0.0262 0.0264,0.0267 -0.0446,0.0532 -0.0734,0.0423 -0.429,-0.1608 l -0.38122,-0.21779 0.35487,0.19107 z m -4.27,-2.586257 c -0.14468,-0.21849 -0.22328,-0.57432 -0.18221,-0.82488 0.0354,-0.21569 0.28371,-0.73374 0.41535,-0.86639 0.0615,-0.062 0.0215,0.0257 -0.13757,0.30117 -0.20919,0.36234 -0.22597,0.40585 -0.24754,0.64209 -0.0275,0.30071 0.0594,0.59491 0.24241,0.8212 0.0698,0.0863 0.10431,0.14487 0.0767,0.13013 -0.0276,-0.0147 -0.10283,-0.10623 -0.16712,-0.20332 z m 3.69547,2.133867 c -0.18179,-0.28532 -0.16801,-0.72764 0.0328,-1.05348 0.0794,-0.1288 0.0788,-0.12132 -0.007,0.0779 -0.10986,0.25672 -0.13629,0.39243 -0.11901,0.61103 0.0124,0.15748 0.12294,0.38418 0.25662,0.52653 0.0521,0.0555 0.0536,0.0655 0.006,0.0392 -0.0353,-0.0195 -0.11169,-0.10999 -0.1698,-0.20119 z m -2.4349,-2.300657 c 0.078,0.0361 0.1993,0.10617 0.26959,0.15565 0.0703,0.0495 0.006,0.0199 -0.14181,-0.0657 -0.14827,-0.0856 -0.20578,-0.12609 -0.12778,-0.09 z m -0.32839,-0.29674 c -0.11925,-0.24423 0.003,-0.55557 0.25753,-0.65756 0.15956,-0.0638 0.40323,0.0275 0.937,0.35136 l 0.45412,0.27551 -0.16255,0.30274 c -0.13629,0.25381 -0.17767,0.30773 -0.25611,0.33372 -0.11348,0.0376 -0.32167,0.0155 -0.4187,-0.0444 -0.0391,-0.0242 0.007,-0.023 0.10293,0.003 0.29222,0.078 0.34001,0.0519 0.53981,-0.29411 l 0.17263,-0.29901 -0.55326,-0.30522 c -0.45237,-0.24957 -0.57769,-0.30581 -0.68721,-0.30845 -0.1775,-0.004 -0.34108,0.1427 -0.39033,0.35071 -0.0397,0.16756 -0.0206,0.23531 0.10957,0.38843 0.0619,0.0728 0.0713,0.0986 0.0272,0.0743 -0.0371,-0.0204 -0.0968,-0.0971 -0.13263,-0.17054 z m 4.21297,2.424287 c 0.007,-0.043 -0.0357,-0.0859 -0.15155,-0.15275 -0.12892,-0.0744 -0.16761,-0.11759 -0.19411,-0.21648 l -0.0331,-0.12351 0.58119,-0.987287 0.58119,-0.98729 0.2272,0.11919 c 0.16835,0.0883 0.24636,0.11144 0.30114,0.0893 0.0684,-0.0277 0.0704,-0.0256 0.0262,0.0271 -0.0422,0.0503 -0.077,0.0415 -0.29856,-0.0754 l -0.25081,-0.13245 -0.56688,0.98188 c -0.54248,0.939587 -0.56574,0.986177 -0.54008,1.081927 0.0204,0.0759 0.0691,0.12447 0.20224,0.20135 0.12887,0.0744 0.17293,0.11716 0.16597,0.16107 -0.005,0.0329 -0.0207,0.0628 -0.0345,0.0665 -0.0138,0.004 -0.0207,-0.0202 -0.0155,-0.0531 z m -7.07372,-4.093227 c 0.26124,0.12274 0.35885,0.14629 0.50134,0.12096 0.27769,-0.0494 0.33043,-0.10436 0.75276,-0.78505 l 0.38636,-0.622717 -0.36978,0.632297 c -0.35838,0.61279 -0.37473,0.6352 -0.53019,0.727 -0.21758,0.12848 -0.46277,0.11892 -0.69925,-0.0273 -0.13731,-0.0849 -0.14606,-0.0945 -0.0412,-0.0452 z m -0.28579,-0.3119 c -0.0566,-0.16714 -0.0659,-0.36205 -0.0209,-0.43714 0.0135,-0.0225 0.0179,0.0315 0.01,0.11985 -0.0165,0.18006 0.0261,0.34867 0.11725,0.46423 0.0412,0.0522 0.043,0.0678 0.005,0.048 -0.0306,-0.0162 -0.0808,-0.10388 -0.11164,-0.19492 z m 0.33429,-1.111687 c 0.33544,-0.594429 0.35846,-0.627222 0.51968,-0.740241 0.18859,-0.13221 0.38311,-0.166784 0.55474,-0.0986 l 0.11469,0.04556 -0.1307,-0.02999 c -0.0719,-0.01649 -0.19323,-0.01525 -0.26966,0.0027 -0.28171,0.06635 -0.32177,0.109388 -0.74697,0.802361 l -0.39278,0.640147 z m 2.2492,1.730367 c 0.0482,-0.0868 0.29093,-0.21136 0.50621,-0.25976 0.25137,-0.0565 0.5154,-0.0372 0.72602,0.053 0.13405,0.0574 0.13191,0.0579 -0.0428,0.01 -0.41947,-0.11593 -0.78408,-0.068 -1.07704,0.14156 -0.0744,0.0533 -0.12502,0.0782 -0.11242,0.0555 z m 2.01704,0.19409 0.63575,0.35415 0.0928,-0.19143 c 0.17318,-0.35725 0.0839,-0.59328 -0.3318,-0.87691 l -0.25787,-0.17595 0.24037,0.13301 c 0.47308,0.26178 0.59738,0.65212 0.32812,1.03043 l -0.0732,0.10289 -0.63494,-0.36518 -0.63495,-0.36517 0.63575,0.35416 z m -2.67369,-1.941627 c 0.0772,-0.220205 -0.009,-0.501549 -0.18866,-0.613445 -0.0393,-0.02454 -0.0488,-0.04136 -0.021,-0.03739 0.21229,0.03037 0.36576,0.601995 0.20067,0.747445 -0.0198,0.0174 -0.0157,-0.026 0.009,-0.0966 z m -2.09743,-1.313918 c 0.0311,-0.04988 0.0893,-0.119361 0.12929,-0.154414 0.049,-0.04298 0.0369,-0.01554 -0.0372,0.08427 -0.12361,0.166514 -0.17818,0.208053 -0.0921,0.07014 z m 6.55832,3.663125 c 0.0309,-0.052 0.0481,-0.0654 0.0383,-0.0299 -0.01,0.0355 -0.035,0.078 -0.0561,0.0945 -0.0211,0.0165 -0.0131,-0.0126 0.0178,-0.0645 z m -2.54226,-1.79413 c -0.0965,-0.266097 -0.12776,-0.407447 -0.10042,-0.454807 0.11621,-0.20128 1.07947,-0.16604 1.42878,0.0523 0.0611,0.0382 0.0302,0.0347 -0.0894,-0.0102 -0.47662,-0.17858 -1.20714,-0.19792 -1.30151,-0.0345 -0.038,0.0658 0.20198,0.790567 0.27591,0.833257 0.0244,0.0141 0.13741,0.0326 0.25109,0.0412 0.11367,0.009 0.25427,0.032 0.31245,0.0521 0.0582,0.0201 -0.005,0.019 -0.141,-0.002 -0.13573,-0.0214 -0.27119,-0.0323 -0.30101,-0.0243 -0.11812,0.0316 -0.19864,-0.0772 -0.33489,-0.45272 z m 2.59092,1.62811 c 0.0599,-0.11682 0.0518,-0.56053 -0.0142,-0.77775 -0.12209,-0.40156 -0.34557,-0.67363 -0.8394,-1.02193 l -0.29519,-0.208207 0.30978,0.195917 c 0.48308,0.30553 0.75077,0.6285 0.87013,1.04984 0.0668,0.23595 0.0553,0.72551 -0.0184,0.78326 -0.026,0.0204 -0.0303,0.0132 -0.0127,-0.0211 z m -6.3735,-3.760513 c 0.0147,-0.0264 0.12059,-0.112935 0.23529,-0.192306 0.35051,-0.24254 0.8453,-0.326335 1.17465,-0.198933 0.11806,0.04567 0.11751,0.04595 -0.0315,0.01615 -0.48465,-0.09694 -0.83818,-0.01419 -1.22986,0.287868 -0.0964,0.07437 -0.1633,0.113617 -0.1486,0.08722 z m 6.92541,4.009223 c -0.0829,-0.0568 -0.16023,-0.12888 -0.17182,-0.16019 -0.0293,-0.0793 0.38505,-0.79864 0.46776,-0.81204 0.0691,-0.0112 0.41046,0.14982 0.39055,0.18424 -0.008,0.0131 -0.0907,-0.0207 -0.1848,-0.075 -0.12672,-0.0732 -0.18355,-0.0886 -0.21927,-0.0597 -0.0265,0.0215 -0.12927,0.17944 -0.22834,0.35103 -0.0991,0.17159 -0.18449,0.33956 -0.18983,0.37326 -0.007,0.0454 0.0346,0.0869 0.16133,0.16004 0.0941,0.0543 0.16281,0.11303 0.15274,0.13047 -0.0101,0.0174 -0.0204,0.0271 -0.0229,0.0214 -0.002,-0.006 -0.0725,-0.0568 -0.15538,-0.11355 z m -5.413,-3.206328 c 0.0269,0.0038 0.0626,0.02439 0.0793,0.04578 0.0167,0.02139 -0.005,0.01829 -0.0489,-0.0069 -0.0436,-0.02518 -0.0573,-0.04268 -0.0304,-0.03889 z m 0.82673,-0.297174 c -0.0359,-0.109316 -0.10827,-0.264147 -0.16081,-0.344068 -0.0525,-0.07992 -0.0654,-0.115135 -0.0285,-0.07826 0.086,0.0861 0.20151,0.307329 0.22899,0.438754 0.0118,0.05634 0.0335,0.109393 0.0482,0.117903 0.0147,0.0085 0.8829,-1.467334 1.92925,-3.279655 1.71788,-2.975468 1.90838,-3.294186 1.96372,-3.285415 0.0798,0.01265 0.89545,0.483556 0.94631,0.546352 0.0307,0.03795 0.0102,0.09814 -0.0963,0.282697 -0.0745,0.128965 -0.12777,0.238876 -0.11846,0.244247 0.009,0.0054 0.0939,-0.01086 0.18799,-0.03607 0.36191,-0.09698 0.87335,-0.07616 1.06347,0.04329 0.0388,0.0244 -0.0108,0.02053 -0.11028,-0.0086 -0.28241,-0.08266 -0.55822,-0.0853 -0.89143,-0.0085 -0.20622,0.04751 -0.30351,0.05364 -0.2972,0.01871 0.005,-0.02856 0.0632,-0.154075 0.12893,-0.278926 l 0.11955,-0.227002 -0.47575,-0.274674 -0.47575,-0.274673 -1.91165,3.292421 c -1.05141,1.810831 -1.92815,3.296432 -1.94832,3.301334 -0.0202,0.0049 -0.066,-0.08053 -0.10195,-0.189844 z m 6.67849,3.625982 c 0.007,-0.0427 -0.0508,-0.096 -0.21689,-0.20105 l -0.22609,-0.143 0.51805,-0.91671 c 0.37964,-0.67181 0.52773,-0.91112 0.55433,-0.89577 0.02,0.0115 0.0636,0.10545 0.097,0.20872 0.10024,0.31029 0.31623,0.5856 0.61495,0.78384 0.82961,0.55056 1.73289,0.4446 2.42615,-0.28462 0.28038,-0.29494 0.88318,-1.258047 1.17648,-1.879691 0.54935,-1.164334 0.41126,-1.986135 -0.44004,-2.618813 -0.34213,-0.254266 -0.84325,-0.359552 -1.27555,-0.267993 -0.13129,0.02781 -0.25446,0.04147 -0.2737,0.03036 -0.0249,-0.01435 0.15828,-0.35495 0.63303,-1.177249 l 0.66803,-1.15705 -0.0611,-0.05892 c -0.0336,-0.0324 -0.23479,-0.153668 -0.44704,-0.269473 l -0.3859,-0.210553 -2.20435,3.780824 -2.20434,3.780838 2.19764,-3.805855 2.19764,-3.80584 0.4176,0.2289 c 0.22968,0.125895 0.44511,0.255398 0.47875,0.287785 l 0.0611,0.05888 -0.65887,1.141192 c -0.36237,0.62766 -0.65034,1.146112 -0.63994,1.15212 0.0104,0.006 0.11642,-0.0087 0.23559,-0.03259 0.64452,-0.129436 1.36654,0.190629 1.77928,0.788739 0.21939,0.317914 0.30653,0.658628 0.27759,1.085369 -0.0322,0.475412 -0.1331,0.751883 -0.56395,1.545746 -0.62864,1.158294 -1.02691,1.638794 -1.58213,1.908744 -0.53449,0.25988 -1.14193,0.21814 -1.72308,-0.11839 -0.39155,-0.22673 -0.61482,-0.47723 -0.73901,-0.82914 -0.0355,-0.10058 -0.0732,-0.18788 -0.0838,-0.194 -0.0106,-0.006 -0.24,0.38 -0.5098,0.85804 l -0.49055,0.86914 0.22608,0.143 c 0.16612,0.10507 0.22365,0.1584 0.21689,0.20105 -0.005,0.0319 -0.0205,0.0611 -0.0342,0.0647 -0.0138,0.004 -0.0209,-0.0194 -0.0158,-0.0513 z m -7.00844,-4.184671 c 0.0282,0.0041 0.0549,0.02098 0.0594,0.0376 0.004,0.01662 -0.0186,0.01331 -0.0513,-0.0074 -0.0361,-0.02286 -0.0392,-0.03471 -0.008,-0.03023 z m -0.36427,-0.254233 c 0.0603,0.0255 0.16032,0.08307 0.22216,0.127927 0.0618,0.04486 0.0125,0.02399 -0.10973,-0.04636 -0.12218,-0.07037 -0.17278,-0.107061 -0.11243,-0.08156 z m -1.33545,-2.471789 c -0.59474,-0.481111 -0.81719,-1.11902 -0.65151,-1.868271 0.15882,-0.718263 1.07891,-2.311901 1.62153,-2.808578 0.64297,-0.588525 1.4152,-0.672505 2.17106,-0.236105 0.41283,0.238343 0.7113,0.610548 0.83953,1.046917 l 0.0464,0.157757 0.65234,-1.129894 c 0.56863,-0.984888 0.66243,-1.132597 0.73096,-1.150959 0.0641,-0.01718 0.16193,0.02704 0.5299,0.239482 0.30871,0.178233 0.45636,0.279514 0.46736,0.320582 0.0233,0.08711 -3.80592,6.719598 -3.89303,6.742939 -0.0412,0.01104 -0.20523,-0.06774 -0.5231,-0.251262 -0.31787,-0.183523 -0.4681,-0.286173 -0.47915,-0.327383 -0.009,-0.03302 0.0292,-0.138478 0.0846,-0.234353 l 0.10065,-0.17432 -0.15879,0.03698 c -0.2822,0.06572 -0.47945,0.07459 -0.70086,0.03149 -0.25385,-0.04941 -0.62954,-0.226547 -0.83781,-0.395026 z m 0.74196,0.333059 c 0.23359,0.06584 0.45103,0.06257 0.75554,-0.01136 l 0.28499,-0.06919 -0.11957,0.207102 c -0.0796,0.137854 -0.11191,0.227792 -0.0967,0.268981 0.0155,0.04196 0.17119,0.143708 0.48356,0.316079 l 0.46066,0.254198 1.92881,-3.322149 c 1.40999,-2.428535 1.92589,-3.339288 1.91793,-3.38586 -0.0146,-0.08535 -0.84838,-0.572692 -0.93852,-0.54854 -0.0445,0.01192 -0.23216,0.314222 -0.72474,1.167397 -0.36559,0.633221 -0.67341,1.146286 -0.68405,1.140145 -0.0106,-0.0061 -0.0557,-0.125943 -0.10013,-0.266227 -0.13401,-0.423104 -0.3821,-0.728116 -0.78128,-0.960529 -0.63856,-0.371785 -1.3216,-0.353344 -1.90193,0.05135 -0.40033,0.279167 -0.5532,0.480199 -1.14626,1.507409 -0.59276,1.026705 -0.69072,1.26018 -0.73223,1.745201 -0.0277,0.324319 0.0548,0.751179 0.1919,0.992246 0.23432,0.411992 0.71308,0.77595 1.20199,0.913752 z m 0.11789,-1.108601 c -0.26357,-0.236019 -0.37154,-0.585546 -0.30025,-0.971976 0.0181,-0.09832 0.16354,-0.376788 0.51062,-0.977949 0.54722,-0.947804 0.62714,-1.043375 0.97532,-1.166246 0.31899,-0.11257 0.47905,-0.08737 0.86674,0.136467 0.26409,0.152474 0.34894,0.217776 0.4099,0.315487 0.10759,0.172455 0.1614,0.366177 0.1558,0.560873 -0.005,0.16057 -0.0253,0.201889 -0.59076,1.18132 -0.56993,0.987158 -0.58997,1.017415 -0.73209,1.105747 -0.37673,0.23414 -0.9137,0.157976 -1.29528,-0.183723 z m 0.75229,0.279951 c 0.11677,0.0096 0.2743,-0.0085 0.35006,-0.0401 0.28457,-0.118837 0.35125,-0.204692 0.9082,-1.169369 0.58645,-1.015762 0.62577,-1.121806 0.5377,-1.450457 -0.12214,-0.455861 -0.78267,-0.845474 -1.2384,-0.730474 -0.39871,0.100612 -0.57641,0.291166 -1.072,1.149557 -0.51695,0.895387 -0.59958,1.159934 -0.47613,1.524332 0.12993,0.383495 0.53909,0.679452 0.99057,0.716511 z m 5.06991,4.215601 c -0.0122,-0.04562 0.31242,-0.629019 1.35231,-2.430167 1.21958,-2.112377 1.37695,-2.372424 1.44701,-2.391198 0.11557,-0.03097 0.94772,0.449472 0.97868,0.565043 0.0188,0.07006 -0.12775,0.336371 -1.34733,2.448748 -1.03989,1.801148 -1.38281,2.37399 -1.42843,2.38622 -0.0412,0.011 -0.20522,-0.0677 -0.52309,-0.251264 -0.31787,-0.183522 -0.46811,-0.286172 -0.47915,-0.327382 z m 1.01464,0.527366 c 0.0265,-0.0215 0.65567,-1.091193 1.39811,-2.377141 1.0255,-1.776224 1.34603,-2.352514 1.33381,-2.398121 -0.0224,-0.08351 -0.8553,-0.564399 -0.93881,-0.542023 -0.0456,0.01222 -0.38443,0.57795 -1.40993,2.354174 -0.74244,1.285949 -1.35427,2.365666 -1.35961,2.399372 -0.008,0.05206 0.0609,0.102038 0.45925,0.332039 0.39837,0.23 0.47622,0.26488 0.51718,0.2317 z m 2.44532,0.33021 c -0.15507,-0.12177 -0.25234,-0.28268 -0.3077,-0.509033 l -0.0378,-0.154355 0.67285,-1.186225 0.67285,-1.186226 0.13592,-0.06636 c 0.27192,-0.132764 0.55439,-0.101007 0.90656,0.101919 0.31543,0.181773 0.47568,0.371218 0.55066,0.651075 0.10647,0.397332 0.0718,0.499779 -0.51011,1.507682 -0.49338,0.854563 -0.49478,0.856623 -0.67716,0.98369 -0.21326,0.1486 -0.46418,0.22502 -0.66124,0.2014 -0.17347,-0.0208 -0.56214,-0.20006 -0.74488,-0.343567 z m 0.77426,0.295137 c 0.24338,0.0132 0.51593,-0.0807 0.68926,-0.237457 0.0646,-0.0584 0.27672,-0.37914 0.54057,-0.817294 0.57292,-0.951415 0.66077,-1.208867 0.54435,-1.595318 -0.0894,-0.296813 -0.16995,-0.388305 -0.51939,-0.590051 -0.29123,-0.168142 -0.33522,-0.183435 -0.53799,-0.187016 -0.39693,-0.007 -0.36582,-0.04207 -1.11651,1.258167 -0.71167,1.232642 -0.7195,1.251598 -0.61171,1.479572 0.10355,0.21901 0.24069,0.35629 0.51819,0.518747 0.23479,0.13745 0.30052,0.16019 0.49323,0.17065 z m -4.835,-5.825711 c 0.0309,-0.05196 0.0481,-0.06542 0.0383,-0.02992 -0.01,0.0355 -0.035,0.07802 -0.0561,0.09447 -0.0211,0.01646 -0.0131,-0.01259 0.0178,-0.06455 z m 0.10963,-0.129301 c 0.0153,-0.02733 0.10744,-0.09139 0.20483,-0.142337 0.21226,-0.11105 0.49432,-0.12169 0.69854,-0.02635 0.081,0.0378 0.11497,0.05862 0.0756,0.04628 -0.26586,-0.08332 -0.37196,-0.09439 -0.54696,-0.05707 -0.10874,0.02319 -0.25667,0.08424 -0.32873,0.135667 -0.0721,0.05143 -0.11853,0.07114 -0.10326,0.04381 z m 1.65044,0.514449 c -0.0271,-0.11525 -0.17528,-0.309817 -0.33856,-0.444431 l -0.0716,-0.05905 0.0857,0.04374 c 0.11859,0.0605 0.2834,0.26049 0.35401,0.429578 0.0325,0.07781 0.0758,0.151129 0.0963,0.162935 0.0589,0.03401 1.05429,-0.415793 1.08295,-0.489384 0.0145,-0.03731 -0.0312,-0.167293 -0.10762,-0.305767 -0.13586,-0.246221 -0.14363,-0.301405 -0.0147,-0.104179 0.12457,0.190511 0.19023,0.381015 0.15336,0.444892 -0.0552,0.09555 -1.04935,0.51053 -1.13723,0.474683 -0.0442,-0.01802 -0.0853,-0.07938 -0.10261,-0.15301 z m -0.51201,-0.601795 c 0.0269,0.0038 0.0626,0.02439 0.0793,0.04578 0.0167,0.02139 -0.005,0.01829 -0.0489,-0.0069 -0.0436,-0.02518 -0.0573,-0.04268 -0.0304,-0.03889 z m 1.32631,-0.461507 c 0.0282,0.0041 0.0549,0.02098 0.0593,0.0376 0.005,0.01662 -0.0186,0.01331 -0.0512,-0.0074 -0.0361,-0.02286 -0.0392,-0.03471 -0.008,-0.03023 z m -0.39811,-0.28554 -0.17814,-0.130922 0.1606,0.08805 c 0.0883,0.04843 0.21088,0.132824 0.27232,0.187542 0.0907,0.0808 0.094,0.08885 0.0175,0.04287 -0.0518,-0.03114 -0.17434,-0.115534 -0.27232,-0.187541 z"
         id="path5348" />
    </g>
  </g>
</svg>
