<?xml version="1.0" encoding="UTF-8" standalone="no"?>
<!-- Created with Inkscape (http://www.inkscape.org/) -->

<svg
   width="25mm"
   height="25mm"
   viewBox="0 0 25 25"
   version="1.1"
   id="svg9140"
   inkscape:version="1.2.2 (b0a8486541, 2022-12-01)"
   sodipodi:docname="logo11_punk.svg"
   xmlns:inkscape="http://www.inkscape.org/namespaces/inkscape"
   xmlns:sodipodi="http://sodipodi.sourceforge.net/DTD/sodipodi-0.dtd"
   xmlns="http://www.w3.org/2000/svg"
   xmlns:svg="http://www.w3.org/2000/svg">
  <sodipodi:namedview
     id="namedview9142"
     pagecolor="#ffffff"
     bordercolor="#000000"
     borderopacity="0.25"
     inkscape:showpageshadow="2"
     inkscape:pageopacity="0.0"
     inkscape:pagecheckerboard="0"
     inkscape:deskcolor="#d1d1d1"
     inkscape:document-units="mm"
     showgrid="false"
     inkscape:zoom="5.1250853"
     inkscape:cx="51.413778"
     inkscape:cy="39.1213"
     inkscape:window-width="1920"
     inkscape:window-height="1011"
     inkscape:window-x="0"
     inkscape:window-y="0"
     inkscape:window-maximized="1"
     inkscape:current-layer="layer1" />
  <defs
     id="defs9137" />
  <g
     inkscape:label="Layer 1"
     inkscape:groupmode="layer"
     id="layer1"
     transform="translate(-64.53198,-88.611634)">
    <g
       id="g9040"
       transform="translate(18.419118,7.8843926)"
       style="fill:#aa4400">
      <path
         style="fill:#ececec;stroke:#800000;stroke-width:0.117425"
         d="m 53.5078,103.03909 c -0.263753,-0.0264 -0.52541,-0.15892 -0.669219,-0.33903 -0.229674,-0.28767 -5.400825,-9.267376 -5.460462,-9.482104 -0.04596,-0.165489 -0.04427,-0.342972 0.0046,-0.48319 0.07402,-0.212349 1.06162,-1.935147 4.812745,-8.395541 l 0.559046,-0.962819 0.198808,-0.104172 0.198805,-0.104172 h 5.521251 5.521248 l 0.171513,0.09052 c 0.317744,0.167695 0.279509,0.107952 2.207533,3.449179 1.238446,2.146197 3.17061,5.524289 3.379446,5.90844 0.144698,0.266163 0.164563,0.327207 0.165357,0.50809 l 7.93e-4,0.205581 -2.272233,3.929231 c -3.503356,6.058137 -3.269287,5.681057 -3.567835,5.747627 -0.171564,0.0383 -10.404901,0.069 -10.771518,0.0324 z"
         id="path9016"
         sodipodi:nodetypes="csssscccccsssccsccc" />
      <path
         style="fill:#2b1100;fill-opacity:1;stroke:none;stroke-width:0.0366231"
         d="m 52.686444,103.09392 c -0.05641,-0.0634 -0.145964,-0.18272 -0.199016,-0.26506 -0.156261,-0.24253 -5.148662,-8.893685 -5.263448,-9.120846 -0.131436,-0.260112 -0.15915,-0.512179 -0.08246,-0.749997 0.04258,-0.132055 0.830412,-1.513387 2.770201,-4.857106 l 2.710693,-4.67257 0.141921,-0.08722 c 0.07806,-0.04797 0.226496,-0.10731 0.329867,-0.131868 0.164544,-0.03909 10.331643,-0.05783 10.872787,-0.02004 0.283038,0.01977 0.718582,0.245222 0.867382,0.448994 0.151665,0.207697 5.316576,9.157976 5.387514,9.336028 0.03324,0.08343 0.05637,0.249373 0.0514,0.368766 l -0.009,0.217078 -2.784641,4.823134 c -2.73919,4.744417 -2.786892,4.824667 -2.922535,4.916747 -0.07584,0.0515 -0.221471,0.11419 -0.323621,0.13936 -0.151376,0.0373 -10.096405,0.0681 -10.771925,0.0334 -0.226156,-0.0116 -0.619577,-0.20391 -0.77508,-0.37881 z m 0.761965,0.32828 c 0.648391,0.0352 10.619023,0.005 10.771635,-0.0329 0.10215,-0.0252 0.247779,-0.0879 0.323621,-0.13936 0.135632,-0.0921 0.183292,-0.17223 2.904224,-4.885027 l 2.766329,-4.791416 0.009,-0.217078 c 0.005,-0.119393 -0.01816,-0.285337 -0.0514,-0.368766 -0.07102,-0.17825 -5.235936,-9.12845 -5.387781,-9.336392 -0.144828,-0.198334 -0.522042,-0.391509 -0.803874,-0.411673 -0.531624,-0.03804 -10.707177,-0.01959 -10.872595,0.01971 -0.103371,0.02456 -0.251811,0.0839 -0.329867,0.131868 l -0.141921,0.08722 -2.692383,4.640852 c -1.92642,3.320564 -2.709311,4.693353 -2.75189,4.82539 -0.07669,0.23782 -0.04897,0.489887 0.08246,0.749998 0.114786,0.227161 5.107187,8.878314 5.263448,9.120844 0.238797,0.37063 0.565149,0.588 0.910953,0.60675 z m 0.545456,-3.0689 c 0.01007,-0.0174 0.03258,-0.0235 0.05003,-0.0134 0.01744,0.0101 0.02348,0.0326 0.0134,0.05 -0.01007,0.0174 -0.03258,0.0235 -0.05003,0.0134 -0.01744,-0.0101 -0.02348,-0.0326 -0.01341,-0.05 z m -1.127446,-9.473617 c -0.30139,-0.260702 -0.480447,-0.547657 -0.566146,-0.907295 -0.07362,-0.308925 -0.0648,-0.575129 0.03205,-0.968326 0.06716,-0.272663 0.103544,-0.345115 0.638878,-1.272341 0.479169,-0.829945 0.597952,-1.015449 0.761996,-1.190007 0.265131,-0.282126 0.55982,-0.478197 0.853714,-0.568016 0.300216,-0.09175 0.495921,-0.102493 0.784633,-0.04307 0.682005,0.140377 1.184809,0.592069 1.373008,1.233436 0.04627,0.157673 0.104634,0.286063 0.129706,0.285312 0.03078,-9.23e-4 0.268436,-0.387357 0.731691,-1.189737 l 0.686106,-1.18837 0.44688,0.26974 0.44688,0.26974 -1.904402,3.298521 -1.904403,3.298522 -0.457041,-0.252139 -0.457042,-0.25214 0.129258,-0.223882 c 0.08755,-0.15164 0.119148,-0.236365 0.09793,-0.262566 -0.01723,-0.02128 -0.17703,-0.0016 -0.355105,0.04382 -0.422058,0.107547 -0.664525,0.07294 -1.091273,-0.15578 -0.168744,-0.09044 -0.338535,-0.19188 -0.377316,-0.225424 z m 1.43306,-0.308736 c 0.247632,0.05927 0.572236,-0.0088 0.790853,-0.165762 0.16945,-0.121687 0.182489,-0.14107 0.712799,-1.059593 0.485991,-0.841761 0.543181,-0.954718 0.569996,-1.125797 0.06907,-0.440689 -0.1181,-0.787279 -0.564274,-1.044878 -0.21326,-0.123125 -0.313218,-0.160305 -0.478385,-0.177936 -0.240381,-0.02566 -0.518607,0.05234 -0.737707,0.20681 -0.144614,0.101957 -0.179668,0.154643 -0.683468,1.027249 -0.573279,0.992948 -0.581194,1.01257 -0.555677,1.377485 0.02967,0.42435 0.439337,0.841187 0.945863,0.962422 z m 8.596801,6.082316 c -0.106608,-0.0772 -0.222318,-0.18167 -0.257134,-0.23216 -0.06301,-0.0914 -0.06243,-0.0933 0.125202,-0.418273 l 0.188502,-0.326498 0.112112,0.04387 c 0.06166,0.02413 0.196996,0.08389 0.300744,0.132808 0.357898,0.16876 0.727034,0.14009 1.062642,-0.08253 0.155818,-0.103361 0.170932,-0.125862 0.69945,-1.041283 0.510635,-0.884445 0.541097,-0.945645 0.55674,-1.118532 0.04015,-0.443779 -0.13171,-0.77862 -0.547681,-1.067048 l -0.252931,-0.175378 0.183116,-0.317166 0.183116,-0.317165 0.160491,0.01118 c 0.205518,0.01431 0.625387,0.222748 0.835216,0.414628 0.509257,0.465691 0.665888,1.120295 0.443992,1.855565 -0.07135,0.236415 -0.167994,0.423469 -0.651434,1.260813 -0.541298,0.937549 -0.578128,0.993329 -0.793116,1.201219 -0.48661,0.47052 -1.014644,0.64235 -1.595745,0.51927 -0.278425,-0.059 -0.500238,-0.16006 -0.753282,-0.34332 z m -1.788545,-1.101594 c -0.0049,-0.01834 0.85103,-1.522858 1.902101,-3.343366 l 1.911037,-3.310015 0.415135,0.251478 0.415135,0.251478 -1.885189,3.283898 c -1.377868,2.400174 -1.901501,3.289938 -1.945807,3.306338 -0.04475,0.0166 -0.157827,-0.0337 -0.432047,-0.19201 -0.204286,-0.117948 -0.375451,-0.229457 -0.380365,-0.247801 z"
         id="path9018" />
      <path
         style="fill:#00ff00;fill-opacity:1;stroke:#000080;stroke-width:0.0366231"
         d="m 51.602104,97.041693 c -0.38698,-0.3626 -0.507283,-0.84796 -0.356818,-1.439586 0.03485,-0.137041 0.169111,-0.396064 0.522991,-1.009002 0.44207,-0.765689 0.4905,-0.837844 0.677551,-1.009494 0.499585,-0.458449 1.082303,-0.532923 1.641895,-0.209842 0.29083,0.167911 0.45105,0.367772 0.549378,0.685308 0.09002,0.290711 0.120335,0.332413 0.196678,0.270577 0.02652,-0.02148 0.904756,-1.522624 1.951638,-3.335876 l 1.903421,-3.296823 0.431008,0.260608 0.431008,0.260608 -0.137937,0.258672 c -0.07587,0.142269 -0.142102,0.281918 -0.147192,0.310331 -0.006,0.03363 0.109656,0.01926 0.331494,-0.0412 0.641633,-0.174858 1.165864,-0.04246 1.665797,0.420703 0.219571,0.203422 0.426529,0.547657 0.378878,0.63019 -0.03458,0.05989 -0.923234,0.467421 -0.967253,0.443571 -0.01447,-0.0078 -0.05228,-0.07645 -0.08403,-0.152471 -0.08906,-0.213253 -0.249699,-0.377581 -0.523833,-0.535853 -0.42767,-0.246916 -0.8298,-0.251781 -1.159617,-0.01403 -0.122789,0.08851 -0.274757,0.342026 -2.63653,4.398223 l -2.50623,4.304296 -0.441198,-0.24296 -0.441197,-0.24296 0.08142,-0.14103 c 0.08946,-0.15495 0.115725,-0.255 0.07336,-0.27946 -0.01512,-0.009 -0.130596,0.0118 -0.256616,0.0455 -0.12602,0.0338 -0.306036,0.0531 -0.400037,0.043 -0.223939,-0.0241 -0.586645,-0.20172 -0.77803,-0.38104 z m 1.23625,-0.28978 c 0.194029,0.0501 0.438957,-0.008 0.608445,-0.14504 0.122022,-0.0985 0.200294,-0.21398 0.519076,-0.766129 0.357971,-0.620023 0.375989,-0.65929 0.38837,-0.846355 0.0082,-0.123246 -0.01656,-0.255418 -0.0665,-0.355562 -0.071,-0.142372 -0.109062,-0.176471 -0.35638,-0.31926 -0.261993,-0.151262 -0.286495,-0.158378 -0.455345,-0.132247 -0.09815,0.01519 -0.250478,0.06997 -0.338509,0.121727 -0.157008,0.09232 -0.167555,0.107099 -0.553755,0.776017 -0.372754,0.645627 -0.394002,0.691162 -0.399393,0.855896 -0.01246,0.380623 0.250561,0.706763 0.653995,0.810953 z m 2.182462,2.27899 c -0.326471,-0.23695 -0.46549,-0.42372 -0.54894,-0.73749 -0.08915,-0.33521 -0.04166,-0.58344 0.187577,-0.98049 0.25146,-0.43554 0.510561,-0.62253 0.906172,-0.65396 0.348454,-0.0277 0.563538,0.0502 1.277421,0.46232 0.752512,0.43446 0.745175,0.43335 0.883924,0.13333 0.185773,-0.4017 0.07608,-0.71926 -0.344173,-0.99635 -0.228243,-0.15049 -0.411696,-0.205572 -0.888142,-0.266655 -0.121583,-0.01559 -0.12588,-0.02179 -0.247855,-0.358099 -0.06827,-0.18823 -0.11443,-0.359032 -0.102578,-0.379561 0.06156,-0.106624 0.578096,-0.123473 0.971601,-0.03169 0.348062,0.08118 0.993848,0.463666 1.216715,0.720633 0.321663,0.370872 0.436375,0.737002 0.372817,1.189922 -0.03045,0.21702 -0.04591,0.24731 -0.831848,1.63005 l -0.800818,1.408927 -0.382131,-0.220627 -0.38213,-0.22062 0.07325,-0.12687 c 0.05945,-0.10296 0.06203,-0.13334 0.0137,-0.16124 -0.03275,-0.0189 -0.09114,-0.0227 -0.129762,-0.008 -0.245335,0.0908 -0.82122,-0.0957 -1.244792,-0.40313 z m 1.404453,-0.14351 c 0.286718,0.0546 0.36789,0.004 0.580823,-0.36524 0.165839,-0.28724 0.176269,-0.31779 0.132548,-0.38817 -0.03275,-0.0527 -0.212916,-0.16613 -0.581586,-0.36604 -0.428535,-0.23236 -0.564493,-0.29198 -0.687702,-0.30153 -0.180169,-0.014 -0.339382,0.076 -0.445905,0.25193 -0.154679,0.2555 -0.112476,0.49354 0.129042,0.72782 0.147529,0.14311 0.655291,0.39981 0.87278,0.44123 z m 1.991675,2.021067 c -0.197106,-0.21287 -0.265966,-0.43443 -0.224271,-0.72161 0.03019,-0.207937 0.05978,-0.267207 0.697402,-1.396917 0.48343,-0.85653 0.659424,-1.19214 0.642339,-1.2249 -0.01294,-0.0248 -0.0912,-0.0845 -0.173907,-0.1326 l -0.150373,-0.0875 0.201427,-0.34889 0.201427,-0.34888 0.150934,0.0865 c 0.08301,0.0476 0.172722,0.0851 0.199353,0.0834 0.03039,-0.002 0.18229,-0.21597 0.407945,-0.57476 0.19774,-0.314401 0.375002,-0.579967 0.393916,-0.590143 0.01891,-0.01018 0.03569,0.03872 0.03729,0.108651 0.0046,0.200536 0.111038,0.408602 0.290214,0.567142 0.09035,0.0799 0.166294,0.16608 0.168759,0.19141 0.0025,0.0253 -0.0816,0.19616 -0.186817,0.37963 -0.105217,0.18347 -0.190153,0.36279 -0.18875,0.39849 0.0017,0.0442 0.07337,0.11254 0.224553,0.21422 l 0.222002,0.14932 -0.192271,0.33302 -0.192271,0.33303 -0.240315,-0.1176 c -0.163648,-0.0801 -0.258653,-0.10796 -0.297799,-0.0874 -0.03277,0.0172 -0.292153,0.43622 -0.603327,0.97455 -0.688533,1.191157 -0.68511,1.177167 -0.34983,1.429447 l 0.154527,0.11627 -0.210583,0.36474 -0.210583,0.36474 -0.352174,-0.19573 c -0.193696,-0.10765 -0.382162,-0.22811 -0.418814,-0.26769 z m 2.395471,-8.83256 1.364211,-2.362883 0.444032,0.256362 0.444032,0.256362 -1.364212,2.362883 -1.364211,2.362883 -0.444032,-0.256361 -0.444032,-0.256362 z"
         id="path9020" />
      <path
         style="fill:#6c5353;stroke-width:0.0366231"
         d="m 52.738418,102.96713 c 0.06108,0.0258 0.146632,0.0754 0.190113,0.11019 0.04348,0.0348 -0.0065,0.0136 -0.111057,-0.047 -0.104555,-0.0606 -0.140137,-0.089 -0.07906,-0.0632 z m -0.171335,-0.13945 c 0.02819,0.004 0.05489,0.021 0.05935,0.0376 0.0045,0.0166 -0.01861,0.0133 -0.05124,-0.007 -0.03607,-0.0228 -0.03925,-0.0347 -0.0081,-0.0302 z m 0.65843,0.30802 c 0.311467,0.0274 10.62518,0.0229 10.756882,-0.005 0.06327,-0.0133 0.192475,-0.064 0.287125,-0.11277 0.09465,-0.0488 0.163473,-0.0737 0.152941,-0.0555 -0.02524,0.0437 -0.313185,0.16922 -0.458548,0.19987 -0.105308,0.0222 -10.294106,0.034 -10.689097,0.0124 -0.09492,-0.005 -0.190915,-0.0202 -0.213317,-0.0334 -0.02241,-0.0132 0.05141,-0.0158 0.164014,-0.006 z m -0.910006,-0.62763 c -0.23978,-0.38675 -5.109552,-8.828615 -5.227045,-9.061205 -0.09807,-0.194137 -0.166716,-0.530681 -0.123512,-0.605513 0.01053,-0.01824 0.02286,0.0561 0.0274,0.165205 0.0047,0.113699 0.05329,0.287528 0.113756,0.40725 0.131772,0.260885 5.009696,8.712643 5.250215,9.096813 0.0968,0.15462 0.161708,0.27292 0.144235,0.2629 -0.01748,-0.01 -0.100746,-0.12947 -0.185049,-0.26545 z m -0.730441,-5.419877 c -0.177754,-0.15985 -0.380218,-0.50878 -0.420468,-0.72464 -0.09371,-0.502559 0.01808,-0.863053 0.558303,-1.800454 0.433824,-0.752767 0.623415,-0.993255 0.950138,-1.205197 0.219396,-0.14232 0.582859,-0.237689 0.839408,-0.220252 0.205568,0.01397 0.26297,0.03518 0.562089,0.207631 0.387853,0.223631 0.495674,0.352786 0.624454,0.748152 l 0.07656,0.235044 1.904602,-3.298867 c 1.047531,-1.814377 1.926299,-3.316441 1.952818,-3.337921 0.07217,-0.05845 0.959248,0.453701 0.94471,0.545429 -0.0053,0.03371 -0.07215,0.169422 -0.148455,0.301591 l -0.138742,0.240307 0.307785,-0.07531 c 0.575697,-0.140863 0.964092,-0.078 1.428084,0.231157 0.37045,0.246827 0.745883,0.744237 0.666523,0.883072 -0.0334,0.05844 -0.985575,0.484582 -1.028009,0.460083 -0.01563,-0.009 -0.07138,-0.09854 -0.123907,-0.198932 -0.122047,-0.233278 -0.233137,-0.344989 -0.491969,-0.494718 -0.301714,-0.174533 -0.546032,-0.221815 -0.806317,-0.156033 -0.41179,0.10407 -0.189546,-0.238206 -2.951245,4.545197 -1.346944,2.332981 -2.470687,4.259351 -2.497206,4.280831 -0.04085,0.0331 -0.117408,-8.9e-4 -0.50132,-0.22255 -0.503879,-0.29091 -0.494844,-0.27822 -0.361928,-0.50844 0.03946,-0.0683 0.06264,-0.12953 0.05151,-0.13595 -0.01113,-0.006 -0.117251,0.0101 -0.235819,0.0368 -0.118567,0.0266 -0.296356,0.0398 -0.395085,0.0292 -0.205753,-0.0221 -0.587071,-0.20377 -0.766512,-0.36515 z m 0.795068,0.33454 c 0.094,0.0101 0.274017,-0.009 0.400037,-0.043 0.12602,-0.0338 0.241497,-0.0543 0.256616,-0.0455 0.04237,0.0245 0.0161,0.12451 -0.07336,0.27946 l -0.08142,0.14103 0.441197,0.24296 0.441198,0.24296 2.50623,-4.304296 c 2.361773,-4.056197 2.513741,-4.30971 2.63653,-4.398223 0.329817,-0.237751 0.731947,-0.232886 1.159617,0.01403 0.274134,0.158272 0.434777,0.3226 0.523833,0.535853 0.03175,0.07602 0.06956,0.144632 0.08403,0.152471 0.04402,0.02385 0.932674,-0.383677 0.967253,-0.443571 0.04765,-0.08253 -0.159307,-0.426768 -0.378878,-0.63019 -0.499933,-0.463165 -1.024164,-0.595561 -1.665797,-0.420703 -0.221838,0.06045 -0.337518,0.07483 -0.331494,0.0412 0.0051,-0.02841 0.07133,-0.168062 0.147192,-0.310331 l 0.137937,-0.258672 -0.431008,-0.260608 -0.431008,-0.260608 -1.903421,3.296823 c -1.046882,1.813252 -1.925119,3.314397 -1.951638,3.335876 -0.07634,0.06184 -0.106656,0.02013 -0.196678,-0.270577 -0.09833,-0.317536 -0.258548,-0.517397 -0.549378,-0.685308 -0.559592,-0.323081 -1.14231,-0.248607 -1.641895,0.209842 -0.187051,0.17165 -0.235481,0.243805 -0.677551,1.009494 -0.35388,0.612938 -0.488138,0.871961 -0.522991,1.009002 -0.193207,0.759686 0.07217,1.369756 0.735846,1.691626 0.12545,0.0608 0.305001,0.11889 0.399002,0.129 z m -0.0078,-0.94606 c -0.121444,-0.14103 -0.194128,-0.34816 -0.18799,-0.535713 0.0054,-0.164734 0.02664,-0.210269 0.399393,-0.855896 0.3862,-0.668918 0.396746,-0.683699 0.553755,-0.776017 0.08803,-0.05176 0.24036,-0.106538 0.338509,-0.121727 0.16885,-0.02613 0.193352,-0.01901 0.455345,0.132247 0.247318,0.142789 0.285382,0.176888 0.35638,0.31926 0.04994,0.100144 0.07466,0.232316 0.0665,0.355562 -0.01238,0.187065 -0.0304,0.226332 -0.38837,0.846355 -0.425454,0.736909 -0.533158,0.856209 -0.825637,0.914569 -0.258428,0.0516 -0.585851,-0.0673 -0.767889,-0.27864 z m 0.683403,0.25597 c 0.320839,-0.0196 0.398263,-0.10404 0.873154,-0.952226 l 0.409706,-0.731764 -0.02708,-0.178038 c -0.0374,-0.245846 -0.140507,-0.39139 -0.372034,-0.525142 -0.264871,-0.153008 -0.498047,-0.162458 -0.741747,-0.03005 l -0.18557,0.100827 -0.354819,0.590568 c -0.27775,0.462292 -0.365268,0.633102 -0.402889,0.786415 -0.05577,0.2272 -0.0014,0.47195 0.14384,0.64761 0.143889,0.17402 0.43928,0.30512 0.657442,0.2918 z m 1.899652,2.30169 c -0.405685,-0.31671 -0.595753,-0.67811 -0.56804,-1.08009 0.01495,-0.21688 0.03165,-0.25986 0.244574,-0.62944 0.213719,-0.37096 0.241097,-0.4051 0.422501,-0.52675 0.232491,-0.15591 0.505953,-0.21416 0.800903,-0.17061 0.195234,0.0288 0.285943,0.0703 0.889382,0.40639 0.369585,0.20585 0.708161,0.38576 0.75239,0.39979 0.06972,0.0221 0.09185,0.006 0.16635,-0.12493 0.340643,-0.59639 -0.170947,-1.20259 -1.06097,-1.257191 l -0.235848,-0.01447 -0.122612,-0.316863 c -0.06744,-0.174275 -0.132348,-0.36256 -0.144248,-0.418412 -0.02146,-0.100704 -0.02005,-0.101922 0.16925,-0.146753 0.408005,-0.09662 1.026189,0.02979 1.509116,0.308613 0.653452,0.377271 0.995702,0.897256 0.974811,1.481036 -0.01389,0.38814 -0.08279,0.53515 -0.916489,1.95541 l -0.760146,1.294967 -0.396457,-0.228887 -0.396457,-0.2289 0.05882,-0.12462 c 0.03235,-0.0685 0.05305,-0.12796 0.04598,-0.13203 -0.0071,-0.004 -0.106184,-0.003 -0.220269,0.001 -0.368564,0.0156 -0.843835,-0.15981 -1.212548,-0.44765 z m 0.760562,0.35144 c 0.189135,0.0652 0.443611,0.0875 0.549642,0.0483 0.03862,-0.0143 0.09701,-0.0105 0.129762,0.008 0.04833,0.0279 0.04575,0.0583 -0.0137,0.16124 l -0.07325,0.12687 0.38213,0.22062 0.382131,0.220627 0.800818,-1.408927 c 0.785937,-1.38274 0.801394,-1.41303 0.831848,-1.63005 0.06356,-0.45292 -0.05115,-0.81905 -0.372817,-1.189925 -0.222867,-0.256967 -0.868653,-0.639452 -1.216715,-0.720633 -0.393505,-0.09178 -0.910041,-0.07493 -0.971601,0.03169 -0.01185,0.02053 0.03431,0.191331 0.102578,0.379561 0.121975,0.336304 0.126272,0.342512 0.247855,0.358099 0.476446,0.06108 0.659899,0.116168 0.888142,0.266658 0.420251,0.27709 0.529946,0.59465 0.344173,0.99635 -0.138748,0.30002 -0.131412,0.30113 -0.883924,-0.13333 -0.713883,-0.41216 -0.928967,-0.49 -1.277421,-0.46232 -0.395611,0.0314 -0.654712,0.21842 -0.906172,0.65396 -0.22924,0.39705 -0.276728,0.64528 -0.187577,0.98049 0.05428,0.2041 0.112088,0.32202 0.214754,0.43808 0.247498,0.2798 0.608571,0.50931 1.029336,0.65428 z m -0.163477,-0.93961 c -0.241518,-0.23428 -0.283721,-0.47232 -0.129042,-0.72782 0.106523,-0.17595 0.265736,-0.26591 0.445905,-0.25193 0.123209,0.01 0.259167,0.0692 0.687702,0.30153 0.36867,0.19991 0.548833,0.3133 0.581586,0.36604 0.04372,0.0704 0.03329,0.10093 -0.132548,0.38817 -0.212933,0.36881 -0.294105,0.41985 -0.580823,0.36524 -0.217489,-0.0414 -0.725251,-0.29812 -0.87278,-0.44123 z m 0.842066,0.39934 c 0.08522,0.0202 0.214546,0.0151 0.287395,-0.0113 0.1229,-0.0445 0.143853,-0.0693 0.290577,-0.34283 l 0.158125,-0.29482 -0.574026,-0.34295 c -0.468202,-0.27971 -0.596688,-0.34399 -0.696948,-0.34864 -0.204773,-0.01 -0.328473,0.0849 -0.46503,0.35468 -0.06897,0.13628 -0.003,0.36831 0.149062,0.52441 0.152502,0.15654 0.60923,0.40425 0.850845,0.46146 z m 1.939154,2.029687 c -0.164434,-0.19804 -0.222748,-0.48911 -0.161518,-0.80619 0.01326,-0.0686 0.292885,-0.601787 0.681984,-1.300277 l 0.659515,-1.18391 -0.165285,-0.11657 -0.165285,-0.11657 0.210583,-0.36474 0.210583,-0.36474 0.115951,0.0555 c 0.280448,0.1343 0.251742,0.14994 0.493469,-0.26875 0.305925,-0.529876 0.703031,-1.132233 0.715479,-1.085287 0.0058,0.02181 0.186704,0.131855 0.40205,0.244555 0.408302,0.213684 0.517807,0.312405 0.166125,0.149765 -0.111594,-0.05161 -0.216218,-0.09026 -0.232496,-0.0859 -0.06346,0.017 0.03303,0.254447 0.142219,0.349989 0.14474,0.126648 0.137283,0.152798 -0.226474,0.794388 -0.199096,0.35116 -0.267465,0.4976 -0.251918,0.53961 0.01174,0.0317 0.118174,0.11928 0.23653,0.1946 l 0.215192,0.13695 -0.210583,0.36474 -0.210583,0.36474 -0.232516,-0.1219 c -0.14761,-0.0774 -0.254931,-0.11359 -0.293898,-0.0992 -0.04388,0.0162 -0.220416,0.30452 -0.619028,1.01084 -0.518777,0.919247 -0.556119,0.995197 -0.535741,1.089707 0.01628,0.0755 0.05978,0.12347 0.169509,0.18682 0.24675,0.14246 0.245918,0.17082 -0.0177,0.60344 l -0.228533,0.37505 -0.384165,-0.21357 c -0.272558,-0.15152 -0.413012,-0.2483 -0.483463,-0.33315 z m 1.064806,0.13195 0.210583,-0.36474 -0.154527,-0.11627 c -0.33528,-0.25228 -0.338703,-0.23829 0.34983,-1.429447 0.311183,-0.53833 0.570556,-0.95731 0.603327,-0.97455 0.03915,-0.0206 0.134151,0.007 0.2978,0.0874 l 0.240314,0.1176 0.192271,-0.33303 0.192272,-0.33302 -0.222003,-0.14932 c -0.151179,-0.10168 -0.222817,-0.17002 -0.224553,-0.21422 -0.0014,-0.0357 0.08353,-0.21502 0.18875,-0.39849 0.105217,-0.18347 0.189283,-0.35431 0.186817,-0.37963 -0.0025,-0.0253 -0.07841,-0.11146 -0.168759,-0.19141 -0.179175,-0.15854 -0.285644,-0.366606 -0.290214,-0.567143 -0.0016,-0.06994 -0.01837,-0.118828 -0.03729,-0.108651 -0.01891,0.01018 -0.196176,0.275742 -0.393916,0.590144 -0.225654,0.35879 -0.377554,0.5728 -0.407945,0.57476 -0.02663,0.002 -0.116339,-0.0358 -0.199353,-0.0834 l -0.150934,-0.0865 -0.201427,0.34888 -0.201427,0.34889 0.150373,0.0875 c 0.08271,0.0481 0.160964,0.10778 0.173907,0.1326 0.01709,0.0328 -0.158909,0.36837 -0.642339,1.22489 -0.637621,1.12972 -0.66721,1.18899 -0.697402,1.396927 -0.04169,0.28718 0.02717,0.50874 0.224271,0.72161 0.03665,0.0396 0.225118,0.16004 0.418814,0.26769 l 0.352174,0.19573 0.210583,-0.36474 z m 7.843893,-2.892997 c 1.530847,-2.651507 2.158144,-3.72936 1.393993,-2.395232 -0.764152,1.334132 -2.016663,3.503542 -2.783359,4.820909 -0.766696,1.31738 -0.141481,0.22582 1.389366,-2.425677 z M 46.995021,92.721804 c 0.02285,-0.03607 0.03471,-0.03925 0.03023,-0.0081 -0.0041,0.02818 -0.02098,0.05489 -0.0376,0.05934 -0.01662,0.0045 -0.01331,-0.01861 0.0074,-0.05125 z m 2.717275,-4.749824 c 1.485525,-2.573005 2.096994,-3.623431 1.358819,-2.33428 -0.738175,1.289152 -1.953605,3.394338 -2.700955,4.678192 -0.747351,1.283854 -0.143389,0.229094 1.342136,-2.343912 z m 9.723188,6.450055 c 0.0044,-0.0272 0.621389,-1.103484 1.371181,-2.391743 l 1.363259,-2.342289 0.45989,0.265517 0.45989,0.265518 -1.373367,2.378742 -1.373368,2.378742 -0.457703,-0.252517 c -0.348477,-0.192256 -0.455813,-0.264319 -0.449782,-0.30197 z m 2.264994,-1.833411 1.364212,-2.362883 -0.444032,-0.256362 -0.444032,-0.256362 -1.364211,2.362883 -1.364212,2.362884 0.444032,0.256362 0.444032,0.256361 z m 0.57587,3.358174 c -0.09773,-0.125379 -0.0833,-0.185361 0.115224,-0.47902 0.10346,-0.153039 0.200954,-0.270837 0.216652,-0.261774 0.0157,0.0091 0.05808,0.06257 0.09418,0.118894 l 0.06564,0.102414 -0.182645,0.316351 c -0.19124,0.331237 -0.203112,0.33904 -0.309047,0.203135 z m -0.0521,-0.941335 c 0.12092,-0.209293 0.173111,-0.287837 0.115981,-0.174542 -0.05713,0.113295 -0.156063,0.284535 -0.219866,0.380526 -0.06379,0.096 -0.01705,0.0033 0.103872,-0.205992 z m 1.812591,-3.140086 c 0.110849,-0.191848 0.159041,-0.263237 0.107076,-0.158652 -0.05197,0.104586 -0.142666,0.261549 -0.201554,0.348809 -0.05889,0.08726 -0.01638,0.0017 0.09448,-0.190155 z m 0.50815,-0.101808 c 0.172674,-0.29908 0.226817,-0.337668 0.413171,-0.294467 0.0831,0.01926 0.08215,0.02252 -0.09749,0.333666 -0.176628,0.305928 -0.184098,0.313953 -0.283445,0.304378 -0.205572,-0.01981 -0.207471,-0.04006 -0.03223,-0.343577 z M 52.453841,83.262677 c 0.04402,-0.07934 0.281766,-0.206866 0.468237,-0.251167 0.170285,-0.04046 10.695385,-0.06433 10.704749,-0.02429 0.0022,0.0092 -2.378466,0.01635 -5.290281,0.01581 -3.055589,-5.67e-4 -5.361346,0.01826 -5.452985,0.04452 -0.08733,0.02502 -0.224897,0.09296 -0.30571,0.150967 -0.08081,0.05801 -0.136618,0.08688 -0.12401,0.06416 z m 17.556562,9.804064 c 0.0037,-0.103435 -0.01807,-0.246013 -0.04839,-0.316839 -0.0515,-0.120277 -4.949382,-8.620932 -5.282025,-9.167363 -0.148353,-0.243698 -0.171195,-0.33023 -0.0292,-0.110599 0.168517,0.260644 5.279849,9.130171 5.332481,9.253278 0.0546,0.12772 0.08431,0.512458 0.04047,0.524204 -0.01105,0.003 -0.01705,-0.07925 -0.01334,-0.182681 z M 63.754596,82.992285 c 0.04865,-0.0061 0.102145,-0.0037 0.118882,0.0052 0.01674,0.0089 -0.0094,0.02118 -0.05802,0.02725 -0.04865,0.0061 -0.102145,0.0037 -0.118883,-0.0052 -0.01674,-0.0089 0.0094,-0.02118 0.05802,-0.02725 z m 0.415575,0.101847 c 0.07847,0.03637 0.192592,0.102385 0.253611,0.146702 0.06102,0.04432 -0.0032,0.01456 -0.142667,-0.06613 -0.139486,-0.08069 -0.189411,-0.116945 -0.110944,-0.08057 z"
         id="path9022" />
      <path
         style="fill:#241c1c;stroke-width:0.0366231"
         d="m 52.577681,102.82305 c -0.0359,-0.0385 -0.118466,-0.15169 -0.183474,-0.25149 -0.18626,-0.28592 -5.17087,-8.922866 -5.289508,-9.165242 -0.06441,-0.131582 -0.108868,-0.300182 -0.112705,-0.427383 l -0.0063,-0.210074 2.717582,-4.726245 c 2.715001,-4.721757 2.717727,-4.726354 2.871695,-4.841215 0.08476,-0.06323 0.235713,-0.134737 0.335445,-0.158898 0.172345,-0.04175 10.417719,-0.05983 10.891341,-0.01922 0.300437,0.02576 0.665283,0.22712 0.807951,0.445907 0.13524,0.207396 5.286072,9.130246 5.348944,9.266043 0.02879,0.06218 0.05207,0.211087 0.05172,0.330892 l -6.24e-4,0.217829 -2.784065,4.822799 -2.784065,4.822807 -0.17209,0.0887 c -0.09465,0.0487 -0.223855,0.0995 -0.287124,0.11277 -0.131702,0.0276 -10.445415,0.0321 -10.756883,0.005 -0.210979,-0.0186 -0.506851,-0.16137 -0.647831,-0.31265 z m 0.611973,0.22807 c 0.08994,0.009 2.511862,0.0164 5.382042,0.0169 3.477393,6.5e-4 5.288111,-0.0164 5.427117,-0.0511 0.392216,-0.0979 0.105487,0.3504 3.166271,-4.951027 l 2.742763,-4.750604 0.01286,-0.176396 c 0.0071,-0.09702 -0.01409,-0.249892 -0.04702,-0.339718 -0.06161,-0.168044 -5.124534,-8.972113 -5.331822,-9.271668 -0.178848,-0.258457 -0.450665,-0.410126 -0.78306,-0.436933 -0.447086,-0.03606 -10.653202,-0.01623 -10.80991,0.021 -0.103371,0.02456 -0.251811,0.0839 -0.329867,0.131868 l -0.141921,0.08722 -2.655763,4.577418 c -1.899682,3.274252 -2.672704,4.629954 -2.715266,4.761956 -0.07668,0.237824 -0.04897,0.489891 0.08246,0.75 0.114899,0.227385 5.107408,8.878694 5.26346,9.120824 0.184775,0.2867 0.47024,0.48417 0.737658,0.51027 z m -1.389399,-5.784127 c 0.04383,0.0152 0.100756,0.0484 0.126497,0.0739 0.02574,0.0254 -0.01012,0.013 -0.0797,-0.0276 -0.06957,-0.0406 -0.09063,-0.0615 -0.0468,-0.0463 z m -0.21959,-0.16847 c 0.0355,0.01 0.07801,0.035 0.09447,0.0561 0.01646,0.0211 -0.01259,0.0131 -0.06455,-0.0178 -0.05196,-0.0309 -0.06542,-0.0481 -0.02992,-0.0383 z m 0.490441,0.28446 c 0.02689,0.004 0.06257,0.0244 0.07929,0.0458 0.01673,0.0214 -0.0053,0.0183 -0.04888,-0.007 -0.04361,-0.0252 -0.05729,-0.0427 -0.03041,-0.0389 z m 2.855287,1.64666 c 0.04361,0.0151 0.10784,0.0522 0.142724,0.0824 0.03489,0.0302 -7.99e-4,0.0179 -0.0793,-0.0275 -0.0785,-0.0453 -0.10704,-0.07 -0.06343,-0.055 z m 0.507871,0.29314 c 0.04383,0.0152 0.100756,0.0484 0.126496,0.0739 0.02574,0.0254 -0.01012,0.013 -0.0797,-0.0276 -0.06957,-0.0406 -0.09063,-0.0615 -0.0468,-0.0463 z m -2.617153,-1.56739 c -7.76e-4,-0.0259 0.0121,-0.0507 0.02861,-0.0551 0.01651,-0.004 0.02041,0.009 0.0087,0.029 -0.02788,0.0483 0.876319,0.57616 0.928023,0.54178 0.01919,-0.0128 0.02072,-0.007 0.0034,0.0125 -0.04173,0.0473 -0.96655,-0.45695 -0.968687,-0.5282 z m 1.793133,0.99227 c -0.13465,-0.16653 -0.26264,-0.48028 -0.25458,-0.62405 0.0027,-0.0487 0.01914,-0.0104 0.03646,0.0851 0.0396,0.21832 0.136667,0.39993 0.323812,0.60585 0.08056,0.0886 0.117904,0.1447 0.083,0.12459 -0.03491,-0.0201 -0.119815,-0.10627 -0.188689,-0.19145 z m 1.065518,0.67328 c 0.02819,0.004 0.05489,0.021 0.05935,0.0376 0.0045,0.0166 -0.01861,0.0133 -0.05125,-0.007 -0.03607,-0.0228 -0.03925,-0.0347 -0.0081,-0.0302 z m 0.592643,0.32032 c -0.0088,-0.033 0.0068,-0.0997 0.03478,-0.14814 l 0.05087,-0.0881 -0.203465,0.008 c -0.111906,0.005 -0.217672,2.6e-4 -0.235036,-0.01 -0.01736,-0.01 0.08023,-0.0203 0.216867,-0.0228 0.136641,-0.003 0.252983,-0.002 0.258539,0.001 0.0056,0.003 -0.01637,0.0619 -0.04872,0.13045 l -0.05882,0.12462 0.396457,0.2289 0.396457,0.228887 0.794617,-1.338497 0.794617,-1.3385 -0.76259,1.33796 c -0.573761,1.00666 -0.777456,1.341947 -0.822623,1.354047 -0.03979,0.0107 -0.184081,-0.0555 -0.427946,-0.19633 -0.243865,-0.140787 -0.373335,-0.232647 -0.383998,-0.272447 z m 2.283133,1.341207 c 0.317529,0.15231 0.657513,0.34645 0.631272,0.36046 -0.0157,0.008 -0.193962,-0.0836 -0.396141,-0.20439 -0.202179,-0.12079 -0.307988,-0.19102 -0.235131,-0.15607 z m -7.267055,-4.332977 c -0.05817,-0.10067 -0.117861,-0.24437 -0.13264,-0.31934 l -0.02687,-0.13631 0.04574,0.14079 c 0.02516,0.0774 0.09919,0.22925 0.164516,0.33738 0.06532,0.10812 0.104427,0.18847 0.08689,0.17855 -0.01754,-0.01 -0.07947,-0.1004 -0.137645,-0.20107 z m 1.222005,0.70738 c 0.106347,-0.005 0.249721,-0.027 0.318609,-0.0486 0.131394,-0.0413 0.190889,-0.0321 0.158233,0.0245 -0.01067,0.0185 -0.02735,0.0188 -0.03707,7.4e-4 -0.0097,-0.0181 -0.06205,-0.0181 -0.116288,-1e-5 -0.128696,0.0428 -0.441245,0.0764 -0.483682,0.0519 -0.01824,-0.0105 0.05385,-0.0233 0.160193,-0.0284 z m 5.800083,3.427297 c -0.03634,-0.0709 0.01373,-0.042 0.07929,0.0458 0.03145,0.0421 0.03115,0.0551 -8.86e-4,0.0382 -0.02672,-0.0142 -0.062,-0.0519 -0.07841,-0.0839 z m 1.151513,0.15736 c 0.11582,-0.20061 0.168351,-0.2797 0.116735,-0.17576 -0.05162,0.10393 -0.146378,0.26807 -0.210583,0.36474 -0.0642,0.0967 -0.02197,0.0116 0.09385,-0.18898 z m -1.293569,-0.3989 c -0.04354,-0.11166 -0.06803,-0.42128 -0.03721,-0.47048 0.01188,-0.019 0.01936,0.0213 0.01662,0.0895 -0.0027,0.0682 0.01532,0.20708 0.04015,0.30863 0.04819,0.19714 0.04038,0.22604 -0.01955,0.0724 z m -7.04648,-4.426797 c -0.01205,-0.0889 -0.0088,-0.163661 0.0068,-0.154687 0.0077,0.0045 0.01686,0.05731 0.02026,0.117417 0.0064,0.11247 -0.01317,0.13941 -0.02701,0.0373 z m 3.247737,1.65143 c 0.01544,-0.0974 0.03635,-0.1128 0.03662,-0.0269 1.33e-4,0.0425 -0.0103,0.0801 -0.02318,0.0836 -0.01288,0.003 -0.01893,-0.0221 -0.01344,-0.0567 z m 3.789533,2.185997 c 0.02285,-0.0361 0.03471,-0.0393 0.03023,-0.008 -0.0041,0.0282 -0.02098,0.0549 -0.0376,0.0593 -0.01662,0.004 -0.01331,-0.0186 0.0074,-0.0512 z m -7.033119,-4.185551 c 0.01544,-0.09743 0.03635,-0.112795 0.03662,-0.02691 1.32e-4,0.04252 -0.0103,0.08014 -0.02318,0.08359 -0.01288,0.0035 -0.01893,-0.02205 -0.01344,-0.05668 z m 4.637273,2.669584 c 0.06035,0.0255 0.160323,0.0831 0.222162,0.12793 0.06184,0.0449 0.01246,0.024 -0.109726,-0.0464 -0.122182,-0.0704 -0.172787,-0.10706 -0.112437,-0.0816 z m 2.45784,1.34384 c 0.03086,-0.052 0.04811,-0.0654 0.03834,-0.0299 -0.0098,0.0355 -0.03502,0.078 -0.05611,0.0945 -0.02109,0.0164 -0.01309,-0.0126 0.01777,-0.0645 z m -3.798006,-2.21392 c 0.02518,-0.0436 0.04268,-0.0573 0.03889,-0.0304 -0.0038,0.0269 -0.02439,0.0626 -0.04578,0.0793 -0.02139,0.0167 -0.01829,-0.005 0.0069,-0.0489 z m 1.13608,0.71248 c 0.02689,0.004 0.06257,0.0244 0.07929,0.0458 0.01673,0.0214 -0.0053,0.0183 -0.04888,-0.007 -0.04361,-0.0252 -0.05729,-0.0427 -0.03041,-0.0389 z m 0.651355,0.37476 c 0.0355,0.01 0.07801,0.035 0.09447,0.0561 0.01646,0.0211 -0.01259,0.0131 -0.06455,-0.0178 -0.05196,-0.0309 -0.06542,-0.0481 -0.02992,-0.0383 z m -0.816028,-0.6279 c -0.02507,-0.0936 -0.02978,-0.19617 -0.01046,-0.22805 0.02256,-0.0372 0.02989,-0.0121 0.02051,0.0702 -0.008,0.0705 0.01597,0.18419 0.05335,0.25266 0.03738,0.0685 0.04866,0.11341 0.02507,0.0999 -0.02359,-0.0135 -0.06339,-0.10114 -0.08846,-0.1947 z m -2.826187,-1.56055 c 0.05242,0.0206 0.12367,0.0619 0.158334,0.092 0.03466,0.03 -0.0082,0.0132 -0.09531,-0.0374 -0.08707,-0.0506 -0.115444,-0.0752 -0.06302,-0.0546 z m 3.918569,2.28216 c 0.0098,-1.6e-4 0.08121,-0.0113 0.158722,-0.0246 l 0.140928,-0.0244 -0.127247,0.0428 c -0.06999,0.0236 -0.141411,0.0346 -0.158722,0.0246 -0.01731,-0.01 -0.02347,-0.0183 -0.01368,-0.0185 z m -4.073783,-2.4126 c 0.02819,0.004 0.05489,0.021 0.05935,0.0376 0.0045,0.0166 -0.01861,0.0133 -0.05125,-0.007 -0.03607,-0.0229 -0.03925,-0.0347 -0.0081,-0.0302 z m 0.578135,0.26435 c 0.113685,0.004 0.236102,-0.0245 0.325071,-0.0766 0.160022,-0.0937 0.170269,-0.068 0.01305,0.0327 -0.106951,0.0685 -0.398707,0.10722 -0.475281,0.063 -0.02486,-0.0144 0.03686,-0.023 0.137158,-0.0191 z m 6.633273,3.885757 c -0.01792,-0.035 -0.01464,-0.0497 0.0082,-0.0369 0.02092,0.0117 0.03863,0.0407 0.03934,0.0644 0.0016,0.0534 -0.0094,0.0471 -0.04757,-0.0275 z m -7.373948,-4.468917 c -0.02277,-0.106249 -0.03069,-0.210728 -0.0176,-0.232177 0.01309,-0.02145 0.02304,-0.0014 0.02211,0.0446 -9.32e-4,0.04598 0.01526,0.155237 0.03599,0.242797 0.02072,0.0876 0.02941,0.15441 0.01929,0.14858 -0.01011,-0.006 -0.03702,-0.0976 -0.05979,-0.2038 z m 2.357651,1.17101 c 0.09055,-0.15705 0.135298,-0.22218 0.09945,-0.14473 -0.03585,0.0774 -0.10993,0.20595 -0.164614,0.28556 -0.0547,0.0796 -0.02537,0.0162 0.06518,-0.14082 z m 4.674711,2.973567 c -0.02935,-0.1364 0.01,-0.12481 0.04408,0.013 0.01546,0.0624 0.01655,0.10685 0.0024,0.0987 -0.01412,-0.008 -0.03505,-0.0584 -0.04651,-0.11169 z M 51.18879,95.565965 c 0.02285,-0.03607 0.03471,-0.03925 0.03023,-0.0081 -0.0041,0.02818 -0.02098,0.05489 -0.0376,0.05934 -0.01662,0.0045 -0.01331,-0.01861 0.0074,-0.05124 z m 5.755565,2.916108 c 0.08914,-0.17425 0.166807,-0.29894 0.172595,-0.27709 0.0058,0.0219 -0.06714,0.16442 -0.162071,0.31682 l -0.172595,0.27709 z m 1.961234,0.13661 0.583087,-1.02717 -0.171048,-0.0987 c -0.126715,-0.0732 -0.16853,-0.11464 -0.161334,-0.16004 0.01263,-0.0797 0.355462,-0.6735 0.418171,-0.72429 0.03627,-0.0294 0.08793,-0.0145 0.208458,0.0601 l 0.160242,0.0992 -0.16944,-0.0727 -0.169439,-0.0727 -0.210583,0.36474 -0.210583,0.36474 0.162597,0.10673 c 0.09062,0.0595 0.159322,0.1274 0.155197,0.15343 -0.0041,0.0257 -0.270878,0.49384 -0.592906,1.04035 l -0.585506,0.99367 z m -7.654804,-3.224845 c 0.03086,-0.05196 0.04811,-0.06543 0.03834,-0.02992 -0.0098,0.0355 -0.03502,0.07801 -0.05611,0.09447 -0.02108,0.01646 -0.01309,-0.01259 0.01777,-0.06455 z m 8.590421,3.727915 c 0.417682,-0.73625 0.558089,-0.96202 0.603018,-0.96959 0.06457,-0.0109 0.549287,0.22684 0.492854,0.24172 -0.01933,0.005 -0.137537,-0.0441 -0.262676,-0.10937 l -0.227527,-0.11863 -0.575061,0.95779 -0.575062,0.957787 z m -7.581237,-3.36023 c 0.02285,-0.03607 0.03471,-0.03925 0.03023,-0.0081 -0.0041,0.02819 -0.02098,0.05489 -0.0376,0.05935 -0.01662,0.0045 -0.01331,-0.01861 0.0074,-0.05125 z m 1.24708,0.70238 c 0.02518,-0.0436 0.04268,-0.0573 0.03889,-0.0304 -0.0038,0.0269 -0.02439,0.0626 -0.04578,0.0793 -0.02139,0.0167 -0.01829,-0.005 0.0069,-0.0489 z m -1.804548,-1.908774 c 0.221594,-0.383757 0.314299,-0.53375 0.206012,-0.333319 -0.108287,0.200431 -0.289591,0.514413 -0.402886,0.697746 -0.113307,0.183325 -0.02471,0.01934 0.196886,-0.36442 z m 3.834967,3.072824 c 0.01596,-0.0302 0.08053,-0.07 0.143495,-0.0884 0.06296,-0.0184 0.08446,-0.0209 0.04776,-0.006 -0.03669,0.0153 -0.101268,0.0551 -0.143496,0.0884 -0.05106,0.0403 -0.06706,0.0421 -0.04776,0.006 z m -2.915482,-2.541959 c 0.191386,-0.331421 0.27188,-0.459986 0.178875,-0.285701 -0.093,0.174285 -0.249594,0.445447 -0.347983,0.602578 -0.09838,0.157135 -0.02229,0.01454 0.1691,-0.316882 z m 2.201355,1.872209 c 0.04616,-0.0834 0.241645,-0.2246 0.406227,-0.29333 0.150391,-0.0628 0.483857,-0.1112 0.540575,-0.0785 0.01824,0.0105 -0.05583,0.0229 -0.164617,0.0274 -0.246109,0.0102 -0.466166,0.10003 -0.662518,0.27033 -0.0832,0.0722 -0.137046,0.1055 -0.119667,0.0741 z m 1.076231,0.55065 c 0.03639,-0.003 0.09364,0.0108 0.127233,0.0299 0.08152,0.0462 0.04572,0.0497 -0.08596,0.008 -0.07846,-0.0246 -0.0896,-0.0349 -0.04128,-0.0384 z m -0.02694,-0.90555 c 0.03593,-0.002 0.08628,0.01 0.111894,0.0259 0.03071,0.0193 0.0196,0.026 -0.0326,0.0199 -0.108824,-0.0129 -0.1589,-0.0418 -0.07929,-0.0458 z m 0.21281,0.0526 c 0.02689,0.004 0.06257,0.0244 0.07929,0.0458 0.01672,0.0214 -0.0053,0.0183 -0.04888,-0.007 -0.04361,-0.0252 -0.05729,-0.0427 -0.03041,-0.0389 z m 0.793048,0.40262 0.659919,0.35854 0.110363,-0.14773 0.110362,-0.14773 -0.08919,0.166 c -0.06709,0.12486 -0.104381,0.16359 -0.150478,0.15628 -0.03371,-0.005 -0.340195,-0.1749 -0.681088,-0.3768 l -0.619804,-0.36709 z m -2.617058,-1.955718 c 0.02643,-0.08679 0.05506,-0.144771 0.06363,-0.128855 0.01764,0.03279 -0.06045,0.272921 -0.09146,0.28123 -0.01112,0.003 0.0014,-0.06559 0.02784,-0.152375 z m -1.246727,-0.648522 c 0.02369,-0.04746 0.217086,-0.179158 0.241982,-0.164785 0.0087,0.005 -0.02662,0.03696 -0.07854,0.07095 -0.05192,0.03399 -0.114723,0.0786 -0.139568,0.09915 -0.03035,0.02509 -0.03818,0.02335 -0.02388,-0.0053 z m -0.82205,-0.694527 c 0.02518,-0.04361 0.04268,-0.05729 0.03889,-0.03041 -0.0038,0.02688 -0.02439,0.06257 -0.04578,0.07929 -0.02139,0.01673 -0.01829,-0.0053 0.0069,-0.04888 z m 6.464806,3.669027 c 0.01753,-0.0364 0.04513,-0.1061 0.06133,-0.15489 l 0.02946,-0.0887 -0.01095,0.0974 c -0.006,0.0536 -0.03362,0.12329 -0.06133,0.15489 -0.04908,0.056 -0.04956,0.0558 -0.01851,-0.009 z m -4.376942,-2.618462 c -0.0072,-0.04282 -0.0408,-0.128745 -0.07466,-0.190955 -0.03386,-0.06221 -0.04348,-0.102742 -0.02138,-0.09007 0.03992,0.02288 0.168555,0.389846 0.129532,0.369505 -0.01122,-0.0058 -0.02629,-0.04566 -0.03349,-0.08848 z m 3.451053,1.972202 c -0.01167,-0.0565 -0.06316,-0.16197 -0.114442,-0.2343 -0.05128,-0.0723 -0.0745,-0.12111 -0.05161,-0.1084 0.06659,0.037 0.15901,0.20056 0.19083,0.33782 0.01615,0.0697 0.02196,0.12242 0.0129,0.11719 -0.0091,-0.005 -0.02602,-0.0558 -0.03768,-0.11231 z M 52.34421,93.593525 c 0.192761,-0.239717 0.718212,-0.499773 0.989012,-0.489482 0.05288,0.002 -0.01844,0.02822 -0.158486,0.05826 -0.289019,0.06198 -0.507474,0.175033 -0.74675,0.38646 -0.110915,0.09801 -0.138395,0.11269 -0.08378,0.04476 z m 0.999093,0.646034 c 0.07226,-0.02762 0.23662,-0.03758 0.222714,-0.0135 -0.0035,0.0061 -0.07235,0.01819 -0.153002,0.02696 -0.09074,0.0099 -0.117319,0.0047 -0.06971,-0.01346 z m 2.841849,1.401286 c -0.07316,-0.205644 -0.127487,-0.383468 -0.120735,-0.395163 0.0068,-0.0117 0.03346,0.04918 0.05934,0.135272 0.02589,0.08609 0.09147,0.27042 0.145755,0.409612 0.05428,0.139193 0.08743,0.246575 0.07367,0.238628 -0.01376,-0.0079 -0.08487,-0.182704 -0.15803,-0.388349 z m 0.328213,0.402031 c 0.07234,-0.0044 0.145827,1.19e-4 0.1633,0.01014 0.01748,0.01001 -0.03141,0.01973 -0.108631,0.02158 -0.182054,0.0044 -0.226082,-0.02119 -0.05466,-0.03173 z m 0.318484,0.03434 c 0.06617,0.0062 0.148669,0.02816 0.183338,0.04868 0.03467,0.0205 -0.01288,0.0205 -0.105655,-1.1e-4 -0.208127,-0.0462 -0.235841,-0.06351 -0.07768,-0.04857 z m -3.079671,-1.825673 c 0.02689,0.0038 0.06257,0.02439 0.07929,0.04578 0.01673,0.02139 -0.0053,0.01829 -0.04888,-0.0069 -0.04361,-0.02518 -0.05729,-0.04268 -0.03041,-0.03889 z m 0.270756,0.155023 c 0.0355,0.0098 0.07801,0.03502 0.09447,0.05611 0.01646,0.02109 -0.01259,0.01309 -0.06455,-0.01777 -0.05196,-0.03086 -0.06542,-0.04811 -0.02992,-0.03834 z m 4.730041,2.532297 c 0.01116,-0.27018 -0.05828,-0.52458 -0.213027,-0.78044 -0.06545,-0.108214 -0.10465,-0.188636 -0.08712,-0.178717 0.07362,0.04165 0.248471,0.400577 0.294156,0.603807 0.04547,0.20226 0.05434,0.55768 0.0142,0.56843 -0.0095,0.003 -0.01315,-0.0934 -0.0082,-0.21308 z m -1.556716,-0.74368 c 0.06035,0.0255 0.160323,0.0831 0.222162,0.12792 0.06184,0.0449 0.01246,0.024 -0.109726,-0.0464 -0.122182,-0.0704 -0.172787,-0.10706 -0.112438,-0.0816 z m 4.001163,1.83313 c 0.105749,-0.18317 0.154252,-0.25507 0.107784,-0.15979 -0.04647,0.0953 -0.13299,0.24514 -0.192271,0.33302 -0.05928,0.0879 -0.02126,0.01 0.08449,-0.17323 z m -5.09651,-2.845841 c 0.0176,-0.03048 0.180163,-0.07091 0.298597,-0.07426 0.03658,-10e-4 0.02248,0.0069 -0.03134,0.01766 -0.05382,0.01075 -0.139828,0.03456 -0.191129,0.05292 -0.0513,0.01836 -0.08556,0.02001 -0.07613,0.0037 z m -1.371598,-0.999195 c -0.01593,-0.07007 -0.07226,-0.216769 -0.12518,-0.326005 -0.05292,-0.109236 -0.0847,-0.191966 -0.07063,-0.183844 0.03837,0.02215 0.182078,0.336387 0.206554,0.451645 0.01178,0.05548 0.0382,0.100366 0.0587,0.09975 0.02051,-6.15e-4 0.02444,0.02113 0.0087,0.04833 -0.0381,0.066 -0.04437,0.05879 -0.07818,-0.08988 z m 1.79947,0.917315 c 0.01241,-0.02148 0.344016,-9.04e-4 0.35008,0.02173 0.0028,0.01049 -0.07673,0.01322 -0.176758,0.0061 -0.100027,-0.0071 -0.178022,-0.01966 -0.173322,-0.0278 z m 0.44973,0.02675 c 0.03593,-0.0018 0.08628,0.0099 0.111894,0.02593 0.03071,0.01926 0.0196,0.02602 -0.0326,0.01985 -0.108823,-0.01287 -0.1589,-0.04179 -0.07929,-0.04578 z m -3.407077,-2.009365 c 0.03593,-0.0018 0.0796,0.005 0.09704,0.01503 0.01745,0.01007 0.0023,0.01979 -0.03361,0.02159 -0.03593,0.0018 -0.0796,-0.005 -0.09704,-0.01503 -0.01744,-0.01007 -0.0023,-0.01979 0.03361,-0.02159 z m 7.592792,4.394436 c -0.11781,-0.0763 -0.223803,-0.16461 -0.235538,-0.19632 -0.01555,-0.042 0.05282,-0.18845 0.251918,-0.53961 0.361482,-0.63757 0.37006,-0.66701 0.230634,-0.791396 -0.102632,-0.09156 -0.195342,-0.28652 -0.162939,-0.342643 0.0077,-0.01334 0.08674,0.0063 0.175642,0.0437 0.0889,0.03737 0.204196,0.08428 0.256201,0.10425 l 0.09455,0.03631 -0.416707,0.741409 -0.416707,0.74142 0.216505,0.13772 c 0.119078,0.0757 0.222244,0.1591 0.229257,0.18523 0.007,0.0261 0.0079,0.041 0.0021,0.033 -0.0059,-0.008 -0.107076,-0.0768 -0.224887,-0.15311 z m -6.765708,-3.959208 c -0.03145,-0.04212 -0.03115,-0.05512 8.86e-4,-0.03816 0.02672,0.01415 0.062,0.05192 0.07841,0.08394 0.03635,0.07094 -0.01373,0.04203 -0.07929,-0.04578 z m 2.795166,1.62719 c 0.02819,0.0041 0.05489,0.02098 0.05935,0.0376 0.0045,0.01662 -0.01861,0.01331 -0.05124,-0.0074 -0.03607,-0.02285 -0.03925,-0.03471 -0.0081,-0.03023 z m 1.078363,0.622594 c 0.02819,0.0041 0.05489,0.02098 0.05935,0.0376 0.0045,0.01662 -0.01861,0.0133 -0.05125,-0.0074 -0.03607,-0.02285 -0.03925,-0.03471 -0.0081,-0.03023 z m -4.517156,-2.65027 c 0.02819,0.0041 0.05489,0.02098 0.05935,0.0376 0.0045,0.01662 -0.01861,0.01331 -0.05125,-0.0074 -0.03607,-0.02286 -0.03925,-0.03471 -0.0081,-0.03023 z m 3.598633,2.077249 c 0.0355,0.0098 0.07801,0.03502 0.09447,0.05611 0.01646,0.02109 -0.01259,0.01309 -0.06455,-0.01777 -0.05196,-0.03086 -0.06542,-0.04811 -0.02992,-0.03834 z m 0.761198,0.439477 c 0.0355,0.0098 0.07801,0.03502 0.09447,0.05611 0.01646,0.02108 -0.01259,0.01309 -0.06455,-0.01777 -0.05196,-0.03086 -0.06542,-0.04811 -0.02992,-0.03834 z m 2.044901,0.787048 c 0.10575,-0.18316 0.154253,-0.25506 0.107785,-0.15978 -0.04647,0.0953 -0.13299,0.24514 -0.192272,0.33302 -0.05928,0.0879 -0.02126,0.01 0.08449,-0.17324 z M 53.995,93.246924 c 0.07847,0.03637 0.192592,0.102386 0.253604,0.146715 0.06102,0.04432 -0.0032,0.01456 -0.142667,-0.06613 -0.139479,-0.0807 -0.189411,-0.116945 -0.110944,-0.08058 z m 3.67912,2.124142 c 0.07847,0.03637 0.192592,0.102385 0.253605,0.146714 0.06102,0.04432 -0.0032,0.01456 -0.142667,-0.06613 -0.13948,-0.0807 -0.189412,-0.116945 -0.110945,-0.08058 z m 3.056553,0.167603 c 0.0807,-0.139479 0.116945,-0.189411 0.08057,-0.110945 -0.03637,0.07847 -0.102385,0.192592 -0.146714,0.253605 -0.04432,0.06102 -0.01456,-0.0032 0.06613,-0.142667 z m -1.334309,-1.112132 c 0.0053,-0.03371 0.617166,-1.113423 1.359609,-2.399372 1.025503,-1.776224 1.364322,-2.341953 1.409929,-2.354174 0.08351,-0.02238 0.916434,0.458514 0.93881,0.542023 0.01222,0.04561 -0.308306,0.621897 -1.333809,2.398121 -0.742443,1.285948 -1.371593,2.355662 -1.398113,2.377142 -0.04096,0.03318 -0.118804,-0.0017 -0.517178,-0.231701 -0.398374,-0.230001 -0.4675,-0.27998 -0.459248,-0.332039 z m 2.319973,-1.82876 1.373367,-2.378742 -0.45989,-0.265518 -0.45989,-0.265517 -1.363259,2.342289 c -0.749792,1.288259 -1.366823,2.364543 -1.371181,2.391743 -0.006,0.03765 0.101305,0.109714 0.449782,0.30197 l 0.457703,0.252517 z m 0.402661,3.129767 c -0.0391,-0.115893 -0.08675,-0.21975 -0.105875,-0.230794 -0.02372,-0.01369 0.04901,-0.163365 0.228665,-0.470594 0.144893,-0.247784 0.258909,-0.424589 0.253367,-0.3929 -0.01699,0.09717 0.03266,0.278568 0.125663,0.459108 0.06507,0.126317 0.07139,0.162125 0.02376,0.134624 -0.05916,-0.03416 -0.08155,-0.01283 -0.253454,0.241455 -0.159489,0.235917 -0.18562,0.292592 -0.169481,0.367586 0.03721,0.172885 -0.0326,0.09911 -0.102642,-0.108485 z m -3.423236,-5.913292 c 0.03564,-0.05889 0.09364,-0.128481 0.128905,-0.154641 0.04125,-0.0306 0.02492,0.0052 -0.04577,0.100439 -0.130667,0.175992 -0.173874,0.204164 -0.08313,0.0542 z m 0.217275,-0.234713 c 0.02387,-0.04163 0.353709,-0.193303 0.383283,-0.176228 0.01132,0.0065 -0.01591,0.02412 -0.0605,0.03907 -0.04459,0.01496 -0.139967,0.0598 -0.211941,0.09965 -0.07197,0.03985 -0.12185,0.05673 -0.110837,0.0375 z m 5.149212,2.289933 c 0.164338,-0.286159 0.252858,-0.414338 0.276649,-0.400602 0.01924,0.01111 0.144169,-0.0029 0.277616,-0.03119 0.232345,-0.04921 0.35037,-0.0294 0.170348,0.02859 -0.12022,0.03873 -0.428976,0.563318 -0.356259,0.605301 0.07865,0.04541 0.02302,0.08421 -0.09789,0.06829 -0.11808,-0.01555 -0.317593,0.033 -0.440504,0.107186 -0.05522,0.03333 -0.01628,-0.05314 0.170043,-0.377574 z m -3.509933,-1.723572 -0.04795,-0.136689 0.06191,0.123816 c 0.03405,0.0681 0.0762,0.132063 0.09366,0.142145 0.01746,0.01008 0.163493,-0.03882 0.324516,-0.108663 0.161022,-0.06985 0.300301,-0.122642 0.309507,-0.117326 0.0092,0.0053 -0.0071,0.01966 -0.03635,0.03188 -0.0292,0.01222 -0.172079,0.07245 -0.317515,0.133848 -0.145436,0.0614 -0.281394,0.101747 -0.30213,0.08966 -0.02073,-0.0121 -0.05928,-0.08349 -0.08565,-0.158667 z m -1.118982,-0.745551 c 0.06192,-0.01215 0.127657,-0.01338 0.146075,-0.0028 0.039,0.02252 0.03623,0.02302 -0.131343,0.02405 l -0.127317,7.82e-4 z m 0.914331,0.440802 c -0.03145,-0.04212 -0.03115,-0.05512 8.86e-4,-0.03816 0.02672,0.01415 0.062,0.05192 0.07841,0.08394 0.03634,0.07094 -0.01373,0.04203 -0.07929,-0.04578 z m -0.675344,-0.418798 c 0.02819,0.0041 0.05489,0.02098 0.05935,0.0376 0.0045,0.01662 -0.01861,0.01331 -0.05125,-0.0074 -0.03607,-0.02286 -0.03925,-0.03471 -0.0081,-0.03023 z m 0.159168,0.04934 c 0.03513,0.0096 0.08509,0.03849 0.111008,0.06409 0.02592,0.0256 -0.0028,0.01771 -0.06388,-0.01754 -0.06105,-0.03525 -0.08226,-0.0562 -0.04713,-0.04655 z m 0.317165,0.183116 c 0.03513,0.0096 0.08509,0.03849 0.111008,0.06409 0.02592,0.0256 -0.0028,0.01771 -0.06388,-0.01754 -0.06105,-0.03525 -0.08226,-0.0562 -0.04713,-0.04655 z m 1.341847,0.288071 c 0.208391,-0.09134 0.237049,-0.13176 0.190457,-0.268611 l -0.03529,-0.103671 0.05656,0.103461 c 0.03111,0.0569 0.04265,0.127554 0.02565,0.156999 -0.02932,0.05078 -0.362649,0.21698 -0.396262,0.197573 -0.0087,-0.005 0.06278,-0.04362 0.158889,-0.08575 z m -2.166596,-1.221755 c 0.01838,-0.03184 0.03742,-0.04296 0.04231,-0.02471 0.0049,0.01825 0.132533,0.0032 0.28365,-0.03351 0.151118,-0.03668 0.320307,-0.06317 0.375976,-0.05888 l 0.101216,0.0078 -0.111532,0.01007 c -0.06134,0.0055 -0.249573,0.04315 -0.418288,0.08359 -0.223432,0.05355 -0.297677,0.0578 -0.273334,0.01564 z m 2.274888,0.80316 c -0.0042,-0.01579 -0.07129,-0.111145 -0.149014,-0.211896 -0.07773,-0.10075 -0.119797,-0.171021 -0.09349,-0.156158 0.05576,0.0315 0.296103,0.36609 0.281341,0.391658 -0.01295,0.02243 -0.02914,0.01258 -0.03884,-0.02361 z m -1.413091,-0.92369 c 0.03403,-0.0093 0.06525,-0.0042 0.06938,0.01118 0.0041,0.0154 -0.02371,0.02297 -0.06187,0.01683 -0.05514,-0.0089 -0.05668,-0.01463 -0.0075,-0.028 z m -1.544259,-0.938132 c 0.04558,-0.0516 0.97921,0.487428 0.957311,0.552704 -0.0083,0.02484 -0.01396,0.02635 -0.01251,0.0034 0.0036,-0.05647 -0.894333,-0.57488 -0.941453,-0.543548 -0.01919,0.01276 -0.0207,0.0071 -0.0034,-0.01251 z m 1.713934,0.956767 c 0.03593,-0.0018 0.08628,0.0099 0.111894,0.02593 0.03071,0.01926 0.0196,0.02602 -0.0326,0.01985 -0.108824,-0.01287 -0.1589,-0.04179 -0.07929,-0.04578 z m 0.212809,0.05257 c 0.02689,0.0038 0.06257,0.02439 0.07929,0.04578 0.01673,0.02139 -0.0053,0.01829 -0.04888,-0.0069 -0.04361,-0.02518 -0.05729,-0.04268 -0.03041,-0.03889 z m 0.619639,0.356451 c 0.0355,0.0098 0.07801,0.03502 0.09447,0.05611 0.01646,0.02109 -0.01259,0.01309 -0.06455,-0.01777 -0.05196,-0.03086 -0.06542,-0.04811 -0.02992,-0.03834 z m -0.378192,-0.261925 c 0.06076,0.0257 0.153526,0.07926 0.206158,0.119025 0.05263,0.03977 0.0029,0.01874 -0.110465,-0.04672 -0.113386,-0.06546 -0.156448,-0.098 -0.09569,-0.07231 z"
         id="path9024" />
      <path
         style="fill:#ff00ff;stroke:#800000;stroke-width:0.0366231"
         d="m 52.880789,103.07333 c -0.04494,-0.043 -0.125128,-0.14556 -0.178188,-0.22789 -0.156052,-0.24213 -5.148561,-8.89344 -5.26346,-9.120825 -0.131435,-0.260109 -0.15915,-0.512176 -0.08246,-0.75 0.04256,-0.132001 0.815584,-1.487704 2.715266,-4.761956 l 2.655763,-4.577418 0.141921,-0.08722 c 0.07806,-0.04797 0.226496,-0.10731 0.329867,-0.131868 0.156708,-0.03723 10.362824,-0.05706 10.80991,-0.021 0.332395,0.02681 0.604212,0.178476 0.78306,0.436933 0.207288,0.299555 5.270209,9.103624 5.331822,9.271668 0.03294,0.08983 0.05409,0.242699 0.04702,0.339718 l -0.01286,0.176396 -2.742763,4.750605 c -3.060784,5.301427 -2.774055,4.853077 -3.166271,4.951027 -0.139006,0.0347 -1.949724,0.0518 -5.427117,0.0511 -2.87018,-5.3e-4 -5.292099,-0.008 -5.382042,-0.0169 -0.167339,-0.0163 -0.408831,-0.13822 -0.55947,-0.28238 z M 52.52861,97.806803 c 0.0984,0.0217 0.282407,0.0244 0.408912,0.006 l 0.23001,-0.0337 -0.08087,0.14007 c -0.05685,0.0985 -0.06927,0.15439 -0.04181,0.18829 0.05728,0.0707 0.897416,0.54821 0.95991,0.54556 0.04162,-0.002 0.600089,-0.94502 2.551401,-4.309287 2.490075,-4.293155 2.498601,-4.307365 2.646805,-4.411486 0.191006,-0.134191 0.500846,-0.199616 0.703306,-0.148507 0.374039,0.09442 0.783359,0.425774 0.862694,0.698366 0.0212,0.07286 0.06777,0.140579 0.106605,0.155055 0.09846,0.0367 1.094353,-0.398046 1.133182,-0.494671 0.04187,-0.104183 -0.122705,-0.419105 -0.345306,-0.660773 -0.24852,-0.269809 -0.694204,-0.527606 -1.007785,-0.582936 -0.244737,-0.04318 -0.544591,-0.02819 -0.798895,0.03995 -0.09409,0.02521 -0.178686,0.04145 -0.187989,0.03607 -0.0093,-0.0054 0.044,-0.115282 0.118462,-0.244247 0.106554,-0.184557 0.127062,-0.244747 0.09632,-0.282697 -0.05086,-0.0628 -0.866494,-0.533701 -0.946308,-0.546352 -0.05534,-0.0088 -0.24584,0.309947 -1.963727,3.285415 -1.046344,1.812321 -1.914504,3.288166 -1.929244,3.279655 -0.01474,-0.0085 -0.03644,-0.06157 -0.04822,-0.117903 -0.05593,-0.267445 -0.321511,-0.603027 -0.608253,-0.768578 -0.483934,-0.279399 -1.05469,-0.265526 -1.515387,0.03684 -0.337695,0.221633 -0.460514,0.380881 -0.957724,1.241792 -0.514888,0.891519 -0.561384,1.011635 -0.578702,1.494964 -0.02461,0.68674 0.474029,1.29431 1.192617,1.45317 z m 0.120347,-1.14384 c -0.09048,-0.12829 -0.126535,-0.29506 -0.103143,-0.47707 0.01475,-0.114804 0.09401,-0.275852 0.372524,-0.756989 0.390171,-0.674023 0.472487,-0.764066 0.757738,-0.828874 0.27725,-0.06299 0.644612,0.11999 0.776841,0.386937 0.118455,0.239141 0.08064,0.386389 -0.256216,0.997618 -0.448462,0.813748 -0.575588,0.951308 -0.91506,0.990188 -0.159203,0.0182 -0.528158,-0.1636 -0.632684,-0.31181 z m 3.311479,3.13007 c 0.119599,0.0329 0.29863,0.0594 0.397847,0.0588 0.172042,-0.001 0.178723,0.002 0.144307,0.0613 -0.07821,0.135467 -0.01716,0.206337 0.370603,0.430207 0.200508,0.11577 0.400697,0.21165 0.444864,0.21307 0.07742,0.002 0.107403,-0.0444 0.834461,-1.304917 0.577078,-1.00051 0.772201,-1.36294 0.831004,-1.54357 0.194675,-0.59799 0.06978,-1.10852 -0.391445,-1.60013 -0.191325,-0.203933 -0.788469,-0.559644 -1.084257,-0.645882 -0.471956,-0.137599 -1.117642,-0.115082 -1.208415,0.04214 -0.0479,0.08297 0.20684,0.821452 0.302397,0.876622 0.03404,0.0196 0.106515,0.0332 0.161053,0.0301 0.20825,-0.0118 0.543157,0.0804 0.768763,0.21161 0.412981,0.24014 0.526267,0.52585 0.351473,0.88642 l -0.09315,0.19214 -0.584744,-0.3376 c -0.835455,-0.48235 -1.125002,-0.56986 -1.561143,-0.47182 -0.391088,0.0879 -0.652933,0.32105 -0.885254,0.78821 -0.170417,0.34268 -0.216368,0.59133 -0.160772,0.86996 0.05259,0.26355 0.172609,0.4762 0.380488,0.67412 0.220609,0.21005 0.711737,0.49474 0.981917,0.56918 z m -0.154114,-1.1833 c -0.130139,-0.15312 -0.149251,-0.22087 -0.109574,-0.38843 0.04925,-0.20801 0.212834,-0.35498 0.390332,-0.35071 0.109526,0.003 0.234841,0.0589 0.687214,0.30845 l 0.553262,0.30522 -0.174144,0.30162 c -0.164684,0.28524 -0.180508,0.30254 -0.291316,0.31849 -0.233455,0.0336 -0.853865,-0.25707 -1.055774,-0.49464 z m 3.906235,2.738597 0.265518,-0.45989 -0.191649,-0.13196 c -0.142854,-0.0984 -0.194055,-0.1542 -0.201102,-0.21933 -0.0077,-0.0709 0.0968,-0.27142 0.553934,-1.063207 l 0.563388,-0.97581 0.251152,0.13265 0.251151,0.13265 0.247206,-0.42817 0.247206,-0.42818 -0.228718,-0.15319 -0.228718,-0.1532 0.490551,-0.86914 c 0.269803,-0.47804 0.499212,-0.864153 0.509806,-0.858036 0.01059,0.0061 0.0483,0.09341 0.08379,0.193994 0.124187,0.351912 0.347454,0.602402 0.739003,0.829142 0.581157,0.33653 1.188594,0.37827 1.723087,0.11839 0.555211,-0.26995 0.953487,-0.75045 1.582121,-1.908734 0.430851,-0.793863 0.531719,-1.070334 0.563955,-1.545746 0.02894,-0.426741 -0.05821,-0.767455 -0.27759,-1.085369 -0.412743,-0.59811 -1.134761,-0.918175 -1.779281,-0.788739 -0.119167,0.02393 -0.225181,0.0386 -0.235587,0.03259 -0.01041,-0.006 0.27757,-0.52446 0.639947,-1.152115 l 0.658867,-1.141192 -0.06115,-0.05888 c -0.03363,-0.03239 -0.249072,-0.16189 -0.478751,-0.287785 l -0.417598,-0.2289 -2.378049,4.08228 -2.37805,4.08228 -0.163527,-0.0811 c -0.08994,-0.0446 -0.190451,-0.0765 -0.22336,-0.0709 -0.08425,0.0144 -0.498941,0.73265 -0.469274,0.81281 0.01159,0.0313 0.08948,0.1024 0.173097,0.15797 l 0.152029,0.10105 -0.670826,1.19853 c -0.728778,1.302067 -0.729451,1.303707 -0.682895,1.665417 0.0201,0.15619 0.145357,0.38252 0.28792,0.52025 0.04479,0.0433 0.246914,0.17112 0.44916,0.2841 l 0.36772,0.20542 z m 3.26898,-5.881775 c -0.05353,-0.06842 -0.121019,-0.174513 -0.149975,-0.235754 -0.107792,-0.227977 -0.09996,-0.246932 0.611711,-1.479574 0.75069,-1.300235 0.719582,-1.265179 1.116512,-1.258167 0.202768,0.0036 0.24676,0.01887 0.537991,0.187016 0.349434,0.201746 0.429969,0.293238 0.519387,0.590051 0.11642,0.386451 0.02857,0.643903 -0.544355,1.595318 -0.26385,0.438155 -0.475978,0.758878 -0.540563,0.817292 -0.173333,0.156773 -0.445885,0.250668 -0.689264,0.237452 -0.192709,-0.01046 -0.258437,-0.0332 -0.493227,-0.170649 -0.172422,-0.100935 -0.306268,-0.203799 -0.368217,-0.282985 z m -9.217019,-4.024056 c 0.221406,0.04309 0.418656,0.03423 0.700856,-0.03149 l 0.15879,-0.03698 -0.100644,0.17432 c -0.05535,0.09587 -0.0934,0.201335 -0.08456,0.234353 0.01104,0.04121 0.161277,0.14386 0.479148,0.327383 0.31787,0.183522 0.481885,0.262305 0.523095,0.251262 0.08711,-0.02334 3.91638,-6.655828 3.893038,-6.742939 -0.011,-0.04107 -0.158659,-0.142349 -0.467367,-0.320582 -0.367967,-0.212445 -0.465795,-0.256658 -0.529897,-0.239482 -0.06853,0.01836 -0.162335,0.166071 -0.73096,1.150959 l -0.652345,1.129894 -0.04636,-0.157757 c -0.256922,-0.87432 -1.21986,-1.462369 -2.115458,-1.291873 -0.655567,0.124801 -1.166447,0.62344 -1.847732,1.803461 -0.681285,1.18002 -0.85768,1.871775 -0.637977,2.501913 0.211096,0.605453 0.815417,1.12242 1.458367,1.247562 z m 0.09921,-1.168479 c -0.183494,-0.153474 -0.25029,-0.246363 -0.315438,-0.438649 -0.123458,-0.364398 -0.04083,-0.628945 0.476124,-1.524332 0.495593,-0.858391 0.67329,-1.048945 1.072,-1.149557 0.45573,-0.115 1.116259,0.274613 1.238407,0.730474 0.08806,0.328651 0.04875,0.434695 -0.537701,1.450457 -0.556957,0.964677 -0.623637,1.050532 -0.908202,1.169369 -0.271063,0.113198 -0.733928,0.0059 -1.02519,-0.237762 z m 6.747281,5.072108 c 0.04562,-0.01222 0.388537,-0.585071 1.42843,-2.386219 1.219582,-2.112377 1.366106,-2.378683 1.347332,-2.448748 -0.03097,-0.115571 -0.863111,-0.59601 -0.978682,-0.565043 -0.07007,0.01877 -0.227431,0.278821 -1.447012,2.391198 -1.039894,1.801148 -1.364536,2.384545 -1.352311,2.430167 0.01104,0.04121 0.161277,0.14386 0.479147,0.327382 0.317871,0.183523 0.481886,0.262305 0.523096,0.251263 z"
         id="path9026"
         sodipodi:nodetypes="ssssscsssssscssccsscccsscsssssssssssscsssssssccsssssscscccscssssscccscsssssccsscscsssccccscccccccssssssssssscsscccscsscssssccssssssssssssscsssssssscsssssscsssssscssssssss" />
      <path
         style="fill:#483737;fill-opacity:1;stroke:#280b0b;stroke-width:0.117425"
         d="m 53.452177,102.99512 c -0.263753,-0.0263 -0.52541,-0.15891 -0.669219,-0.33903 -0.229674,-0.28766 -5.400825,-9.267372 -5.460463,-9.4821 -0.04596,-0.165489 -0.04427,-0.342971 0.0046,-0.48319 0.07402,-0.212349 1.06162,-1.935146 4.812745,-8.395541 l 0.559046,-0.962819 0.198808,-0.104171 0.198805,-0.104172 h 5.521251 5.521248 l 0.171513,0.09052 c 0.317744,0.167696 0.279509,0.107953 2.207533,3.44918 1.238446,2.146197 3.17061,5.524288 3.379446,5.908439 0.144698,0.266163 0.164563,0.327208 0.165357,0.50809 l 7.93e-4,0.205582 -2.272233,3.929235 c -3.503356,6.058127 -3.269287,5.681057 -3.567835,5.747627 -0.171564,0.0382 -10.404901,0.069 -10.771518,0.0323 z m 6.228397,-1.9439 0.280533,-0.48269 -0.09392,-0.0677 c -0.05166,-0.0373 -0.145177,-0.11347 -0.207822,-0.16936 l -0.113906,-0.10162 0.05358,-0.12802 c 0.05304,-0.126727 0.985182,-1.776827 1.034156,-1.830677 0.01397,-0.0154 0.13558,0.0275 0.270224,0.0953 0.134641,0.0678 0.249325,0.11849 0.254855,0.11264 0.01228,-0.013 0.43929,-0.74373 0.490164,-0.83879 0.03242,-0.0606 0.01236,-0.0838 -0.183872,-0.21269 -0.121142,-0.0796 -0.220578,-0.15455 -0.220964,-0.16659 -5.29e-4,-0.0204 0.700402,-1.263476 0.853107,-1.512736 l 0.0686,-0.11196 0.131371,0.26997 c 0.158166,0.325036 0.387636,0.546196 0.776812,0.748666 0.903644,0.47013 1.805114,0.24775 2.485937,-0.613246 0.446464,-0.564627 1.150477,-1.862621 1.272572,-2.346268 0.07993,-0.316609 0.08924,-0.799616 0.0204,-1.058178 -0.07489,-0.281289 -0.222448,-0.520472 -0.479676,-0.777552 -0.40127,-0.401037 -0.869971,-0.581274 -1.412285,-0.543084 -0.163012,0.01148 -0.296386,0.01162 -0.296386,2.65e-4 0,-0.01132 0.284223,-0.516864 0.631608,-1.123434 l 0.631605,-1.102857 -0.08821,-0.07021 c -0.133882,-0.106553 -0.907118,-0.529571 -0.935707,-0.511902 -0.01378,0.0085 -1.090094,1.843937 -2.391788,4.078695 l -2.366714,4.063201 -0.127071,-0.0648 c -0.188061,-0.0959 -0.276648,-0.0838 -0.380423,0.0523 -0.151477,0.1986 -0.364586,0.62227 -0.353058,0.7019 0.006,0.0416 0.07455,0.12401 0.152302,0.18319 l 0.141367,0.10762 -0.509532,0.91007 c -0.857165,1.530997 -0.918146,1.691007 -0.790699,2.074717 0.08482,0.25538 0.284647,0.45159 0.712647,0.69975 0.204928,0.11883 0.380942,0.21667 0.391139,0.21742 0.01019,7.9e-4 0.14478,-0.21584 0.299072,-0.48132 z m -2.287619,-0.88069 c 0.227089,-0.302137 1.447951,-2.466197 1.552641,-2.752157 0.100661,-0.27494 0.10753,-0.77103 0.01408,-1.01618 -0.08382,-0.21986 -0.248401,-0.474536 -0.413525,-0.639886 -0.286078,-0.286487 -0.914913,-0.627637 -1.281039,-0.694987 -0.319952,-0.0589 -0.793945,-0.0475 -0.933746,0.0224 -0.11059,0.0553 -0.118234,0.0695 -0.113787,0.21165 0.0042,0.13367 0.162542,0.611647 0.245412,0.740717 0.01688,0.0263 0.152456,0.0649 0.313201,0.0893 0.659346,0.0998 1.080423,0.3992 1.07901,0.76711 -2.38e-4,0.0624 -0.03454,0.18441 -0.07622,0.27116 l -0.07578,0.15772 -0.525025,-0.302 c -0.288767,-0.16611 -0.646952,-0.34925 -0.79597,-0.40698 -0.246994,-0.0957 -0.298059,-0.10378 -0.577731,-0.0915 -0.382971,0.0167 -0.616559,0.11964 -0.842748,0.37121 -0.187373,0.20841 -0.405932,0.63504 -0.46101,0.89991 -0.05133,0.24684 -2.39e-4,0.56202 0.129902,0.8011 0.245779,0.45157 1.123762,0.97024 1.642393,0.97024 0.114403,0 0.128032,0.008 0.109561,0.0665 -0.01162,0.0365 -0.0053,0.096 0.014,0.13204 0.05874,0.10975 0.742995,0.511433 0.87303,0.512493 0.02233,1.7e-4 0.07785,-0.0492 0.123354,-0.10976 z m -2.906183,-2.638927 c 0.229335,-0.38485 0.969155,-1.649996 1.644044,-2.81144 2.680179,-4.612416 2.834746,-4.873483 2.969604,-5.015693 0.118761,-0.125233 0.358804,-0.2114 0.584332,-0.209752 0.35415,0.0026 0.81725,0.321295 0.988774,0.680474 0.07219,0.151167 0.08735,0.163547 0.196771,0.160626 0.135459,-0.0036 0.800717,-0.274968 0.990825,-0.404151 0.15707,-0.106733 0.159356,-0.165605 0.01688,-0.43476 -0.166513,-0.314582 -0.475075,-0.599438 -0.852016,-0.786562 -0.280977,-0.139483 -0.347205,-0.158557 -0.606732,-0.174749 -0.169672,-0.01058 -0.378161,-0.0011 -0.499274,0.02273 -0.114372,0.02249 -0.21594,0.03292 -0.225706,0.02315 -0.0098,-0.0098 0.0222,-0.08594 0.07104,-0.169281 0.147537,-0.251753 0.130173,-0.29632 -0.190653,-0.489312 -0.523692,-0.315029 -0.694976,-0.393245 -0.753965,-0.344287 -0.08184,0.06792 -0.320034,0.466556 -1.659511,2.777313 -1.037283,1.789443 -1.609082,2.768415 -2.092164,3.581987 -0.06753,0.113721 -0.126452,0.118558 -0.126452,0.01037 0,-0.03404 -0.06349,-0.156969 -0.141095,-0.27318 -0.401566,-0.60135 -1.192146,-0.81453 -1.837623,-0.495519 -0.460219,0.227454 -0.633093,0.437602 -1.239047,1.506206 -0.426947,0.752927 -0.485013,0.927764 -0.468143,1.40962 0.0118,0.337 0.02389,0.3968 0.120663,0.59673 0.138848,0.28688 0.434039,0.5721 0.74407,0.71895 0.210018,0.0995 0.258524,0.1089 0.560503,0.1089 0.280885,0 0.327338,0.008 0.308968,0.0508 -0.04833,0.11357 -0.05241,0.20645 -0.01125,0.25604 0.04703,0.0567 0.391117,0.2641 0.742733,0.44775 l 0.219361,0.11457 0.06404,-0.0789 c 0.03522,-0.0434 0.251682,-0.3938 0.48102,-0.77864 z m 6.147562,-2.56053 c 0.0936,-0.11812 0.655111,-1.064891 1.485204,-2.504192 0.970105,-1.682073 1.223468,-2.148155 1.223468,-2.250681 0,-0.07631 -0.03938,-0.118208 -0.228643,-0.24326 -0.303982,-0.200856 -0.630663,-0.36222 -0.733306,-0.36222 -0.05031,0 -0.112318,0.03682 -0.156879,0.09315 -0.0973,0.122994 -0.564915,0.914485 -1.505212,2.547734 -0.911654,1.583491 -1.203576,2.113512 -1.203576,2.185246 0,0.02912 0.06886,0.102163 0.153016,0.162323 0.180216,0.12883 0.794663,0.463737 0.852239,0.464507 0.02193,2.7e-4 0.07309,-0.0414 0.113689,-0.0926 z m -4.801272,-3.590505 c 1.039796,-1.728449 3.296298,-5.665893 3.428825,-5.983073 0.04407,-0.105482 0.04216,-0.118142 -0.02739,-0.1816 -0.105016,-0.09581 -0.695667,-0.441788 -0.829834,-0.486084 -0.06132,-0.02024 -0.133443,-0.02838 -0.160285,-0.01807 -0.06571,0.02522 -0.253785,0.325003 -0.810278,1.291547 -0.476861,0.828236 -0.560779,0.957168 -0.560779,0.86159 0,-0.02781 -0.05402,-0.163283 -0.12005,-0.301062 -0.361802,-0.754949 -1.329012,-1.208728 -2.131076,-0.999815 -0.650771,0.169502 -1.227201,0.783971 -1.916424,2.042885 -0.403183,0.736436 -0.574628,1.254789 -0.574628,1.737346 0,0.627621 0.287256,1.129856 0.86863,1.518701 0.371065,0.248184 0.635079,0.319722 1.098828,0.297741 l 0.366911,-0.01738 -0.06632,0.13 c -0.03648,0.0715 -0.06632,0.153781 -0.06632,0.182843 0,0.08258 0.895668,0.627311 1.031449,0.627311 0.02527,0 0.236191,-0.316285 0.468747,-0.702858 z"
         id="path9028" />
      <path
         style="fill:#000000;stroke:none;stroke-width:0.117425"
         d="m 47.203101,93.392061 c -0.05555,-0.113144 -0.103005,-0.275696 -0.113229,-0.387869 -0.01553,-0.170444 -0.0038,-0.222247 0.100404,-0.441573 0.150112,-0.31609 1.028716,-1.851224 3.40741,-5.953567 l 1.895324,-3.268713 0.196205,-0.101618 0.196204,-0.101619 1.001811,-0.02151 c 1.687036,-0.03622 9.648311,-0.03156 9.906767,0.0058 0.246052,0.03557 0.506635,0.155154 0.634375,0.291129 0.09178,0.0977 0.0489,0.10373 -0.08885,0.01249 -0.100351,-0.06646 -0.170757,-0.0673 -5.650103,-0.06752 l -5.548484,-2.22e-4 -0.192937,0.105558 c -0.106117,0.05806 -0.210997,0.122841 -0.233072,0.14396 -0.04117,0.03939 -0.178741,0.275159 -2.720361,4.662022 -1.823286,3.147015 -2.449242,4.245665 -2.601703,4.566396 -0.110694,0.232865 -0.116573,0.262647 -0.09865,0.499621 0.01048,0.138599 0.0158,0.251997 0.0118,0.251997 -0.004,0 -0.0503,-0.08765 -0.102899,-0.194768 z"
         id="path9030" />
      <path
         style="fill:#e9afaf;stroke:none;stroke-width:0.117425"
         d="m 54.474419,90.497966 c -0.25527,-0.03851 -0.475059,-0.152434 -0.671181,-0.347908 -0.277347,-0.276429 -0.331566,-0.6027 -0.167466,-1.007756 0.17753,-0.4382 0.738825,-1.378339 0.987796,-1.654505 0.380748,-0.422334 0.969179,-0.400934 1.422214,0.05173 0.217612,0.217432 0.28229,0.355357 0.282658,0.602758 2.19e-4,0.148236 -0.265042,0.683003 -0.709631,1.430631 -0.508442,0.855001 -0.681488,0.994881 -1.14439,0.925052 z"
         id="path9032" />
      <path
         style="fill:#ffd42a;stroke:none;stroke-width:0.117425"
         d="m 63.526575,95.79489 c -0.294413,-0.144473 -0.480613,-0.292219 -0.5944,-0.471643 -0.179247,-0.282644 -0.177067,-0.289166 0.484452,-1.448501 0.497287,-0.871514 0.739182,-1.242037 0.84936,-1.301002 0.05578,-0.02985 0.162015,-0.04001 0.315897,-0.03019 0.192249,0.01225 0.269462,0.03685 0.452027,0.143965 0.44976,0.263885 0.596299,0.498636 0.569915,0.912995 -0.01606,0.252404 -0.158919,0.568984 -0.55305,1.225666 -0.533125,0.88827 -0.665086,1.013077 -1.110962,1.050714 -0.184325,0.01556 -0.234852,0.0055 -0.413239,-0.082 z"
         id="path9034" />
      <path
         style="fill:#00ffff;stroke:none;stroke-width:0.117425"
         d="m 52.991922,96.860579 c -0.325139,-0.151408 -0.488902,-0.460772 -0.392094,-0.740698 0.04883,-0.141195 0.407712,-0.785834 0.603904,-1.084755 0.192619,-0.293481 0.305937,-0.373991 0.551394,-0.391745 0.211119,-0.01527 0.351253,0.03663 0.51876,0.192135 0.250831,0.23286 0.253402,0.416052 0.01246,0.889027 -0.577622,1.133951 -0.827672,1.353399 -1.294437,1.136036 z"
         id="path9036" />
      <path
         style="fill:#ff0000;fill-opacity:1;stroke:#fff6d5;stroke-width:0.0366231"
         d="m 52.646733,100.13519 c -0.06016,-0.0918 -0.02591,-0.237297 0.06135,-0.260677 0.03742,-0.01 0.06196,0.0133 0.08317,0.0792 0.02953,0.0917 0.132099,0.141887 0.166851,0.0817 0.0097,-0.0168 -0.0057,-0.0561 -0.03416,-0.0873 -0.0606,-0.0664 -0.01118,-0.17672 0.07317,-0.16335 0.07324,0.0116 0.129301,-0.0792 0.07002,-0.11344 -0.0243,-0.014 -0.06476,-0.009 -0.08991,0.0115 -0.05269,0.0427 -0.138476,0.005 -0.140484,-0.0624 -0.0049,-0.16486 0.284955,-0.21272 0.403981,-0.0667 0.09687,0.11885 0.0971,0.21364 8.18e-4,0.33849 -0.04747,0.0616 -0.08674,0.144757 -0.08728,0.184897 -0.0014,0.10208 -0.152123,0.21036 -0.276213,0.19841 -0.125567,-0.0121 -0.161578,-0.034 -0.231307,-0.14032 z m 0.322287,0.0918 c 0.03711,-0.009 0.08797,-0.0584 0.113013,-0.10994 0.02504,-0.0516 0.07073,-0.136317 0.101529,-0.188317 0.09593,-0.16196 0.106854,-0.23926 0.04589,-0.32472 -0.06865,-0.0962 -0.227584,-0.13607 -0.302078,-0.0757 -0.06893,0.0558 -0.04248,0.10586 0.0542,0.10251 0.194185,-0.007 0.2319,0.14648 0.04657,0.18918 l -0.108078,0.0249 0.04308,0.10162 c 0.02773,0.0654 0.0254,0.115937 -0.0065,0.141807 -0.05453,0.0442 -0.17398,-0.007 -0.176028,-0.0751 -0.0022,-0.0735 -0.09571,-0.103237 -0.118397,-0.0377 -0.04681,0.13519 0.142977,0.29072 0.306858,0.25147 z m 0.119435,0.18684 c -0.04407,-0.0511 0.04054,-0.1852 0.10992,-0.1742 0.03135,0.005 0.06596,0.0425 0.07692,0.0834 0.03205,0.1196 -0.104698,0.18606 -0.18684,0.0908 z m 0.137932,-0.0375 c 0.01511,-0.0262 0.0061,-0.0599 -0.02011,-0.075 -0.02617,-0.0151 -0.05994,-0.006 -0.07504,0.0201 -0.01511,0.0262 -0.0061,0.0599 0.02011,0.075 0.02617,0.0151 0.05994,0.006 0.07504,-0.0201 z m 1.54523,0.94109 c -0.02858,-0.0816 -0.02617,-0.13818 0.007,-0.16509 0.05524,-0.0447 0.174867,0.006 0.176931,0.0743 0.0026,0.0858 0.09251,0.0961 0.138807,0.0159 0.04281,-0.0742 0.03611,-0.0848 -0.09359,-0.14919 l -0.139706,-0.0693 0.08795,-0.17467 c 0.109694,-0.21787 0.174948,-0.24444 0.350848,-0.14289 0.175101,0.1011 0.222309,0.16132 0.18165,0.23174 -0.03646,0.0632 -0.112626,0.0602 -0.241292,-0.009 -0.08229,-0.0444 -0.08237,-0.0421 -0.0019,0.0534 0.180115,0.21388 0.02897,0.5453 -0.236997,0.51967 -0.141271,-0.0136 -0.180983,-0.0456 -0.229723,-0.18474 z m 0.326165,0.13542 c 0.09208,-0.0222 0.206107,-0.2199 0.180944,-0.31377 -0.01072,-0.04 -0.05199,-0.0987 -0.09169,-0.13051 -0.113663,-0.0909 -0.05624,-0.17975 0.07693,-0.11901 0.167278,0.0763 0.199008,-0.022 0.04162,-0.12895 -0.156776,-0.10651 -0.233748,-0.0811 -0.325158,0.10726 l -0.0693,0.14285 0.126866,0.0732 c 0.114886,0.0663 0.12305,0.082 0.08646,0.16645 -0.04839,0.11162 -0.152061,0.10998 -0.212357,-0.003 -0.0429,-0.0806 -0.126199,-0.0847 -0.121617,-0.006 0.0085,0.14676 0.155865,0.2483 0.307299,0.2118 z m 0.534669,0.39991 c -0.01387,-0.0812 0.06161,-0.13534 0.332145,-0.23818 0.09967,-0.0379 0.190661,-0.0853 0.202212,-0.10527 0.03087,-0.0535 -0.06848,-0.0987 -0.12186,-0.0554 -0.05536,0.0448 -0.163228,-0.01 -0.153625,-0.0781 0.0038,-0.0269 -0.01112,-0.0212 -0.03313,0.0126 -0.02201,0.0338 -0.135444,0.12056 -0.252075,0.19277 -0.149068,0.0923 -0.234992,0.12208 -0.28927,0.10024 -0.08514,-0.0343 -0.06554,-0.10485 0.04884,-0.17589 0.0514,-0.0319 0.05803,-0.0586 0.02969,-0.11935 -0.06184,-0.13267 -0.03045,-0.28036 0.07715,-0.36291 0.170364,-0.13073 0.436991,-0.0139 0.436303,0.19116 -2.42e-4,0.072 0.0045,0.074 0.08716,0.0363 0.18832,-0.0858 0.428267,0.1101 0.372857,0.30447 -0.028,0.0982 -0.169705,0.2087 -0.295171,0.23013 -0.103268,0.0176 -0.112185,0.0511 -0.03383,0.12701 0.07686,0.0745 0.03569,0.19034 -0.06211,0.17484 -0.116224,-0.0184 -0.3336,-0.166 -0.345282,-0.23441 z m 0.391696,0.16001 c 0.01635,-0.0283 -0.0055,-0.072 -0.05396,-0.10797 -0.04478,-0.0332 -0.07698,-0.0681 -0.07154,-0.0775 0.0054,-0.009 0.087,-0.0477 0.181247,-0.085 0.186899,-0.0741 0.275873,-0.18569 0.243712,-0.30571 -0.03874,-0.14459 -0.285241,-0.21749 -0.350893,-0.10378 -0.03051,0.0528 0.03569,0.0971 0.113908,0.0761 0.07109,-0.019 0.142899,0.065 0.107662,0.12608 -0.01452,0.0252 -0.125186,0.085 -0.245927,0.13298 -0.321025,0.12759 -0.343643,0.19896 -0.101001,0.3187 0.106463,0.0525 0.157212,0.06 0.176795,0.0261 z m -0.431317,-0.46722 c 0.115731,-0.0764 0.224671,-0.16369 0.24209,-0.19385 0.05333,-0.0924 0.0059,-0.25883 -0.08943,-0.31387 -0.195921,-0.11311 -0.403141,0.0939 -0.316054,0.31577 0.04022,0.10245 0.03636,0.1277 -0.02538,0.16605 -0.09855,0.0612 -0.120856,0.10762 -0.06674,0.13886 0.0248,0.0143 0.139788,-0.0365 0.255518,-0.11296 z m -0.06071,-0.30005 c 0.01456,-0.0919 0.09923,-0.14422 0.155035,-0.0959 0.03121,0.027 0.03273,0.0717 0.0041,0.12124 -0.0522,0.0904 -0.174439,0.0709 -0.159176,-0.0254 z m 0.143318,0.0162 c 0.02035,-0.0352 0.01548,-0.0756 -0.01095,-0.0909 -0.02643,-0.0153 -0.06385,7.2e-4 -0.0842,0.036 -0.02035,0.0352 -0.01548,0.0756 0.01095,0.0909 0.02643,0.0153 0.06385,-7.3e-4 0.0842,-0.036 z m -2.207748,-0.66851 c -0.0049,-0.0183 0.04737,-0.13088 0.116192,-0.25008 0.09902,-0.1715 0.115201,-0.22246 0.07755,-0.24419 -0.02617,-0.0151 -0.03237,-0.0538 -0.01379,-0.086 0.07412,-0.128367 0.352994,-0.0944 0.331629,0.0404 -0.0053,0.0337 -0.07429,0.17313 -0.153211,0.30983 -0.07892,0.1367 -0.165194,0.26612 -0.191714,0.2876 -0.04858,0.0393 -0.15009,0.004 -0.16666,-0.0575 z m 0.317142,-0.24739 c 0.151239,-0.24398 0.171253,-0.29359 0.136014,-0.3371 -0.02273,-0.0281 -0.07273,-0.0498 -0.111127,-0.0483 -0.09504,0.004 -0.163266,0.0877 -0.100577,0.12386 0.04052,0.0234 0.02638,0.0695 -0.07523,0.24554 -0.06882,0.1192 -0.120982,0.2322 -0.115913,0.25112 0.02589,0.0966 0.103732,0.028 0.266832,-0.23508 z m 0.207002,0.53596 c 0.01007,-0.0174 -0.0162,-0.0516 -0.05839,-0.076 -0.211781,-0.12227 -0.172688,-0.22425 0.172879,-0.45099 0.171684,-0.11265 0.256381,-0.14695 0.300293,-0.1216 0.08964,0.0518 0.07707,0.11027 -0.03977,0.18515 -0.12847,0.0823 -0.13544,0.0943 -0.0752,0.12908 0.02837,0.0164 0.03352,0.0718 0.01246,0.13406 -0.01975,0.0584 -0.02342,0.11335 -0.0082,0.12216 0.04643,0.0268 -0.02124,0.1085 -0.11822,0.14271 -0.09499,0.0335 -0.217892,-0.009 -0.185912,-0.0646 z m 0.180458,0.0186 c 0.07294,-0.0235 0.09146,-0.0444 0.07937,-0.0895 -0.0087,-0.0324 -9.37e-4,-0.0845 0.01719,-0.11594 0.04493,-0.0778 -0.05513,-0.12861 -0.121339,-0.0616 -0.02927,0.0296 -0.07296,0.0425 -0.09709,0.0285 -0.05831,-0.0337 -0.05186,-0.0412 0.145285,-0.16985 0.184945,-0.12069 0.255335,-0.20722 0.182106,-0.22386 -0.06411,-0.0146 -0.478897,0.26519 -0.516183,0.34814 -0.02149,0.0478 -0.0045,0.086 0.05898,0.13246 0.04904,0.0359 0.09511,0.0863 0.102391,0.11198 0.01917,0.0676 0.04289,0.0739 0.149283,0.0396 z m 0.229721,0.19584 c 0.0055,-0.0348 0.05881,-0.1478 0.11841,-0.25104 0.08412,-0.1457 0.09773,-0.19385 0.0608,-0.21517 -0.06728,-0.0388 0.0025,-0.14073 0.11259,-0.16443 0.05093,-0.011 0.123162,0.004 0.160523,0.0333 0.06623,0.0519 0.06313,0.0615 -0.124343,0.38621 -0.182027,0.31528 -0.196154,0.33146 -0.265143,0.30376 -0.04298,-0.0173 -0.06875,-0.0552 -0.06283,-0.0926 z m 0.302599,-0.21938 c 0.149043,-0.24043 0.17095,-0.29396 0.137313,-0.33549 -0.02391,-0.0295 -0.08231,-0.0381 -0.145081,-0.0213 -0.09479,0.0254 -0.100998,0.0332 -0.0635,0.0795 0.03325,0.0411 0.01694,0.094 -0.08161,0.26465 -0.06774,0.11733 -0.119023,0.22881 -0.113954,0.24773 0.02589,0.0966 0.103732,0.028 0.266832,-0.23509 z m -2.603685,-2.890917 c 0.02689,0.004 0.06257,0.0244 0.07929,0.0458 0.01673,0.0214 -0.0053,0.0183 -0.04888,-0.007 -0.04361,-0.0252 -0.05729,-0.0427 -0.03041,-0.0389 z m -0.219067,-0.16991 c 0.03513,0.01 0.08509,0.0385 0.111007,0.0641 0.02592,0.0256 -0.0028,0.0177 -0.06388,-0.0175 -0.06105,-0.0353 -0.08226,-0.0562 -0.04713,-0.0465 z m 0.492886,0.27013 c 0.232317,0.079 0.412693,0.089 0.64883,0.0359 0.239359,-0.0538 0.248121,-0.0419 0.137089,0.18652 l -0.06421,0.13209 0.475749,0.27467 0.475748,0.27467 2.45147,-4.209054 2.451471,-4.209045 -2.430302,4.227314 c -2.201892,3.830025 -2.436063,4.226415 -2.491585,4.217615 -0.03371,-0.005 -0.251628,-0.11961 -0.48427,-0.25392 -0.232641,-0.13432 -0.440559,-0.26591 -0.462039,-0.29243 -0.02753,-0.034 -0.01496,-0.0899 0.04262,-0.18967 l 0.08167,-0.14146 -0.207654,0.0341 c -0.231498,0.038 -0.554981,-10e-4 -0.684394,-0.0829 -0.06498,-0.0411 -0.05096,-0.0421 0.05981,-0.004 z m 2.966305,1.72489 c 0.104586,0.052 0.261549,0.14267 0.348809,0.201547 0.08726,0.0589 0.0017,0.0164 -0.190155,-0.0945 -0.191849,-0.11085 -0.263237,-0.15904 -0.158652,-0.10707 z m -3.746566,-2.30207 c -0.222036,-0.33612 -0.275203,-0.73273 -0.165737,-1.23636 0.03689,-0.16971 0.122213,-0.343477 0.477273,-0.971971 l 0.432355,-0.76531 -0.41628,0.774591 c -0.433677,0.80697 -0.49433,0.96592 -0.515718,1.35152 -0.02086,0.37607 0.05993,0.63581 0.290924,0.93533 0.07459,0.0967 0.112719,0.16308 0.08474,0.14748 -0.02798,-0.0156 -0.11238,-0.12148 -0.187557,-0.23528 z m 3.460988,2.09819 c 0.02689,0.004 0.06257,0.0244 0.07929,0.0458 0.01673,0.0214 -0.0053,0.0183 -0.04888,-0.007 -0.04361,-0.0252 -0.0573,-0.0427 -0.03041,-0.0389 z m 1.023564,0.539517 c 0.121147,0.0246 0.297789,0.04 0.392537,0.0343 l 0.17227,-0.0105 -0.05153,0.0892 c -0.02834,0.0491 -0.04429,0.11627 -0.03545,0.14929 0.02374,0.0886 0.736755,0.49514 0.816592,0.46559 0.04117,-0.0152 0.298411,-0.42926 0.82671,-1.330547 l 0.766948,-1.30842 -0.765452,1.34328 c -0.74056,1.299587 -0.768063,1.343187 -0.845755,1.340687 -0.04417,-0.001 -0.244356,-0.0973 -0.444864,-0.21307 -0.385323,-0.22246 -0.44868,-0.29498 -0.372701,-0.42658 0.03083,-0.0534 0.01204,-0.06 -0.202052,-0.0712 -0.129822,-0.007 -0.290374,-0.0336 -0.356781,-0.0596 -0.08026,-0.0314 -0.04688,-0.0322 0.09953,-0.002 z m 2.997524,1.77972 c 0.28975,0.156 0.368469,0.1855 0.429,0.16079 0.06878,-0.0281 0.07068,-0.0262 0.02635,0.0267 -0.04457,0.0532 -0.07342,0.0423 -0.429,-0.1608 l -0.381215,-0.21779 0.354866,0.19107 z m -4.269995,-2.586257 c -0.144682,-0.21849 -0.223284,-0.57432 -0.182214,-0.82488 0.03535,-0.21569 0.283711,-0.73374 0.415349,-0.86639 0.06155,-0.062 0.02148,0.0257 -0.137568,0.30117 -0.209194,0.36234 -0.22597,0.40585 -0.247535,0.64209 -0.02745,0.30071 0.05939,0.59491 0.24241,0.8212 0.0698,0.0863 0.104308,0.14487 0.07668,0.13013 -0.02763,-0.0147 -0.102832,-0.10623 -0.167122,-0.20332 z m 3.695467,2.133867 c -0.181787,-0.28532 -0.168005,-0.72764 0.03282,-1.05348 0.07939,-0.1288 0.07877,-0.12132 -0.0065,0.0779 -0.109855,0.25672 -0.136286,0.39243 -0.119006,0.61103 0.01245,0.15748 0.122933,0.38418 0.256618,0.52653 0.05209,0.0555 0.05359,0.0655 0.0059,0.0392 -0.03529,-0.0195 -0.111696,-0.10999 -0.169801,-0.20119 z m -2.434904,-2.300657 c 0.07799,0.0361 0.199309,0.10617 0.269591,0.15565 0.07028,0.0495 0.0065,0.0199 -0.141805,-0.0657 -0.148275,-0.0856 -0.205779,-0.12609 -0.127786,-0.09 z m -0.328386,-0.29674 c -0.119247,-0.24423 0.0027,-0.55557 0.257535,-0.65756 0.159557,-0.0638 0.403226,0.0275 0.936999,0.35136 l 0.454119,0.27551 -0.162552,0.30274 c -0.136286,0.25381 -0.177668,0.30773 -0.256107,0.33372 -0.113484,0.0376 -0.321675,0.0155 -0.418701,-0.0444 -0.03913,-0.0242 0.0072,-0.023 0.102931,0.003 0.29222,0.078 0.34001,0.0519 0.539805,-0.29411 l 0.172635,-0.29901 -0.553262,-0.30522 c -0.452373,-0.24957 -0.577688,-0.30581 -0.687214,-0.30845 -0.177498,-0.004 -0.341079,0.1427 -0.390332,0.35071 -0.03968,0.16756 -0.02057,0.23531 0.109574,0.38843 0.06189,0.0728 0.07131,0.0986 0.0272,0.0743 -0.03711,-0.0204 -0.09679,-0.0971 -0.132626,-0.17054 z m 4.212967,2.424287 c 0.0068,-0.043 -0.03567,-0.0859 -0.151544,-0.15275 -0.128924,-0.0744 -0.167617,-0.11759 -0.194114,-0.21648 l -0.03309,-0.12351 0.581189,-0.987287 0.581189,-0.98729 0.227205,0.11919 c 0.168352,0.0883 0.246355,0.11144 0.301134,0.0893 0.06839,-0.0277 0.07035,-0.0256 0.02618,0.0271 -0.04217,0.0503 -0.07704,0.0415 -0.298553,-0.0754 l -0.250808,-0.13245 -0.566888,0.98188 c -0.542473,0.939587 -0.565735,0.986177 -0.540078,1.081927 0.02035,0.0759 0.0691,0.12447 0.202246,0.20135 0.128865,0.0744 0.172921,0.11716 0.165961,0.16107 -0.0052,0.0329 -0.02073,0.0628 -0.03449,0.0665 -0.01376,0.004 -0.02075,-0.0202 -0.01554,-0.0531 z m -7.073718,-4.093227 c 0.261242,0.12274 0.358856,0.14629 0.501337,0.12096 0.277694,-0.0494 0.330432,-0.10436 0.752764,-0.78505 l 0.386359,-0.622717 -0.36978,0.632297 c -0.358379,0.61279 -0.374726,0.6352 -0.530188,0.727 -0.217582,0.12848 -0.462772,0.11892 -0.699252,-0.0273 -0.137307,-0.0849 -0.14606,-0.0945 -0.04124,-0.0452 z m -0.285788,-0.3119 c -0.05663,-0.16714 -0.06594,-0.36205 -0.02088,-0.43714 0.01347,-0.0225 0.01788,0.0315 0.0098,0.11985 -0.01647,0.18006 0.02612,0.34867 0.117253,0.46423 0.0412,0.0522 0.04297,0.0678 0.0055,0.048 -0.03056,-0.0162 -0.0808,-0.10388 -0.11164,-0.19492 z m 0.334285,-1.111687 c 0.335443,-0.594429 0.358466,-0.627222 0.519683,-0.740241 0.188593,-0.13221 0.383108,-0.166784 0.554743,-0.0986 l 0.114692,0.04556 -0.130699,-0.02999 c -0.07188,-0.01649 -0.193235,-0.01525 -0.269667,0.0027 -0.281706,0.06635 -0.321771,0.109388 -0.746963,0.802361 l -0.392781,0.640147 z m 2.249205,1.730367 c 0.04816,-0.0868 0.290926,-0.21136 0.506214,-0.25976 0.251367,-0.0565 0.515394,-0.0372 0.726015,0.053 0.134047,0.0574 0.131913,0.0579 -0.04277,0.01 -0.419471,-0.11593 -0.784084,-0.068 -1.077042,0.14156 -0.07444,0.0533 -0.125022,0.0782 -0.112414,0.0555 z m 2.017042,0.19409 0.635749,0.35415 0.0928,-0.19143 c 0.173182,-0.35725 0.08387,-0.59328 -0.331806,-0.87691 l -0.257869,-0.17595 0.240374,0.13301 c 0.473082,0.26178 0.597379,0.65212 0.328118,1.03043 l -0.07323,0.10289 -0.634943,-0.36518 -0.634942,-0.36517 0.635747,0.35416 z m -2.673691,-1.941627 c 0.07717,-0.220205 -0.0094,-0.501549 -0.18866,-0.613445 -0.03932,-0.02454 -0.04876,-0.04136 -0.02099,-0.03739 0.212293,0.03037 0.365757,0.601995 0.200667,0.747445 -0.01979,0.0174 -0.01575,-0.026 0.009,-0.0966 z M 52.42161,94.452958 c 0.03111,-0.04988 0.0893,-0.119361 0.129298,-0.154414 0.04905,-0.04298 0.03695,-0.01554 -0.03715,0.08427 -0.123611,0.166514 -0.178188,0.208053 -0.09215,0.07014 z m 6.558325,3.663125 c 0.03086,-0.052 0.04811,-0.0654 0.03834,-0.0299 -0.0098,0.0355 -0.03503,0.078 -0.05611,0.0945 -0.02109,0.0165 -0.01309,-0.0126 0.01777,-0.0645 z m -2.542263,-1.79413 c -0.09654,-0.266097 -0.127756,-0.407447 -0.100416,-0.454807 0.116212,-0.20128 1.079469,-0.16604 1.42878,0.0523 0.06106,0.0382 0.03023,0.0347 -0.0894,-0.0102 -0.476625,-0.17858 -1.20714,-0.19792 -1.301513,-0.0345 -0.038,0.0658 0.201984,0.790567 0.27591,0.833257 0.02443,0.0141 0.137415,0.0326 0.251086,0.0412 0.113671,0.009 0.254278,0.032 0.312459,0.0521 0.05818,0.0201 -0.0053,0.019 -0.141004,-0.002 -0.135733,-0.0214 -0.271187,-0.0323 -0.301009,-0.0243 -0.118122,0.0316 -0.19864,-0.0772 -0.334895,-0.45272 z m 2.590922,1.62811 c 0.05993,-0.11682 0.05181,-0.56053 -0.01424,-0.77775 -0.122095,-0.40156 -0.345572,-0.67363 -0.839401,-1.02193 l -0.295186,-0.208207 0.309776,0.195917 c 0.483083,0.30553 0.750772,0.6285 0.870131,1.04984 0.06684,0.23595 0.05533,0.72551 -0.01842,0.78326 -0.02603,0.0204 -0.0303,0.0132 -0.01266,-0.0211 z m -6.3735,-3.760513 c 0.01471,-0.0264 0.120587,-0.112935 0.23529,-0.192306 0.350506,-0.24254 0.845296,-0.326335 1.174654,-0.198933 0.118053,0.04567 0.117501,0.04595 -0.03148,0.01615 -0.484659,-0.09694 -0.838187,-0.01419 -1.229866,0.287868 -0.09643,0.07437 -0.163302,0.113617 -0.148595,0.08722 z m 6.925411,4.009223 c -0.08291,-0.0568 -0.160232,-0.12888 -0.17182,-0.16019 -0.02933,-0.0793 0.385046,-0.79864 0.467757,-0.81204 0.06912,-0.0112 0.410457,0.14982 0.390548,0.18424 -0.0076,0.0131 -0.09072,-0.0207 -0.184801,-0.075 -0.126715,-0.0732 -0.183545,-0.0886 -0.219265,-0.0597 -0.02652,0.0215 -0.12927,0.17944 -0.228336,0.35103 -0.09907,0.17159 -0.184492,0.33956 -0.189834,0.37326 -0.0072,0.0454 0.03462,0.0869 0.161334,0.16004 0.09408,0.0543 0.162808,0.11303 0.152737,0.13047 -0.01007,0.0174 -0.0204,0.0271 -0.02294,0.0214 -0.0025,-0.006 -0.07247,-0.0568 -0.15538,-0.11355 z m -5.413001,-3.206328 c 0.02689,0.0038 0.06257,0.02439 0.07929,0.04578 0.01673,0.02139 -0.0053,0.01829 -0.04888,-0.0069 -0.04361,-0.02518 -0.05729,-0.04268 -0.03041,-0.03889 z m 0.82673,-0.297174 c -0.03591,-0.109316 -0.108274,-0.264147 -0.160807,-0.344068 -0.05253,-0.07992 -0.06536,-0.115135 -0.02851,-0.07826 0.08604,0.0861 0.201503,0.307329 0.228988,0.438754 0.01178,0.05634 0.03348,0.109393 0.04822,0.117903 0.01474,0.0085 0.8829,-1.467334 1.929244,-3.279655 1.717887,-2.975468 1.908388,-3.294186 1.963727,-3.285415 0.07981,0.01265 0.895446,0.483556 0.946308,0.546352 0.03074,0.03795 0.01023,0.09814 -0.09632,0.282697 -0.07446,0.128965 -0.127766,0.238876 -0.118462,0.244247 0.0093,0.0054 0.0939,-0.01086 0.187988,-0.03607 0.361916,-0.09698 0.873357,-0.07616 1.063469,0.04329 0.03883,0.0244 -0.0108,0.02053 -0.11028,-0.0086 -0.282402,-0.08266 -0.55822,-0.0853 -0.891421,-0.0085 -0.206229,0.04751 -0.303515,0.05364 -0.297203,0.01871 0.0052,-0.02856 0.06318,-0.154075 0.12893,-0.278926 l 0.119544,-0.227002 -0.475748,-0.274674 -0.475749,-0.274673 -1.91165,3.292421 c -1.051407,1.810831 -1.928149,3.296432 -1.948315,3.301334 -0.02017,0.0049 -0.06605,-0.08053 -0.101958,-0.189844 z m 6.678488,3.625982 c 0.0068,-0.0427 -0.05077,-0.096 -0.216887,-0.20105 l -0.226087,-0.143 0.518041,-0.91671 c 0.379643,-0.67181 0.527736,-0.91112 0.55433,-0.89577 0.01996,0.0115 0.06359,0.10545 0.09695,0.20872 0.100247,0.31029 0.31623,0.5856 0.614951,0.78384 0.829611,0.55056 1.732895,0.4446 2.426149,-0.28462 0.280387,-0.29494 0.883189,-1.258047 1.176488,-1.879691 0.549344,-1.164334 0.411256,-1.986135 -0.440042,-2.618813 -0.342127,-0.254266 -0.84325,-0.359552 -1.27555,-0.267993 -0.131296,0.02781 -0.254463,0.04147 -0.273705,0.03036 -0.02486,-0.01435 0.158283,-0.35495 0.633038,-1.177249 l 0.668023,-1.15705 -0.06113,-0.05892 c -0.03362,-0.0324 -0.234788,-0.153668 -0.447034,-0.269473 l -0.385902,-0.210553 -2.204347,3.780824 -2.204349,3.780838 2.197642,-3.805855 2.197641,-3.80584 0.417598,0.2289 c 0.229679,0.125895 0.445117,0.255398 0.478751,0.287785 l 0.06115,0.05888 -0.658867,1.141192 c -0.362368,0.62766 -0.650345,1.146112 -0.639938,1.15212 0.01041,0.006 0.11642,-0.0087 0.235587,-0.03259 0.64452,-0.129436 1.366538,0.190629 1.779281,0.788739 0.219385,0.317914 0.306525,0.658628 0.27759,1.085369 -0.03224,0.475412 -0.133104,0.751883 -0.563955,1.545746 -0.628634,1.158294 -1.02691,1.638794 -1.582121,1.908744 -0.534493,0.25988 -1.14193,0.21814 -1.723087,-0.11839 -0.39155,-0.22673 -0.614816,-0.47723 -0.739003,-0.82914 -0.0355,-0.10058 -0.0732,-0.18788 -0.08379,-0.194 -0.01059,-0.006 -0.240003,0.38 -0.509806,0.85804 l -0.490551,0.86914 0.226087,0.143 c 0.166119,0.10507 0.223647,0.1584 0.216887,0.20105 -0.0051,0.0319 -0.02046,0.0611 -0.03421,0.0647 -0.01376,0.004 -0.02087,-0.0194 -0.01581,-0.0513 z M 54.66428,94.136582 c 0.02819,0.0041 0.05489,0.02098 0.05935,0.0376 0.0045,0.01662 -0.01861,0.01331 -0.05125,-0.0074 -0.03607,-0.02286 -0.03925,-0.03471 -0.0081,-0.03023 z m -0.36427,-0.254233 c 0.06035,0.0255 0.160323,0.08307 0.222163,0.127927 0.06184,0.04486 0.01246,0.02399 -0.109727,-0.04636 -0.122182,-0.07037 -0.172787,-0.107061 -0.112437,-0.08156 z M 52.964561,91.41056 c -0.594733,-0.481111 -0.817187,-1.11902 -0.651512,-1.868271 0.158823,-0.718263 1.07891,-2.311901 1.621533,-2.808578 0.642968,-0.588525 1.415198,-0.672505 2.171065,-0.236105 0.412822,0.238343 0.711293,0.610548 0.839522,1.046917 l 0.04636,0.157757 0.652345,-1.129894 c 0.568625,-0.984888 0.662434,-1.132597 0.73096,-1.150959 0.0641,-0.01718 0.16193,0.02704 0.529897,0.239482 0.308708,0.178233 0.456363,0.279514 0.467367,0.320582 0.02334,0.08711 -3.805926,6.719598 -3.893038,6.742939 -0.04121,0.01104 -0.205225,-0.06774 -0.523095,-0.251262 -0.317871,-0.183523 -0.468106,-0.286173 -0.479148,-0.327383 -0.0088,-0.03302 0.0292,-0.138478 0.08456,-0.234353 l 0.100644,-0.17432 -0.15879,0.03698 c -0.2822,0.06572 -0.47945,0.07459 -0.700856,0.03149 -0.253847,-0.04941 -0.62954,-0.226547 -0.837808,-0.395026 z m 0.741963,0.333059 c 0.233586,0.06584 0.451027,0.06257 0.755538,-0.01136 l 0.284995,-0.06919 -0.119571,0.207102 c -0.07959,0.137854 -0.111913,0.227792 -0.09667,0.268981 0.01553,0.04196 0.171191,0.143708 0.48356,0.316079 l 0.460658,0.254198 1.928811,-3.322149 c 1.409987,-2.428535 1.925884,-3.339288 1.917933,-3.38586 -0.01457,-0.08535 -0.848385,-0.572692 -0.938523,-0.54854 -0.04449,0.01192 -0.232162,0.314222 -0.724743,1.167397 -0.365591,0.633221 -0.673413,1.146286 -0.68405,1.140145 -0.01064,-0.0061 -0.05569,-0.125943 -0.100126,-0.266227 -0.134008,-0.423104 -0.382102,-0.728116 -0.781282,-0.960529 -0.638561,-0.371785 -1.321602,-0.353344 -1.901935,0.05135 -0.400324,0.279167 -0.553191,0.480199 -1.146252,1.507409 -0.592768,1.026705 -0.690727,1.26018 -0.732233,1.745201 -0.02775,0.324319 0.0548,0.751179 0.191904,0.992246 0.234311,0.411992 0.713076,0.77595 1.201984,0.913752 z m 0.117886,-1.108601 c -0.263568,-0.236019 -0.371537,-0.585546 -0.300242,-0.971976 0.01814,-0.09832 0.163536,-0.376788 0.510617,-0.977949 0.547215,-0.947804 0.62714,-1.043375 0.97532,-1.166246 0.318989,-0.11257 0.479045,-0.08737 0.866741,0.136467 0.264091,0.152474 0.348935,0.217776 0.409896,0.315487 0.107592,0.172455 0.161405,0.366177 0.155801,0.560873 -0.0046,0.16057 -0.02528,0.201889 -0.590758,1.18132 -0.569936,0.987158 -0.589968,1.017415 -0.732095,1.105747 -0.376728,0.23414 -0.913693,0.157976 -1.29528,-0.183723 z m 0.752295,0.279951 c 0.116768,0.0096 0.274295,-0.0085 0.35006,-0.0401 0.284565,-0.118837 0.351245,-0.204692 0.908202,-1.169369 0.58645,-1.015762 0.625762,-1.121806 0.537701,-1.450457 -0.122148,-0.455861 -0.782677,-0.845474 -1.238407,-0.730474 -0.39871,0.100612 -0.576407,0.291166 -1.072,1.149557 -0.516952,0.895387 -0.599582,1.159934 -0.476124,1.524332 0.129929,0.383495 0.539086,0.679452 0.990568,0.716511 z m 5.069908,4.215601 c -0.01223,-0.04562 0.312417,-0.629019 1.352311,-2.430167 1.219581,-2.112377 1.376946,-2.372424 1.447012,-2.391198 0.115571,-0.03097 0.947715,0.449472 0.978682,0.565043 0.01877,0.07006 -0.12775,0.336371 -1.347332,2.448748 -1.039893,1.801148 -1.382809,2.37399 -1.42843,2.38622 -0.04121,0.011 -0.205225,-0.0677 -0.523096,-0.251264 C 59.80789,95.27443 59.657655,95.17178 59.646613,95.13057 Z m 1.014637,0.527366 c 0.02652,-0.0215 0.65567,-1.091193 1.398113,-2.377141 1.025503,-1.776224 1.34603,-2.352514 1.333809,-2.398121 -0.02238,-0.08351 -0.855301,-0.564399 -0.93881,-0.542023 -0.04561,0.01222 -0.384426,0.57795 -1.409929,2.354174 -0.742443,1.285949 -1.354267,2.365666 -1.359609,2.399372 -0.0083,0.05206 0.06087,0.102038 0.459248,0.332039 0.398374,0.23 0.476219,0.26488 0.517178,0.2317 z m 2.445319,0.33021 c -0.155069,-0.12177 -0.252333,-0.28268 -0.307691,-0.509033 l -0.03775,-0.154355 0.672848,-1.186225 0.672849,-1.186226 0.135917,-0.06636 c 0.271918,-0.132764 0.554396,-0.101007 0.906563,0.101919 0.315427,0.181773 0.475674,0.371218 0.550662,0.651075 0.106465,0.397332 0.0718,0.499779 -0.510111,1.507682 -0.493379,0.854563 -0.494781,0.856623 -0.677161,0.98369 -0.213259,0.1486 -0.464185,0.22502 -0.661242,0.2014 -0.173473,-0.0208 -0.562142,-0.20006 -0.744884,-0.343567 z m 0.774263,0.295137 c 0.243379,0.0132 0.515931,-0.0807 0.689264,-0.237457 0.06459,-0.0584 0.276713,-0.37914 0.540563,-0.817294 0.572928,-0.951415 0.660775,-1.208867 0.544355,-1.595318 -0.08942,-0.296813 -0.169953,-0.388305 -0.519387,-0.590051 -0.291231,-0.168142 -0.335223,-0.183435 -0.537991,-0.187016 -0.39693,-0.007 -0.365822,-0.04207 -1.116512,1.258167 -0.711667,1.232642 -0.719502,1.251598 -0.611711,1.479572 0.103552,0.21901 0.240686,0.35629 0.518192,0.518747 0.234789,0.13745 0.300518,0.16019 0.493227,0.17065 z m -4.834998,-5.825711 c 0.03086,-0.05196 0.04811,-0.06542 0.03834,-0.02992 -0.0098,0.0355 -0.03502,0.07802 -0.05611,0.09447 -0.02109,0.01646 -0.01309,-0.01259 0.01777,-0.06455 z m 0.109625,-0.129301 c 0.01527,-0.02733 0.107445,-0.09139 0.204834,-0.142337 0.212258,-0.11105 0.494323,-0.12169 0.698538,-0.02635 0.08096,0.0378 0.11497,0.05862 0.07558,0.04628 -0.265861,-0.08332 -0.371961,-0.09439 -0.546955,-0.05707 -0.10874,0.02319 -0.256671,0.08424 -0.328735,0.135667 -0.07206,0.05143 -0.118532,0.07114 -0.103262,0.04381 z M 60.8059,90.84272 c -0.02706,-0.11525 -0.175273,-0.309817 -0.338555,-0.444431 l -0.07163,-0.05905 0.08573,0.04374 c 0.118587,0.0605 0.283396,0.26049 0.354009,0.429578 0.03249,0.07781 0.07581,0.151129 0.09626,0.162935 0.05891,0.03401 1.054288,-0.415793 1.082953,-0.489384 0.01453,-0.03731 -0.03122,-0.167293 -0.107625,-0.305767 -0.135857,-0.246221 -0.143624,-0.301405 -0.01466,-0.104179 0.124569,0.190511 0.190236,0.381015 0.153357,0.444892 -0.05517,0.09555 -1.049346,0.51053 -1.137221,0.474683 -0.04417,-0.01802 -0.08533,-0.07938 -0.102611,-0.15301 z m -0.512005,-0.601795 c 0.02689,0.0038 0.06257,0.02439 0.07929,0.04578 0.01673,0.02139 -0.0053,0.01829 -0.04888,-0.0069 -0.04361,-0.02518 -0.05729,-0.04268 -0.03041,-0.03889 z m 1.326313,-0.461507 c 0.02818,0.0041 0.05489,0.02098 0.05935,0.0376 0.0045,0.01662 -0.01861,0.01331 -0.05125,-0.0074 -0.03607,-0.02286 -0.03925,-0.03471 -0.0081,-0.03023 z m -0.398113,-0.28554 -0.178144,-0.130922 0.160606,0.08805 c 0.08833,0.04843 0.210877,0.132824 0.272321,0.187542 0.09073,0.0808 0.09403,0.08885 0.01754,0.04287 -0.0518,-0.03114 -0.174342,-0.115534 -0.272322,-0.187541 z"
         id="path9038" />
    </g>
  </g>
</svg>
