<?xml version="1.0" encoding="UTF-8" standalone="no"?>
<svg
   data-name="Layer 1"
   viewBox="0 0 98 95.900002"
   x="0px"
   y="0px"
   version="1.1"
   id="svg8"
   sodipodi:docname="noun-certificate-1191142.svg"
   width="98"
   height="95.900002"
   inkscape:version="1.3.2 (091e20ef0f, 2023-11-25, custom)"
   xmlns:inkscape="http://www.inkscape.org/namespaces/inkscape"
   xmlns:sodipodi="http://sodipodi.sourceforge.net/DTD/sodipodi-0.dtd"
   xmlns="http://www.w3.org/2000/svg"
   xmlns:svg="http://www.w3.org/2000/svg"
   xmlns:rdf="http://www.w3.org/1999/02/22-rdf-syntax-ns#"
   xmlns:cc="http://creativecommons.org/ns#"
   xmlns:dc="http://purl.org/dc/elements/1.1/">
  <defs
     id="defs8" />
  <sodipodi:namedview
     id="namedview8"
     pagecolor="#ffffff"
     bordercolor="#000000"
     borderopacity="0.25"
     inkscape:showpageshadow="2"
     inkscape:pageopacity="0.0"
     inkscape:pagecheckerboard="0"
     inkscape:deskcolor="#d1d1d1"
     inkscape:zoom="4.850006"
     inkscape:cx="40.309229"
     inkscape:cy="46.391696"
     inkscape:window-width="1920"
     inkscape:window-height="1131"
     inkscape:window-x="0"
     inkscape:window-y="0"
     inkscape:window-maximized="1"
     inkscape:current-layer="svg8" />
  <title
     id="title1">Artboard 15</title>
  <path
     d="M 86.89,0 22.67,0.15 A 10.74,10.74 0 0 0 12,10.89 V 70.33 H 2.5 A 2.5,2.5 0 0 0 0,72.83 v 6.22 a 10.74,10.74 0 0 0 10.72,10.73 h 48.74 a 2.5,2.5 0 0 0 0,-5 H 10.72 A 5.73,5.73 0 0 1 5,79.05 v -3.72 h 54.46 a 2.5,2.5 0 1 0 0,-5 H 17 V 10.89 A 5.74,5.74 0 0 1 22.72,5.16 L 77.66,5.03 a 11,11 0 0 0 -1.83,6.09 v 13.55 a 2.5,2.5 0 0 0 5,0 V 11.11 A 6.12,6.12 0 0 1 86.94,5 V 5 A 6.12,6.12 0 0 1 93,11.11 v 3.34 h -5.46 a 2.5,2.5 0 0 0 0,5 h 8 A 2.5,2.5 0 0 0 98,16.95 V 11.11 A 11.12,11.12 0 0 0 86.89,0 Z"
     id="path1" />
  <path
     d="m 60.74,62.05 a 3.17,3.17 0 0 1 1.89,2.21 8.1,8.1 0 0 0 4.43,5.59 8.57,8.57 0 0 0 7.56,0 3.65,3.65 0 0 1 3.18,0 8.58,8.58 0 0 0 7.56,0 8.09,8.09 0 0 0 4.43,-5.59 3.17,3.17 0 0 1 1.89,-2.21 8.08,8.08 0 0 0 4.78,-5.68 7.83,7.83 0 0 0 -1.81,-7 2.91,2.91 0 0 1 -0.65,-2.64 7.83,7.83 0 0 0 -1.44,-6.92 8.45,8.45 0 0 0 -6.88,-3.2 3.42,3.42 0 0 1 -2.82,-1.27 8.57,8.57 0 0 0 -13.29,0 3.51,3.51 0 0 1 -2.82,1.27 8.43,8.43 0 0 0 -6.88,3.2 7.83,7.83 0 0 0 -1.44,6.92 2.91,2.91 0 0 1 -0.65,2.68 7.84,7.84 0 0 0 -1.81,7 8.09,8.09 0 0 0 4.77,5.64 z m 0.78,-9.34 a 7.9,7.9 0 0 0 1.73,-7.27 2.85,2.85 0 0 1 0.53,-2.49 3.43,3.43 0 0 1 2.83,-1.29 8.6,8.6 0 0 0 6.85,-3.16 3.57,3.57 0 0 1 5.47,0 v 0 a 8.59,8.59 0 0 0 6.85,3.15 3.43,3.43 0 0 1 2.84,1.3 2.85,2.85 0 0 1 0.54,2.54 7.9,7.9 0 0 0 1.73,7.27 2.85,2.85 0 0 1 0.68,2.56 3.14,3.14 0 0 1 -1.88,2.18 8.18,8.18 0 0 0 -4.8,5.77 3.12,3.12 0 0 1 -1.73,2.14 3.6,3.6 0 0 1 -3.18,0 8.69,8.69 0 0 0 -7.55,0 3.6,3.6 0 0 1 -3.18,0 3.13,3.13 0 0 1 -1.73,-2.14 8.18,8.18 0 0 0 -4.8,-5.77 3.14,3.14 0 0 1 -1.88,-2.18 2.85,2.85 0 0 1 0.67,-2.61 z"
     id="path2" />
  <path
     d="m 69.4,74.95 a 2.5,2.5 0 0 0 -2.5,2.5 V 93.4 a 2.5,2.5 0 0 0 4,2 l 5.35,-4.12 5.35,4.12 a 2.5,2.5 0 0 0 4,-2 V 77.59 a 2.5,2.5 0 0 0 -5,0 v 10.72 l -2.85,-2.2 a 2.5,2.5 0 0 0 -3.05,0 l -2.85,2.2 V 77.45 a 2.5,2.5 0 0 0 -2.45,-2.5 z"
     id="path3" />
  <path
     d="m 28.6,21.66 h 35.54 a 2.5,2.5 0 0 0 0,-5 H 28.6 a 2.5,2.5 0 0 0 0,5 z"
     id="path4" />
  <path
     d="m 57.14,31.77 a 2.5,2.5 0 0 0 -2.5,-2.5 h -26 a 2.5,2.5 0 0 0 0,5 h 26 a 2.5,2.5 0 0 0 2.5,-2.5 z"
     id="path5" />
  <path
     d="m 49.23,44.39 a 2.5,2.5 0 0 0 -2.5,-2.5 H 28.6 a 2.5,2.5 0 0 0 0,5 h 18.13 a 2.5,2.5 0 0 0 2.5,-2.5 z"
     id="path6" />
  <path
     d="M 44.81,54.5 H 28.66 a 2.5,2.5 0 0 0 0,5 h 16.15 a 2.5,2.5 0 0 0 0,-5 z"
     id="path7" />
  <metadata
     id="metadata8">
    <rdf:RDF>
      <cc:Work
         rdf:about="">
        <dc:title>Artboard 15</dc:title>
      </cc:Work>
    </rdf:RDF>
  </metadata>
</svg>
